{
.appVersion = "3112";
customParameters = (
{
name = localizedDesigner;
value = "French;Ange Degheest & Mandy Elbé";
},
{
name = vendorID;
value = VTF;
},
{
name = license;
value = "SIL OFL";
},
{
name = licenseURL;
value = "https://scripts.sil.org/cms/scripts/page.php?item_id=OFL_web";
}
);
date = "2020-09-10 07:17:21 +0000";
disablesAutomaticAlignment = 1;
disablesNiceNames = 1;
familyName = FT88;
featurePrefixes = (
{
automatic = 1;
code = "languagesystem DFLT dflt;\012";
name = Languagesystems;
}
);
features = (
{
automatic = 1;
code = "feature case;\012feature ss01;\012";
name = aalt;
},
{
automatic = 1;
code = "lookup ccmp_Other_1 {\012	@CombiningTopAccents = [acutecomb circumflexcomb dieresiscomb gravecomb ringcomb tildecomb];\012	@CombiningNonTopAccents = [cedillacomb];\012	sub [i]' @CombiningTopAccents by [idotless];\012	sub [i]' @CombiningNonTopAccents @CombiningTopAccents by [idotless];\012} ccmp_Other_1;\012";
name = ccmp;
},
{
automatic = 1;
code = "sub guillemotleft by guillemotleft.case;\012sub guillemotright by guillemotright.case;\012sub guilsinglleft by guilsinglleft.case;\012sub guilsinglright by guilsinglright.case;\012";
name = case;
},
{
automatic = 1;

glyphs = (
{
glyphname = A;
lastChange = "2021-05-02 14:18:17 +0000";
layers = (
{
anchors = (
{
name = bottom;
position = "{700, 0}";
},
{
name = ogonek;
position = "{1250, 0}";
},
{
name = top;
position = "{700, 1000}";
}
);
layerId = "C06D72A1-06A8-4448-87FE-5EE3A071BB54";
paths = (
{
closed = 1;
nodes = (
"300 0 LINE",
"300 100 LINE",
"200 100 LINE",
"200 0 LINE"
);
},
{
closed = 1;
nodes = (
"300 100 LINE",
"300 200 LINE",
"200 200 LINE",
"200 100 LINE"
);
},
{
closed = 1;
nodes = (
"300 200 LINE",
"300 300 LINE",
"200 300 LINE",
"200 200 LINE"
);
},
{
closed = 1;
nodes = (
"300 300 LINE",
"300 400 LINE",
"200 400 LINE",
"200 300 LINE"
);
},
{
closed = 1;
nodes = (
"300 500 LINE",
"300 600 LINE",
"200 600 LINE",
"200 500 LINE"
);
},
{
closed = 1;
nodes = (
"300 400 LINE",
"300 500 LINE",
"200 500 LINE",
"200 400 LINE"
);
},
{
closed = 1;
nodes = (
"400 600 LINE",
"400 700 LINE",
"300 700 LINE",
"300 600 LINE"
);
},
{
closed = 1;
nodes = (
"600 600 LINE",
"600 700 LINE",
"500 700 LINE",
"500 600 LINE"
);
},
{
closed = 1;
nodes = (
"500 600 LINE",
"500 700 LINE",
"400 700 LINE",
"400 600 LINE"
);
},
{
closed = 1;
nodes = (
"700 600 LINE",
"700 700 LINE",
"600 700 LINE",
"600 600 LINE"
);
},
{
closed = 1;
nodes = (
"900 600 LINE",
"900 700 LINE",
"800 700 LINE",
"800 600 LINE"
);
},
{
closed = 1;
nodes = (
"800 600 LINE",
"800 700 LINE",
"700 700 LINE",
"700 600 LINE"
);
},
{
closed = 1;
nodes = (
"1100 600 LINE",
"1100 700 LINE",
"1000 700 LINE",
"1000 600 LINE"
);
},
{
closed = 1;
nodes = (
"1000 600 LINE",
"1000 700 LINE",
"900 700 LINE",
"900 600 LINE"
);
},
{
closed = 1;
nodes = (
"1200 500 LINE",
"1200 600 LINE",
"1100 600 LINE",
"1100 500 LINE"
);
},
{
closed = 1;
nodes = (
"1200 400 LINE",
"1200 500 LINE",
"1100 500 LINE",
"1100 400 LINE"
);
},
{
closed = 1;
nodes = (
"1200 300 LINE",
"1200 400 LINE",
"1100 400 LINE",
"1100 300 LINE"
);
},
{
closed = 1;
nodes = (
"1200 200 LINE",
"1200 300 LINE",
"1100 300 LINE",
"1100 200 LINE"
);
},
{
closed = 1;
nodes = (
"1200 100 LINE",
"1200 200 LINE",
"1100 200 LINE",
"1100 100 LINE"
);
},
{
closed = 1;
nodes = (
"1200 0 LINE",
"1200 100 LINE",
"1100 100 LINE",
"1100 0 LINE"
);
},
{
closed = 1;
nodes = (
"1100 200 LINE",
"1100 300 LINE",
"1000 300 LINE",
"1000 200 LINE"
);
},
{
closed = 1;
nodes = (
"1000 200 LINE",
"1000 300 LINE",
"900 300 LINE",
"900 200 LINE"
);
},
{
closed = 1;
nodes = (
"900 200 LINE",
"900 300 LINE",
"800 300 LINE",
"800 200 LINE"
);
},
{
closed = 1;
nodes = (
"800 200 LINE",
"800 300 LINE",
"700 300 LINE",
"700 200 LINE"
);
},
{
closed = 1;
nodes = (
"700 200 LINE",
"700 300 LINE",
"600 300 LINE",
"600 200 LINE"
);
},
{
closed = 1;
nodes = (
"600 200 LINE",
"600 300 LINE",
"500 300 LINE",
"500 200 LINE"
);
},
{
closed = 1;
nodes = (
"500 200 LINE",
"500 300 LINE",
"400 300 LINE",
"400 200 LINE"
);
},
{
closed = 1;
nodes = (
"400 200 LINE",
"400 300 LINE",
"300 300 LINE",
"300 200 LINE"
);
}
);
width = 1400;
}
);
note = A;
unicode = 0041;
},
{
glyphname = Aacute;
lastChange = "2021-05-02 14:18:17 +0000";
layers = (
{
anchors = (
{
name = bottom;
position = "{700, 0}";
},
{
name = ogonek;
position = "{1250, 0}";
},
{
name = top;
position = "{700, 1000}";
}
);
components = (
{
name = acutecomb;
transform = "{1, 0, 0, 1, 0, 100}";
}
);
layerId = "C06D72A1-06A8-4448-87FE-5EE3A071BB54";
paths = (
{
closed = 1;
nodes = (
"300 0 LINE",
"300 100 LINE",
"200 100 LINE",
"200 0 LINE"
);
},
{
closed = 1;
nodes = (
"300 100 LINE",
"300 200 LINE",
"200 200 LINE",
"200 100 LINE"
);
},
{
closed = 1;
nodes = (
"300 200 LINE",
"300 300 LINE",
"200 300 LINE",
"200 200 LINE"
);
},
{
closed = 1;
nodes = (
"300 300 LINE",
"300 400 LINE",
"200 400 LINE",
"200 300 LINE"
);
},
{
closed = 1;
nodes = (
"300 400 LINE",
"300 500 LINE",
"200 500 LINE",
"200 400 LINE"
);
},
{
closed = 1;
nodes = (
"400 500 LINE",
"400 600 LINE",
"300 600 LINE",
"300 500 LINE"
);
},
{
closed = 1;
nodes = (
"600 500 LINE",
"600 600 LINE",
"500 600 LINE",
"500 500 LINE"
);
},
{
closed = 1;
nodes = (
"500 500 LINE",
"500 600 LINE",
"400 600 LINE",
"400 500 LINE"
);
},
{
closed = 1;
nodes = (
"700 500 LINE",
"700 600 LINE",
"600 600 LINE",
"600 500 LINE"
);
},
{
closed = 1;
nodes = (
"900 500 LINE",
"900 600 LINE",
"800 600 LINE",
"800 500 LINE"
);
},
{
closed = 1;
nodes = (
"800 500 LINE",
"800 600 LINE",
"700 600 LINE",
"700 500 LINE"
);
},
{
closed = 1;
nodes = (
"1100 500 LINE",
"1100 600 LINE",
"1000 600 LINE",
"1000 500 LINE"
);
},
{
closed = 1;
nodes = (
"1000 500 LINE",
"1000 600 LINE",
"900 600 LINE",
"900 500 LINE"
);
},
{
closed = 1;
nodes = (
"1200 400 LINE",
"1200 500 LINE",
"1100 500 LINE",
"1100 400 LINE"
);
},
{
closed = 1;
nodes = (
"1200 300 LINE",
"1200 400 LINE",
"1100 400 LINE",
"1100 300 LINE"
);
},
{
closed = 1;
nodes = (
"1200 200 LINE",
"1200 300 LINE",
"1100 300 LINE",
"1100 200 LINE"
);
},
{
closed = 1;
nodes = (
"1200 100 LINE",
"1200 200 LINE",
"1100 200 LINE",
"1100 100 LINE"
);
},
{
closed = 1;
nodes = (
"1200 0 LINE",
"1200 100 LINE",
"1100 100 LINE",
"1100 0 LINE"
);
},
{
closed = 1;
nodes = (
"1100 200 LINE",
"1100 300 LINE",
"1000 300 LINE",
"1000 200 LINE"
);
},
{
closed = 1;
nodes = (
"1000 200 LINE",
"1000 300 LINE",
"900 300 LINE",
"900 200 LINE"
);
},
{
closed = 1;
nodes = (
"900 200 LINE",
"900 300 LINE",
"800 300 LINE",
"800 200 LINE"
);
},
{
closed = 1;
nodes = (
"800 200 LINE",
"800 300 LINE",
"700 300 LINE",
"700 200 LINE"
);
},
{
closed = 1;
nodes = (
"700 200 LINE",
"700 300 LINE",
"600 300 LINE",
"600 200 LINE"
);
},
{
closed = 1;
nodes = (
"600 200 LINE",
"600 300 LINE",
"500 300 LINE",
"500 200 LINE"
);
},
{
closed = 1;
nodes = (
"500 200 LINE",
"500 300 LINE",
"400 300 LINE",
"400 200 LINE"
);
},
{
closed = 1;
nodes = (
"400 200 LINE",
"400 300 LINE",
"300 300 LINE",
"300 200 LINE"
);
}
);
width = 1400;
}
);
unicode = 00C1;
},
{
glyphname = Acircumflex;
lastChange = "2021-05-02 14:18:17 +0000";
layers = (
{
components = (
{
name = circumflexcomb;
transform = "{1, 0, 0, 1, 0, 100}";
}
);
layerId = "C06D72A1-06A8-4448-87FE-5EE3A071BB54";
paths = (
{
closed = 1;
nodes = (
"300 0 LINE",
"300 100 LINE",
"200 100 LINE",
"200 0 LINE"
);
},
{
closed = 1;
nodes = (
"300 100 LINE",
"300 200 LINE",
"200 200 LINE",
"200 100 LINE"
);
},
{
closed = 1;
nodes = (
"300 200 LINE",
"300 300 LINE",
"200 300 LINE",
"200 200 LINE"
);
},
{
closed = 1;
nodes = (
"300 300 LINE",
"300 400 LINE",
"200 400 LINE",
"200 300 LINE"
);
},
{
closed = 1;
nodes = (
"300 400 LINE",
"300 500 LINE",
"200 500 LINE",
"200 400 LINE"
);
},
{
closed = 1;
nodes = (
"400 500 LINE",
"400 600 LINE",
"300 600 LINE",
"300 500 LINE"
);
},
{
closed = 1;
nodes = (
"600 500 LINE",
"600 600 LINE",
"500 600 LINE",
"500 500 LINE"
);
},
{
closed = 1;
nodes = (
"500 500 LINE",
"500 600 LINE",
"400 600 LINE",
"400 500 LINE"
);
},
{
closed = 1;
nodes = (
"700 500 LINE",
"700 600 LINE",
"600 600 LINE",
"600 500 LINE"
);
},
{
closed = 1;
nodes = (
"900 500 LINE",
"900 600 LINE",
"800 600 LINE",
"800 500 LINE"
);
},
{
closed = 1;
nodes = (
"800 500 LINE",
"800 600 LINE",
"700 600 LINE",
"700 500 LINE"
);
},
{
closed = 1;
nodes = (
"1100 500 LINE",
"1100 600 LINE",
"1000 600 LINE",
"1000 500 LINE"
);
},
{
closed = 1;
nodes = (
"1000 500 LINE",
"1000 600 LINE",
"900 600 LINE",
"900 500 LINE"
);
},
{
closed = 1;
nodes = (
"1200 400 LINE",
"1200 500 LINE",
"1100 500 LINE",
"1100 400 LINE"
);
},
{
closed = 1;
nodes = (
"1200 300 LINE",
"1200 400 LINE",
"1100 400 LINE",
"1100 300 LINE"
);
},
{
closed = 1;
nodes = (
"1200 200 LINE",
"1200 300 LINE",
"1100 300 LINE",
"1100 200 LINE"
);
},
{
closed = 1;
nodes = (
"1200 100 LINE",
"1200 200 LINE",
"1100 200 LINE",
"1100 100 LINE"
);
},
{
closed = 1;
nodes = (
"1200 0 LINE",
"1200 100 LINE",
"1100 100 LINE",
"1100 0 LINE"
);
},
{
closed = 1;
nodes = (
"1100 200 LINE",
"1100 300 LINE",
"1000 300 LINE",
"1000 200 LINE"
);
},
{
closed = 1;
nodes = (
"1000 200 LINE",
"1000 300 LINE",
"900 300 LINE",
"900 200 LINE"
);
},
{
closed = 1;
nodes = (
"900 200 LINE",
"900 300 LINE",
"800 300 LINE",
"800 200 LINE"
);
},
{
closed = 1;
nodes = (
"800 200 LINE",
"800 300 LINE",
"700 300 LINE",
"700 200 LINE"
);
},
{
closed = 1;
nodes = (
"700 200 LINE",
"700 300 LINE",
"600 300 LINE",
"600 200 LINE"
);
},
{
closed = 1;
nodes = (
"600 200 LINE",
"600 300 LINE",
"500 300 LINE",
"500 200 LINE"
);
},
{
closed = 1;
nodes = (
"500 200 LINE",
"500 300 LINE",
"400 300 LINE",
"400 200 LINE"
);
},
{
closed = 1;
nodes = (
"400 200 LINE",
"400 300 LINE",
"300 300 LINE",
"300 200 LINE"
);
}
);
width = 1400;
}
);
unicode = 00C2;
},
{
glyphname = Adieresis;
lastChange = "2021-05-02 14:18:17 +0000";
layers = (
{
components = (
{
name = dieresiscomb;
transform = "{1, 0, 0, 1, 0, 100}";
}
);
layerId = "C06D72A1-06A8-4448-87FE-5EE3A071BB54";
paths = (
{
closed = 1;
nodes = (
"300 0 LINE",
"300 100 LINE",
"200 100 LINE",
"200 0 LINE"
);
},
{
closed = 1;
nodes = (
"300 100 LINE",
"300 200 LINE",
"200 200 LINE",
"200 100 LINE"
);
},
{
closed = 1;
nodes = (
"300 200 LINE",
"300 300 LINE",
"200 300 LINE",
"200 200 LINE"
);
},
{
closed = 1;
nodes = (
"300 300 LINE",
"300 400 LINE",
"200 400 LINE",
"200 300 LINE"
);
},
{
closed = 1;
nodes = (
"300 400 LINE",
"300 500 LINE",
"200 500 LINE",
"200 400 LINE"
);
},
{
closed = 1;
nodes = (
"400 500 LINE",
"400 600 LINE",
"300 600 LINE",
"300 500 LINE"
);
},
{
closed = 1;
nodes = (
"600 500 LINE",
"600 600 LINE",
"500 600 LINE",
"500 500 LINE"
);
},
{
closed = 1;
nodes = (
"500 500 LINE",
"500 600 LINE",
"400 600 LINE",
"400 500 LINE"
);
},
{
closed = 1;
nodes = (
"700 500 LINE",
"700 600 LINE",
"600 600 LINE",
"600 500 LINE"
);
},
{
closed = 1;
nodes = (
"900 500 LINE",
"900 600 LINE",
"800 600 LINE",
"800 500 LINE"
);
},
{
closed = 1;
nodes = (
"800 500 LINE",
"800 600 LINE",
"700 600 LINE",
"700 500 LINE"
);
},
{
closed = 1;
nodes = (
"1100 500 LINE",
"1100 600 LINE",
"1000 600 LINE",
"1000 500 LINE"
);
},
{
closed = 1;
nodes = (
"1000 500 LINE",
"1000 600 LINE",
"900 600 LINE",
"900 500 LINE"
);
},
{
closed = 1;
nodes = (
"1200 400 LINE",
"1200 500 LINE",
"1100 500 LINE",
"1100 400 LINE"
);
},
{
closed = 1;
nodes = (
"1200 300 LINE",
"1200 400 LINE",
"1100 400 LINE",
"1100 300 LINE"
);
},
{
closed = 1;
nodes = (
"1200 200 LINE",
"1200 300 LINE",
"1100 300 LINE",
"1100 200 LINE"
);
},
{
closed = 1;
nodes = (
"1200 100 LINE",
"1200 200 LINE",
"1100 200 LINE",
"1100 100 LINE"
);
},
{
closed = 1;
nodes = (
"1200 0 LINE",
"1200 100 LINE",
"1100 100 LINE",
"1100 0 LINE"
);
},
{
closed = 1;
nodes = (
"1100 200 LINE",
"1100 300 LINE",
"1000 300 LINE",
"1000 200 LINE"
);
},
{
closed = 1;
nodes = (
"1000 200 LINE",
"1000 300 LINE",
"900 300 LINE",
"900 200 LINE"
);
},
{
closed = 1;
nodes = (
"900 200 LINE",
"900 300 LINE",
"800 300 LINE",
"800 200 LINE"
);
},
{
closed = 1;
nodes = (
"800 200 LINE",
"800 300 LINE",
"700 300 LINE",
"700 200 LINE"
);
},
{
closed = 1;
nodes = (
"700 200 LINE",
"700 300 LINE",
"600 300 LINE",
"600 200 LINE"
);
},
{
closed = 1;
nodes = (
"600 200 LINE",
"600 300 LINE",
"500 300 LINE",
"500 200 LINE"
);
},
{
closed = 1;
nodes = (
"500 200 LINE",
"500 300 LINE",
"400 300 LINE",
"400 200 LINE"
);
},
{
closed = 1;
nodes = (
"400 200 LINE",
"400 300 LINE",
"300 300 LINE",
"300 200 LINE"
);
}
);
width = 1400;
}
);
unicode = 00C4;
},
{
glyphname = Agrave;
lastChange = "2021-05-02 14:18:17 +0000";
layers = (
{
components = (
{
name = gravecomb;
transform = "{1, 0, 0, 1, 0, 100}";
}
);
layerId = "C06D72A1-06A8-4448-87FE-5EE3A071BB54";
paths = (
{
closed = 1;
nodes = (
"300 0 LINE",
"300 100 LINE",
"200 100 LINE",
"200 0 LINE"
);
},
{
closed = 1;
nodes = (
"300 100 LINE",
"300 200 LINE",
"200 200 LINE",
"200 100 LINE"
);
},
{
closed = 1;
nodes = (
"300 200 LINE",
"300 300 LINE",
"200 300 LINE",
"200 200 LINE"
);
},
{
closed = 1;
nodes = (
"300 300 LINE",
"300 400 LINE",
"200 400 LINE",
"200 300 LINE"
);
},
{
closed = 1;
nodes = (
"300 400 LINE",
"300 500 LINE",
"200 500 LINE",
"200 400 LINE"
);
},
{
closed = 1;
nodes = (
"400 500 LINE",
"400 600 LINE",
"300 600 LINE",
"300 500 LINE"
);
},
{
closed = 1;
nodes = (
"600 500 LINE",
"600 600 LINE",
"500 600 LINE",
"500 500 LINE"
);
},
{
closed = 1;
nodes = (
"500 500 LINE",
"500 600 LINE",
"400 600 LINE",
"400 500 LINE"
);
},
{
closed = 1;
nodes = (
"700 500 LINE",
"700 600 LINE",
"600 600 LINE",
"600 500 LINE"
);
},
{
closed = 1;
nodes = (
"900 500 LINE",
"900 600 LINE",
"800 600 LINE",
"800 500 LINE"
);
},
{
closed = 1;
nodes = (
"800 500 LINE",
"800 600 LINE",
"700 600 LINE",
"700 500 LINE"
);
},
{
closed = 1;
nodes = (
"1100 500 LINE",
"1100 600 LINE",
"1000 600 LINE",
"1000 500 LINE"
);
},
{
closed = 1;
nodes = (
"1000 500 LINE",
"1000 600 LINE",
"900 600 LINE",
"900 500 LINE"
);
},
{
closed = 1;
nodes = (
"1200 400 LINE",
"1200 500 LINE",
"1100 500 LINE",
"1100 400 LINE"
);
},
{
closed = 1;
nodes = (
"1200 300 LINE",
"1200 400 LINE",
"1100 400 LINE",
"1100 300 LINE"
);
},
{
closed = 1;
nodes = (
"1200 200 LINE",
"1200 300 LINE",
"1100 300 LINE",
"1100 200 LINE"
);
},
{
closed = 1;
nodes = (
"1200 100 LINE",
"1200 200 LINE",
"1100 200 LINE",
"1100 100 LINE"
);
},
{
closed = 1;
nodes = (
"1200 0 LINE",
"1200 100 LINE",
"1100 100 LINE",
"1100 0 LINE"
);
},
{
closed = 1;
nodes = (
"1100 200 LINE",
"1100 300 LINE",
"1000 300 LINE",
"1000 200 LINE"
);
},
{
closed = 1;
nodes = (
"1000 200 LINE",
"1000 300 LINE",
"900 300 LINE",
"900 200 LINE"
);
},
{
closed = 1;
nodes = (
"900 200 LINE",
"900 300 LINE",
"800 300 LINE",
"800 200 LINE"
);
},
{
closed = 1;
nodes = (
"800 200 LINE",
"800 300 LINE",
"700 300 LINE",
"700 200 LINE"
);
},
{
closed = 1;
nodes = (
"700 200 LINE",
"700 300 LINE",
"600 300 LINE",
"600 200 LINE"
);
},
{
closed = 1;
nodes = (
"600 200 LINE",
"600 300 LINE",
"500 300 LINE",
"500 200 LINE"
);
},
{
closed = 1;
nodes = (
"500 200 LINE",
"500 300 LINE",
"400 300 LINE",
"400 200 LINE"
);
},
{
closed = 1;
nodes = (
"400 200 LINE",
"400 300 LINE",
"300 300 LINE",
"300 200 LINE"
);
}
);
width = 1400;
}
);
unicode = 00C0;
},
{
glyphname = Aring;
lastChange = "2021-05-02 14:18:17 +0000";
layers = (
{
components = (
{
name = ringcomb;
transform = "{1, 0, 0, 1, 0, 100}";
}
);
layerId = "C06D72A1-06A8-4448-87FE-5EE3A071BB54";
paths = (
{
closed = 1;
nodes = (
"300 0 LINE",
"300 100 LINE",
"200 100 LINE",
"200 0 LINE"
);
},
{
closed = 1;
nodes = (
"300 100 LINE",
"300 200 LINE",
"200 200 LINE",
"200 100 LINE"
);
},
{
closed = 1;
nodes = (
"300 200 LINE",
"300 300 LINE",
"200 300 LINE",
"200 200 LINE"
);
},
{
closed = 1;
nodes = (
"300 300 LINE",
"300 400 LINE",
"200 400 LINE",
"200 300 LINE"
);
},
{
closed = 1;
nodes = (
"300 400 LINE",
"300 500 LINE",
"200 500 LINE",
"200 400 LINE"
);
},
{
closed = 1;
nodes = (
"400 500 LINE",
"400 600 LINE",
"300 600 LINE",
"300 500 LINE"
);
},
{
closed = 1;
nodes = (
"600 500 LINE",
"600 600 LINE",
"500 600 LINE",
"500 500 LINE"
);
},
{
closed = 1;
nodes = (
"500 500 LINE",
"500 600 LINE",
"400 600 LINE",
"400 500 LINE"
);
},
{
closed = 1;
nodes = (
"700 500 LINE",
"700 600 LINE",
"600 600 LINE",
"600 500 LINE"
);
},
{
closed = 1;
nodes = (
"900 500 LINE",
"900 600 LINE",
"800 600 LINE",
"800 500 LINE"
);
},
{
closed = 1;
nodes = (
"800 500 LINE",
"800 600 LINE",
"700 600 LINE",
"700 500 LINE"
);
},
{
closed = 1;
nodes = (
"1100 500 LINE",
"1100 600 LINE",
"1000 600 LINE",
"1000 500 LINE"
);
},
{
closed = 1;
nodes = (
"1000 500 LINE",
"1000 600 LINE",
"900 600 LINE",
"900 500 LINE"
);
},
{
closed = 1;
nodes = (
"1200 400 LINE",
"1200 500 LINE",
"1100 500 LINE",
"1100 400 LINE"
);
},
{
closed = 1;
nodes = (
"1200 300 LINE",
"1200 400 LINE",
"1100 400 LINE",
"1100 300 LINE"
);
},
{
closed = 1;
nodes = (
"1200 200 LINE",
"1200 300 LINE",
"1100 300 LINE",
"1100 200 LINE"
);
},
{
closed = 1;
nodes = (
"1200 100 LINE",
"1200 200 LINE",
"1100 200 LINE",
"1100 100 LINE"
);
},
{
closed = 1;
nodes = (
"1200 0 LINE",
"1200 100 LINE",
"1100 100 LINE",
"1100 0 LINE"
);
},
{
closed = 1;
nodes = (
"1100 200 LINE",
"1100 300 LINE",
"1000 300 LINE",
"1000 200 LINE"
);
},
{
closed = 1;
nodes = (
"1000 200 LINE",
"1000 300 LINE",
"900 300 LINE",
"900 200 LINE"
);
},
{
closed = 1;
nodes = (
"900 200 LINE",
"900 300 LINE",
"800 300 LINE",
"800 200 LINE"
);
},
{
closed = 1;
nodes = (
"800 200 LINE",
"800 300 LINE",
"700 300 LINE",
"700 200 LINE"
);
},
{
closed = 1;
nodes = (
"700 200 LINE",
"700 300 LINE",
"600 300 LINE",
"600 200 LINE"
);
},
{
closed = 1;
nodes = (
"600 200 LINE",
"600 300 LINE",
"500 300 LINE",
"500 200 LINE"
);
},
{
closed = 1;
nodes = (
"500 200 LINE",
"500 300 LINE",
"400 300 LINE",
"400 200 LINE"
);
},
{
closed = 1;
nodes = (
"400 200 LINE",
"400 300 LINE",
"300 300 LINE",
"300 200 LINE"
);
}
);
width = 1400;
}
);
unicode = 00C5;
},
{
glyphname = Atilde;
lastChange = "2021-05-02 14:18:17 +0000";
layers = (
{
components = (
{
name = tildecomb;
transform = "{1, 0, 0, 1, 0, 100}";
}
);
layerId = "C06D72A1-06A8-4448-87FE-5EE3A071BB54";
paths = (
{
closed = 1;
nodes = (
"300 0 LINE",
"300 100 LINE",
"200 100 LINE",
"200 0 LINE"
);
},
{
closed = 1;
nodes = (
"300 100 LINE",
"300 200 LINE",
"200 200 LINE",
"200 100 LINE"
);
},
{
closed = 1;
nodes = (
"300 200 LINE",
"300 300 LINE",
"200 300 LINE",
"200 200 LINE"
);
},
{
closed = 1;
nodes = (
"300 300 LINE",
"300 400 LINE",
"200 400 LINE",
"200 300 LINE"
);
},
{
closed = 1;
nodes = (
"300 400 LINE",
"300 500 LINE",
"200 500 LINE",
"200 400 LINE"
);
},
{
closed = 1;
nodes = (
"400 500 LINE",
"400 600 LINE",
"300 600 LINE",
"300 500 LINE"
);
},
{
closed = 1;
nodes = (
"600 500 LINE",
"600 600 LINE",
"500 600 LINE",
"500 500 LINE"
);
},
{
closed = 1;
nodes = (
"500 500 LINE",
"500 600 LINE",
"400 600 LINE",
"400 500 LINE"
);
},
{
closed = 1;
nodes = (
"700 500 LINE",
"700 600 LINE",
"600 600 LINE",
"600 500 LINE"
);
},
{
closed = 1;
nodes = (
"900 500 LINE",
"900 600 LINE",
"800 600 LINE",
"800 500 LINE"
);
},
{
closed = 1;
nodes = (
"800 500 LINE",
"800 600 LINE",
"700 600 LINE",
"700 500 LINE"
);
},
{
closed = 1;
nodes = (
"1100 500 LINE",
"1100 600 LINE",
"1000 600 LINE",
"1000 500 LINE"
);
},
{
closed = 1;
nodes = (
"1000 500 LINE",
"1000 600 LINE",
"900 600 LINE",
"900 500 LINE"
);
},
{
closed = 1;
nodes = (
"1200 400 LINE",
"1200 500 LINE",
"1100 500 LINE",
"1100 400 LINE"
);
},
{
closed = 1;
nodes = (
"1200 300 LINE",
"1200 400 LINE",
"1100 400 LINE",
"1100 300 LINE"
);
},
{
closed = 1;
nodes = (
"1200 200 LINE",
"1200 300 LINE",
"1100 300 LINE",
"1100 200 LINE"
);
},
{
closed = 1;
nodes = (
"1200 100 LINE",
"1200 200 LINE",
"1100 200 LINE",
"1100 100 LINE"
);
},
{
closed = 1;
nodes = (
"1200 0 LINE",
"1200 100 LINE",
"1100 100 LINE",
"1100 0 LINE"
);
},
{
closed = 1;
nodes = (
"1100 200 LINE",
"1100 300 LINE",
"1000 300 LINE",
"1000 200 LINE"
);
},
{
closed = 1;
nodes = (
"1000 200 LINE",
"1000 300 LINE",
"900 300 LINE",
"900 200 LINE"
);
},
{
closed = 1;
nodes = (
"900 200 LINE",
"900 300 LINE",
"800 300 LINE",
"800 200 LINE"
);
},
{
closed = 1;
nodes = (
"800 200 LINE",
"800 300 LINE",
"700 300 LINE",
"700 200 LINE"
);
},
{
closed = 1;
nodes = (
"700 200 LINE",
"700 300 LINE",
"600 300 LINE",
"600 200 LINE"
);
},
{
closed = 1;
nodes = (
"600 200 LINE",
"600 300 LINE",
"500 300 LINE",
"500 200 LINE"
);
},
{
closed = 1;
nodes = (
"500 200 LINE",
"500 300 LINE",
"400 300 LINE",
"400 200 LINE"
);
},
{
closed = 1;
nodes = (
"400 200 LINE",
"400 300 LINE",
"300 300 LINE",
"300 200 LINE"
);
}
);
width = 1400;
}
);
unicode = 00C3;
},
{
glyphname = AE;
lastChange = "2021-05-02 14:18:17 +0000";
layers = (
{
layerId = "C06D72A1-06A8-4448-87FE-5EE3A071BB54";
paths = (
{
closed = 1;
nodes = (
"200 0 LINE",
"200 100 LINE",
"100 100 LINE",
"100 0 LINE"
);
},
{
closed = 1;
nodes = (
"200 100 LINE",
"200 200 LINE",
"100 200 LINE",
"100 100 LINE"
);
},
{
closed = 1;
nodes = (
"200 300 LINE",
"200 400 LINE",
"100 400 LINE",
"100 300 LINE"
);
},
{
closed = 1;
nodes = (
"200 500 LINE",
"200 600 LINE",
"100 600 LINE",
"100 500 LINE"
);
},
{
closed = 1;
nodes = (
"200 400 LINE",
"200 500 LINE",
"100 500 LINE",
"100 400 LINE"
);
},
{
closed = 1;
nodes = (
"300 600 LINE",
"300 700 LINE",
"200 700 LINE",
"200 600 LINE"
);
},
{
closed = 1;
nodes = (
"400 600 LINE",
"400 700 LINE",
"300 700 LINE",
"300 600 LINE"
);
},
{
closed = 1;
nodes = (
"600 600 LINE",
"600 700 LINE",
"500 700 LINE",
"500 600 LINE"
);
},
{
closed = 1;
nodes = (
"500 600 LINE",
"500 700 LINE",
"400 700 LINE",
"400 600 LINE"
);
},
{
closed = 1;
nodes = (
"800 500 LINE",
"800 600 LINE",
"700 600 LINE",
"700 500 LINE"
);
},
{
closed = 1;
nodes = (
"800 400 LINE",
"800 500 LINE",
"700 500 LINE",
"700 400 LINE"
);
},
{
closed = 1;
nodes = (
"700 200 LINE",
"700 300 LINE",
"600 300 LINE",
"600 200 LINE"
);
},
{
closed = 1;
nodes = (
"800 100 LINE",
"800 200 LINE",
"700 200 LINE",
"700 100 LINE"
);
},
{
closed = 1;
nodes = (
"600 200 LINE",
"600 300 LINE",
"500 300 LINE",
"500 200 LINE"
);
},
{
closed = 1;
nodes = (
"500 200 LINE",
"500 300 LINE",
"400 300 LINE",
"400 200 LINE"
);
},
{
closed = 1;
nodes = (
"400 200 LINE",
"400 300 LINE",
"300 300 LINE",
"300 200 LINE"
);
},
{
closed = 1;
nodes = (
"200 200 LINE",
"200 300 LINE",
"100 300 LINE",
"100 200 LINE"
);
},
{
closed = 1;
nodes = (
"300 200 LINE",
"300 300 LINE",
"200 300 LINE",
"200 200 LINE"
);
},
{
closed = 1;
nodes = (
"800 200 LINE",
"800 300 LINE",
"700 300 LINE",
"700 200 LINE"
);
},
{
closed = 1;
nodes = (
"700 600 LINE",
"700 700 LINE",
"600 700 LINE",
"600 600 LINE"
);
},
{
closed = 1;
nodes = (
"800 600 LINE",
"800 700 LINE",
"700 700 LINE",
"700 600 LINE"
);
},
{
closed = 1;
nodes = (
"1100 600 LINE",
"1100 700 LINE",
"1000 700 LINE",
"1000 600 LINE"
);
},
{
closed = 1;
nodes = (
"900 600 LINE",
"900 700 LINE",
"800 700 LINE",
"800 600 LINE"
);
},
{
closed = 1;
nodes = (
"1000 600 LINE",
"1000 700 LINE",
"900 700 LINE",
"900 600 LINE"
);
},
{
closed = 1;
nodes = (
"1200 600 LINE",
"1200 700 LINE",
"1100 700 LINE",
"1100 600 LINE"
);
},
{
closed = 1;
nodes = (
"1300 600 LINE",
"1300 700 LINE",
"1200 700 LINE",
"1200 600 LINE"
);
},
{
closed = 1;
nodes = (
"800 0 LINE",
"800 100 LINE",
"700 100 LINE",
"700 0 LINE"
);
},
{
closed = 1;
nodes = (
"900 0 LINE",
"900 100 LINE",
"800 100 LINE",
"800 0 LINE"
);
},
{
closed = 1;
nodes = (
"1000 0 LINE",
"1000 100 LINE",
"900 100 LINE",
"900 0 LINE"
);
},
{
closed = 1;
nodes = (
"1100 0 LINE",
"1100 100 LINE",
"1000 100 LINE",
"1000 0 LINE"
);
},
{
closed = 1;
nodes = (
"1200 0 LINE",
"1200 100 LINE",
"1100 100 LINE",
"1100 0 LINE"
);
},
{
closed = 1;
nodes = (
"1300 0 LINE",
"1300 100 LINE",
"1200 100 LINE",
"1200 0 LINE"
);
},
{
closed = 1;
nodes = (
"800 300 LINE",
"800 400 LINE",
"700 400 LINE",
"700 300 LINE"
);
},
{
closed = 1;
nodes = (
"900 300 LINE",
"900 400 LINE",
"800 400 LINE",
"800 300 LINE"
);
},
{
closed = 1;
nodes = (
"1000 300 LINE",
"1000 400 LINE",
"900 400 LINE",
"900 300 LINE"
);
},
{
closed = 1;
nodes = (
"1100 300 LINE",
"1100 400 LINE",
"1000 400 LINE",
"1000 300 LINE"
);
}
);
width = 1400;
}
);
unicode = 00C6;
},
{
glyphname = B;
lastChange = "2021-05-02 14:18:17 +0000";
layers = (
{
layerId = "C06D72A1-06A8-4448-87FE-5EE3A071BB54";
paths = (
{
closed = 1;
nodes = (
"400 0 LINE",
"400 100 LINE",
"300 100 LINE",
"300 0 LINE"
);
},
{
closed = 1;
nodes = (
"500 0 LINE",
"500 100 LINE",
"400 100 LINE",
"400 0 LINE"
);
},
{
closed = 1;
nodes = (
"200 0 LINE",
"200 100 LINE",
"100 100 LINE",
"100 0 LINE"
);
},
{
closed = 1;
nodes = (
"300 600 LINE",
"300 700 LINE",
"200 700 LINE",
"200 600 LINE"
);
},
{
closed = 1;
nodes = (
"200 100 LINE",
"200 200 LINE",
"100 200 LINE",
"100 100 LINE"
);
},
{
closed = 1;
nodes = (
"200 200 LINE",
"200 300 LINE",
"100 300 LINE",
"100 200 LINE"
);
},
{
closed = 1;
nodes = (
"200 300 LINE",
"200 400 LINE",
"100 400 LINE",
"100 300 LINE"
);
},
{
closed = 1;
nodes = (
"200 400 LINE",
"200 500 LINE",
"100 500 LINE",
"100 400 LINE"
);
},
{
closed = 1;
nodes = (
"200 500 LINE",
"200 600 LINE",
"100 600 LINE",
"100 500 LINE"
);
},
{
closed = 1;
nodes = (
"200 600 LINE",
"200 700 LINE",
"100 700 LINE",
"100 600 LINE"
);
},
{
closed = 1;
nodes = (
"400 600 LINE",
"400 700 LINE",
"300 700 LINE",
"300 600 LINE"
);
},
{
closed = 1;
nodes = (
"500 600 LINE",
"500 700 LINE",
"400 700 LINE",
"400 600 LINE"
);
},
{
closed = 1;
nodes = (
"600 600 LINE",
"600 700 LINE",
"500 700 LINE",
"500 600 LINE"
);
},
{
closed = 1;
nodes = (
"700 600 LINE",
"700 700 LINE",
"600 700 LINE",
"600 600 LINE"
);
},
{
closed = 1;
nodes = (
"800 600 LINE",
"800 700 LINE",
"700 700 LINE",
"700 600 LINE"
);
},
{
closed = 1;
nodes = (
"900 600 LINE",
"900 700 LINE",
"800 700 LINE",
"800 600 LINE"
);
},
{
closed = 1;
nodes = (
"1000 600 LINE",
"1000 700 LINE",
"900 700 LINE",
"900 600 LINE"
);
},
{
closed = 1;
nodes = (
"1100 600 LINE",
"1100 700 LINE",
"1000 700 LINE",
"1000 600 LINE"
);
},
{
closed = 1;
nodes = (
"1200 500 LINE",
"1200 600 LINE",
"1100 600 LINE",
"1100 500 LINE"
);
},
{
closed = 1;
nodes = (
"1200 400 LINE",
"1200 500 LINE",
"1100 500 LINE",
"1100 400 LINE"
);
},
{
closed = 1;
nodes = (
"1000 300 LINE",
"1000 400 LINE",
"900 400 LINE",
"900 300 LINE"
);
},
{
closed = 1;
nodes = (
"1100 300 LINE",
"1100 400 LINE",
"1000 400 LINE",
"1000 300 LINE"
);
},
{
closed = 1;
nodes = (
"900 300 LINE",
"900 400 LINE",
"800 400 LINE",
"800 300 LINE"
);
},
{
closed = 1;
nodes = (
"800 300 LINE",
"800 400 LINE",
"700 400 LINE",
"700 300 LINE"
);
},
{
closed = 1;
nodes = (
"700 300 LINE",
"700 400 LINE",
"600 400 LINE",
"600 300 LINE"
);
},
{
closed = 1;
nodes = (
"600 300 LINE",
"600 400 LINE",
"500 400 LINE",
"500 300 LINE"
);
},
{
closed = 1;
nodes = (
"500 300 LINE",
"500 400 LINE",
"400 400 LINE",
"400 300 LINE"
);
},
{
closed = 1;
nodes = (
"400 300 LINE",
"400 400 LINE",
"300 400 LINE",
"300 300 LINE"
);
},
{
closed = 1;
nodes = (
"300 300 LINE",
"300 400 LINE",
"200 400 LINE",
"200 300 LINE"
);
},
{
closed = 1;
nodes = (
"300 0 LINE",
"300 100 LINE",
"200 100 LINE",
"200 0 LINE"
);
},
{
closed = 1;
nodes = (
"600 0 LINE",
"600 100 LINE",
"500 100 LINE",
"500 0 LINE"
);
},
{
closed = 1;
nodes = (
"700 0 LINE",
"700 100 LINE",
"600 100 LINE",
"600 0 LINE"
);
},
{
closed = 1;
nodes = (
"800 0 LINE",
"800 100 LINE",
"700 100 LINE",
"700 0 LINE"
);
},
{
closed = 1;
nodes = (
"900 0 LINE",
"900 100 LINE",
"800 100 LINE",
"800 0 LINE"
);
},
{
closed = 1;
nodes = (
"1000 0 LINE",
"1000 100 LINE",
"900 100 LINE",
"900 0 LINE"
);
},
{
closed = 1;
nodes = (
"1100 0 LINE",
"1100 100 LINE",
"1000 100 LINE",
"1000 0 LINE"
);
},
{
closed = 1;
nodes = (
"1200 100 LINE",
"1200 200 LINE",
"1100 200 LINE",
"1100 100 LINE"
);
},
{
closed = 1;
nodes = (
"1200 200 LINE",
"1200 300 LINE",
"1100 300 LINE",
"1100 200 LINE"
);
}
);
width = 1400;
}
);
note = B;
unicode = 0042;
},
{
glyphname = C;
lastChange = "2021-05-02 14:18:17 +0000";
layers = (
{
layerId = "C06D72A1-06A8-4448-87FE-5EE3A071BB54";
paths = (
{
closed = 1;
nodes = (
"300 200 LINE",
"300 300 LINE",
"200 300 LINE",
"200 200 LINE"
);
},
{
closed = 1;
nodes = (
"300 300 LINE",
"300 400 LINE",
"200 400 LINE",
"200 300 LINE"
);
},
{
closed = 1;
nodes = (
"300 400 LINE",
"300 500 LINE",
"200 500 LINE",
"200 400 LINE"
);
},
{
closed = 1;
nodes = (
"400 100 LINE",
"400 200 LINE",
"300 200 LINE",
"300 100 LINE"
);
},
{
closed = 1;
nodes = (
"500 0 LINE",
"500 100 LINE",
"400 100 LINE",
"400 0 LINE"
);
},
{
closed = 1;
nodes = (
"400 500 LINE",
"400 600 LINE",
"300 600 LINE",
"300 500 LINE"
);
},
{
closed = 1;
nodes = (
"500 600 LINE",
"500 700 LINE",
"400 700 LINE",
"400 600 LINE"
);
},
{
closed = 1;
nodes = (
"600 600 LINE",
"600 700 LINE",
"500 700 LINE",
"500 600 LINE"
);
},
{
closed = 1;
nodes = (
"700 600 LINE",
"700 700 LINE",
"600 700 LINE",
"600 600 LINE"
);
},
{
closed = 1;
nodes = (
"800 600 LINE",
"800 700 LINE",
"700 700 LINE",
"700 600 LINE"
);
},
{
closed = 1;
nodes = (
"900 600 LINE",
"900 700 LINE",
"800 700 LINE",
"800 600 LINE"
);
},
{
closed = 1;
nodes = (
"1100 600 LINE",
"1100 700 LINE",
"1000 700 LINE",
"1000 600 LINE"
);
},
{
closed = 1;
nodes = (
"1000 600 LINE",
"1000 700 LINE",
"900 700 LINE",
"900 600 LINE"
);
},
{
closed = 1;
nodes = (
"1200 600 LINE",
"1200 700 LINE",
"1100 700 LINE",
"1100 600 LINE"
);
},
{
closed = 1;
nodes = (
"600 0 LINE",
"600 100 LINE",
"500 100 LINE",
"500 0 LINE"
);
},
{
closed = 1;
nodes = (
"700 0 LINE",
"700 100 LINE",
"600 100 LINE",
"600 0 LINE"
);
},
{
closed = 1;
nodes = (
"800 0 LINE",
"800 100 LINE",
"700 100 LINE",
"700 0 LINE"
);
},
{
closed = 1;
nodes = (
"900 0 LINE",
"900 100 LINE",
"800 100 LINE",
"800 0 LINE"
);
},
{
closed = 1;
nodes = (
"1000 0 LINE",
"1000 100 LINE",
"900 100 LINE",
"900 0 LINE"
);
},
{
closed = 1;
nodes = (
"1100 0 LINE",
"1100 100 LINE",
"1000 100 LINE",
"1000 0 LINE"
);
},
{
closed = 1;
nodes = (
"1200 0 LINE",
"1200 100 LINE",
"1100 100 LINE",
"1100 0 LINE"
);
}
);
width = 1400;
}
);
note = C;
unicode = 0043;
},
{
glyphname = D;
lastChange = "2021-05-02 14:18:17 +0000";
layers = (
{
layerId = "C06D72A1-06A8-4448-87FE-5EE3A071BB54";
paths = (
{
closed = 1;
nodes = (
"300 100 LINE",
"300 200 LINE",
"200 200 LINE",
"200 100 LINE"
);
},
{
closed = 1;
nodes = (
"300 300 LINE",
"300 400 LINE",
"200 400 LINE",
"200 300 LINE"
);
},
{
closed = 1;
nodes = (
"300 400 LINE",
"300 500 LINE",
"200 500 LINE",
"200 400 LINE"
);
},
{
closed = 1;
nodes = (
"300 200 LINE",
"300 300 LINE",
"200 300 LINE",
"200 200 LINE"
);
},
{
closed = 1;
nodes = (
"300 500 LINE",
"300 600 LINE",
"200 600 LINE",
"200 500 LINE"
);
},
{
closed = 1;
nodes = (
"300 600 LINE",
"300 700 LINE",
"200 700 LINE",
"200 600 LINE"
);
},
{
closed = 1;
nodes = (
"400 600 LINE",
"400 700 LINE",
"300 700 LINE",
"300 600 LINE"
);
},
{
closed = 1;
nodes = (
"500 600 LINE",
"500 700 LINE",
"400 700 LINE",
"400 600 LINE"
);
},
{
closed = 1;
nodes = (
"600 600 LINE",
"600 700 LINE",
"500 700 LINE",
"500 600 LINE"
);
},
{
closed = 1;
nodes = (
"900 600 LINE",
"900 700 LINE",
"800 700 LINE",
"800 600 LINE"
);
},
{
closed = 1;
nodes = (
"700 600 LINE",
"700 700 LINE",
"600 700 LINE",
"600 600 LINE"
);
},
{
closed = 1;
nodes = (
"800 600 LINE",
"800 700 LINE",
"700 700 LINE",
"700 600 LINE"
);
},
{
closed = 1;
nodes = (
"1000 600 LINE",
"1000 700 LINE",
"900 700 LINE",
"900 600 LINE"
);
},
{
closed = 1;
nodes = (
"1100 600 LINE",
"1100 700 LINE",
"1000 700 LINE",
"1000 600 LINE"
);
},
{
closed = 1;
nodes = (
"300 0 LINE",
"300 100 LINE",
"200 100 LINE",
"200 0 LINE"
);
},
{
closed = 1;
nodes = (
"400 0 LINE",
"400 100 LINE",
"300 100 LINE",
"300 0 LINE"
);
},
{
closed = 1;
nodes = (
"500 0 LINE",
"500 100 LINE",
"400 100 LINE",
"400 0 LINE"
);
},
{
closed = 1;
nodes = (
"600 0 LINE",
"600 100 LINE",
"500 100 LINE",
"500 0 LINE"
);
},
{
closed = 1;
nodes = (
"700 0 LINE",
"700 100 LINE",
"600 100 LINE",
"600 0 LINE"
);
},
{
closed = 1;
nodes = (
"800 0 LINE",
"800 100 LINE",
"700 100 LINE",
"700 0 LINE"
);
},
{
closed = 1;
nodes = (
"900 0 LINE",
"900 100 LINE",
"800 100 LINE",
"800 0 LINE"
);
},
{
closed = 1;
nodes = (
"1000 0 LINE",
"1000 100 LINE",
"900 100 LINE",
"900 0 LINE"
);
},
{
closed = 1;
nodes = (
"1100 0 LINE",
"1100 100 LINE",
"1000 100 LINE",
"1000 0 LINE"
);
},
{
closed = 1;
nodes = (
"1200 100 LINE",
"1200 200 LINE",
"1100 200 LINE",
"1100 100 LINE"
);
},
{
closed = 1;
nodes = (
"1200 200 LINE",
"1200 300 LINE",
"1100 300 LINE",
"1100 200 LINE"
);
},
{
closed = 1;
nodes = (
"1200 300 LINE",
"1200 400 LINE",
"1100 400 LINE",
"1100 300 LINE"
);
},
{
closed = 1;
nodes = (
"1200 400 LINE",
"1200 500 LINE",
"1100 500 LINE",
"1100 400 LINE"
);
},
{
closed = 1;
nodes = (
"1200 500 LINE",
"1200 600 LINE",
"1100 600 LINE",
"1100 500 LINE"
);
}
);
width = 1400;
}
);
note = D;
unicode = 0044;
},
{
glyphname = E;
lastChange = "2021-05-02 14:18:17 +0000";
layers = (
{
anchors = (
{
name = bottom;
position = "{700, 0}";
},
{
name = ogonek;
position = "{1250, 0}";
},
{
name = top;
position = "{700, 1000}";
},
{
name = topleft;
position = "{0, 1000}";
}
);
layerId = "C06D72A1-06A8-4448-87FE-5EE3A071BB54";
paths = (
{
closed = 1;
nodes = (
"300 200 LINE",
"300 300 LINE",
"200 300 LINE",
"200 200 LINE"
);
},
{
closed = 1;
nodes = (
"300 100 LINE",
"300 200 LINE",
"200 200 LINE",
"200 100 LINE"
);
},
{
closed = 1;
nodes = (
"300 400 LINE",
"300 500 LINE",
"200 500 LINE",
"200 400 LINE"
);
},
{
closed = 1;
nodes = (
"300 500 LINE",
"300 600 LINE",
"200 600 LINE",
"200 500 LINE"
);
},
{
closed = 1;
nodes = (
"300 600 LINE",
"300 700 LINE",
"200 700 LINE",
"200 600 LINE"
);
},
{
closed = 1;
nodes = (
"400 600 LINE",
"400 700 LINE",
"300 700 LINE",
"300 600 LINE"
);
},
{
closed = 1;
nodes = (
"700 600 LINE",
"700 700 LINE",
"600 700 LINE",
"600 600 LINE"
);
},
{
closed = 1;
nodes = (
"500 600 LINE",
"500 700 LINE",
"400 700 LINE",
"400 600 LINE"
);
},
{
closed = 1;
nodes = (
"600 600 LINE",
"600 700 LINE",
"500 700 LINE",
"500 600 LINE"
);
},
{
closed = 1;
nodes = (
"800 600 LINE",
"800 700 LINE",
"700 700 LINE",
"700 600 LINE"
);
},
{
closed = 1;
nodes = (
"900 600 LINE",
"900 700 LINE",
"800 700 LINE",
"800 600 LINE"
);
},
{
closed = 1;
nodes = (
"1000 600 LINE",
"1000 700 LINE",
"900 700 LINE",
"900 600 LINE"
);
},
{
closed = 1;
nodes = (
"1100 600 LINE",
"1100 700 LINE",
"1000 700 LINE",
"1000 600 LINE"
);
},
{
closed = 1;
nodes = (
"300 0 LINE",
"300 100 LINE",
"200 100 LINE",
"200 0 LINE"
);
},
{
closed = 1;
nodes = (
"400 0 LINE",
"400 100 LINE",
"300 100 LINE",
"300 0 LINE"
);
},
{
closed = 1;
nodes = (
"500 0 LINE",
"500 100 LINE",
"400 100 LINE",
"400 0 LINE"
);
},
{
closed = 1;
nodes = (
"600 0 LINE",
"600 100 LINE",
"500 100 LINE",
"500 0 LINE"
);
},
{
closed = 1;
nodes = (
"700 0 LINE",
"700 100 LINE",
"600 100 LINE",
"600 0 LINE"
);
},
{
closed = 1;
nodes = (
"800 0 LINE",
"800 100 LINE",
"700 100 LINE",
"700 0 LINE"
);
},
{
closed = 1;
nodes = (
"900 0 LINE",
"900 100 LINE",
"800 100 LINE",
"800 0 LINE"
);
},
{
closed = 1;
nodes = (
"1000 0 LINE",
"1000 100 LINE",
"900 100 LINE",
"900 0 LINE"
);
},
{
closed = 1;
nodes = (
"1100 0 LINE",
"1100 100 LINE",
"1000 100 LINE",
"1000 0 LINE"
);
},
{
closed = 1;
nodes = (
"300 300 LINE",
"300 400 LINE",
"200 400 LINE",
"200 300 LINE"
);
},
{
closed = 1;
nodes = (
"400 300 LINE",
"400 400 LINE",
"300 400 LINE",
"300 300 LINE"
);
},
{
closed = 1;
nodes = (
"500 300 LINE",
"500 400 LINE",
"400 400 LINE",
"400 300 LINE"
);
},
{
closed = 1;
nodes = (
"600 300 LINE",
"600 400 LINE",
"500 400 LINE",
"500 300 LINE"
);
},
{
closed = 1;
nodes = (
"700 300 LINE",
"700 400 LINE",
"600 400 LINE",
"600 300 LINE"
);
},
{
closed = 1;
nodes = (
"800 300 LINE",
"800 400 LINE",
"700 400 LINE",
"700 300 LINE"
);
}
);
width = 1400;
}
);
note = E;
unicode = 0045;
},
{
glyphname = Eacute;
lastChange = "2021-05-02 14:18:17 +0000";
layers = (
{
anchors = (
{
name = bottom;
position = "{700, 0}";
},
{
name = ogonek;
position = "{1250, 0}";
},
{
name = top;
position = "{700, 1000}";
},
{
name = topleft;
position = "{0, 1000}";
}
);
components = (
{
name = acutecomb;
transform = "{1, 0, 0, 1, 0, 100}";
}
);
layerId = "C06D72A1-06A8-4448-87FE-5EE3A071BB54";
paths = (
{
closed = 1;
nodes = (
"300 200 LINE",
"300 300 LINE",
"200 300 LINE",
"200 200 LINE"
);
},
{
closed = 1;
nodes = (
"300 100 LINE",
"300 200 LINE",
"200 200 LINE",
"200 100 LINE"
);
},
{
closed = 1;
nodes = (
"300 400 LINE",
"300 500 LINE",
"200 500 LINE",
"200 400 LINE"
);
},
{
closed = 1;
nodes = (
"300 400 LINE",
"300 500 LINE",
"200 500 LINE",
"200 400 LINE"
);
},
{
closed = 1;
nodes = (
"300 500 LINE",
"300 600 LINE",
"200 600 LINE",
"200 500 LINE"
);
},
{
closed = 1;
nodes = (
"400 500 LINE",
"400 600 LINE",
"300 600 LINE",
"300 500 LINE"
);
},
{
closed = 1;
nodes = (
"700 500 LINE",
"700 600 LINE",
"600 600 LINE",
"600 500 LINE"
);
},
{
closed = 1;
nodes = (
"500 500 LINE",
"500 600 LINE",
"400 600 LINE",
"400 500 LINE"
);
},
{
closed = 1;
nodes = (
"600 500 LINE",
"600 600 LINE",
"500 600 LINE",
"500 500 LINE"
);
},
{
closed = 1;
nodes = (
"800 500 LINE",
"800 600 LINE",
"700 600 LINE",
"700 500 LINE"
);
},
{
closed = 1;
nodes = (
"900 500 LINE",
"900 600 LINE",
"800 600 LINE",
"800 500 LINE"
);
},
{
closed = 1;
nodes = (
"1000 500 LINE",
"1000 600 LINE",
"900 600 LINE",
"900 500 LINE"
);
},
{
closed = 1;
nodes = (
"1100 500 LINE",
"1100 600 LINE",
"1000 600 LINE",
"1000 500 LINE"
);
},
{
closed = 1;
nodes = (
"300 0 LINE",
"300 100 LINE",
"200 100 LINE",
"200 0 LINE"
);
},
{
closed = 1;
nodes = (
"400 0 LINE",
"400 100 LINE",
"300 100 LINE",
"300 0 LINE"
);
},
{
closed = 1;
nodes = (
"500 0 LINE",
"500 100 LINE",
"400 100 LINE",
"400 0 LINE"
);
},
{
closed = 1;
nodes = (
"600 0 LINE",
"600 100 LINE",
"500 100 LINE",
"500 0 LINE"
);
},
{
closed = 1;
nodes = (
"700 0 LINE",
"700 100 LINE",
"600 100 LINE",
"600 0 LINE"
);
},
{
closed = 1;
nodes = (
"800 0 LINE",
"800 100 LINE",
"700 100 LINE",
"700 0 LINE"
);
},
{
closed = 1;
nodes = (
"900 0 LINE",
"900 100 LINE",
"800 100 LINE",
"800 0 LINE"
);
},
{
closed = 1;
nodes = (
"1000 0 LINE",
"1000 100 LINE",
"900 100 LINE",
"900 0 LINE"
);
},
{
closed = 1;
nodes = (
"1100 0 LINE",
"1100 100 LINE",
"1000 100 LINE",
"1000 0 LINE"
);
},
{
closed = 1;
nodes = (
"300 300 LINE",
"300 400 LINE",
"200 400 LINE",
"200 300 LINE"
);
},
{
closed = 1;
nodes = (
"400 300 LINE",
"400 400 LINE",
"300 400 LINE",
"300 300 LINE"
);
},
{
closed = 1;
nodes = (
"500 300 LINE",
"500 400 LINE",
"400 400 LINE",
"400 300 LINE"
);
},
{
closed = 1;
nodes = (
"600 300 LINE",
"600 400 LINE",
"500 400 LINE",
"500 300 LINE"
);
},
{
closed = 1;
nodes = (
"700 300 LINE",
"700 400 LINE",
"600 400 LINE",
"600 300 LINE"
);
},
{
closed = 1;
nodes = (
"800 300 LINE",
"800 400 LINE",
"700 400 LINE",
"700 300 LINE"
);
}
);
width = 1400;
}
);
unicode = 00C9;
},
{
glyphname = Ecircumflex;
lastChange = "2021-05-02 14:18:17 +0000";
layers = (
{
anchors = (
{
name = bottom;
position = "{700, 0}";
},
{
name = ogonek;
position = "{1250, 0}";
},
{
name = top;
position = "{700, 1000}";
},
{
name = topleft;
position = "{0, 1000}";
}
);
layerId = "C06D72A1-06A8-4448-87FE-5EE3A071BB54";
paths = (
{
closed = 1;
nodes = (
"500 700 LINE",
"800 700 LINE",
"800 800 LINE",
"500 800 LINE"
);
},
{
closed = 1;
nodes = (
"800 600 LINE",
"1000 600 LINE",
"1000 700 LINE",
"800 700 LINE"
);
},
{
closed = 1;
nodes = (
"300 600 LINE",
"500 600 LINE",
"500 700 LINE",
"300 700 LINE"
);
},
{
closed = 1;
nodes = (
"300 200 LINE",
"300 300 LINE",
"200 300 LINE",
"200 200 LINE"
);
},
{
closed = 1;
nodes = (
"300 100 LINE",
"300 200 LINE",
"200 200 LINE",
"200 100 LINE"
);
},
{
closed = 1;
nodes = (
"300 400 LINE",
"300 500 LINE",
"200 500 LINE",
"200 400 LINE"
);
},
{
closed = 1;
nodes = (
"300 500 LINE",
"300 600 LINE",
"200 600 LINE",
"200 500 LINE"
);
},
{
closed = 1;
nodes = (
"400 500 LINE",
"400 600 LINE",
"300 600 LINE",
"300 500 LINE"
);
},
{
closed = 1;
nodes = (
"700 500 LINE",
"700 600 LINE",
"600 600 LINE",
"600 500 LINE"
);
},
{
closed = 1;
nodes = (
"500 500 LINE",
"500 600 LINE",
"400 600 LINE",
"400 500 LINE"
);
},
{
closed = 1;
nodes = (
"600 500 LINE",
"600 600 LINE",
"500 600 LINE",
"500 500 LINE"
);
},
{
closed = 1;
nodes = (
"800 500 LINE",
"800 600 LINE",
"700 600 LINE",
"700 500 LINE"
);
},
{
closed = 1;
nodes = (
"900 500 LINE",
"900 600 LINE",
"800 600 LINE",
"800 500 LINE"
);
},
{
closed = 1;
nodes = (
"1000 500 LINE",
"1000 600 LINE",
"900 600 LINE",
"900 500 LINE"
);
},
{
closed = 1;
nodes = (
"1100 500 LINE",
"1100 600 LINE",
"1000 600 LINE",
"1000 500 LINE"
);
},
{
closed = 1;
nodes = (
"300 0 LINE",
"300 100 LINE",
"200 100 LINE",
"200 0 LINE"
);
},
{
closed = 1;
nodes = (
"400 0 LINE",
"400 100 LINE",
"300 100 LINE",
"300 0 LINE"
);
},
{
closed = 1;
nodes = (
"500 0 LINE",
"500 100 LINE",
"400 100 LINE",
"400 0 LINE"
);
},
{
closed = 1;
nodes = (
"600 0 LINE",
"600 100 LINE",
"500 100 LINE",
"500 0 LINE"
);
},
{
closed = 1;
nodes = (
"700 0 LINE",
"700 100 LINE",
"600 100 LINE",
"600 0 LINE"
);
},
{
closed = 1;
nodes = (
"800 0 LINE",
"800 100 LINE",
"700 100 LINE",
"700 0 LINE"
);
},
{
closed = 1;
nodes = (
"900 0 LINE",
"900 100 LINE",
"800 100 LINE",
"800 0 LINE"
);
},
{
closed = 1;
nodes = (
"1000 0 LINE",
"1000 100 LINE",
"900 100 LINE",
"900 0 LINE"
);
},
{
closed = 1;
nodes = (
"1100 0 LINE",
"1100 100 LINE",
"1000 100 LINE",
"1000 0 LINE"
);
},
{
closed = 1;
nodes = (
"300 300 LINE",
"300 400 LINE",
"200 400 LINE",
"200 300 LINE"
);
},
{
closed = 1;
nodes = (
"400 300 LINE",
"400 400 LINE",
"300 400 LINE",
"300 300 LINE"
);
},
{
closed = 1;
nodes = (
"500 300 LINE",
"500 400 LINE",
"400 400 LINE",
"400 300 LINE"
);
},
{
closed = 1;
nodes = (
"600 300 LINE",
"600 400 LINE",
"500 400 LINE",
"500 300 LINE"
);
},
{
closed = 1;
nodes = (
"700 300 LINE",
"700 400 LINE",
"600 400 LINE",
"600 300 LINE"
);
},
{
closed = 1;
nodes = (
"800 300 LINE",
"800 400 LINE",
"700 400 LINE",
"700 300 LINE"
);
}
);
width = 1400;
}
);
unicode = 00CA;
},
{
glyphname = Edieresis;
lastChange = "2021-05-02 14:18:17 +0000";
layers = (
{
components = (
{
name = dieresiscomb;
transform = "{1, 0, 0, 1, 0, 100}";
}
);
layerId = "C06D72A1-06A8-4448-87FE-5EE3A071BB54";
paths = (
{
closed = 1;
nodes = (
"300 200 LINE",
"300 300 LINE",
"200 300 LINE",
"200 200 LINE"
);
},
{
closed = 1;
nodes = (
"300 100 LINE",
"300 200 LINE",
"200 200 LINE",
"200 100 LINE"
);
},
{
closed = 1;
nodes = (
"300 400 LINE",
"300 500 LINE",
"200 500 LINE",
"200 400 LINE"
);
},
{
closed = 1;
nodes = (
"300 500 LINE",
"300 600 LINE",
"200 600 LINE",
"200 500 LINE"
);
},
{
closed = 1;
nodes = (
"400 500 LINE",
"400 600 LINE",
"300 600 LINE",
"300 500 LINE"
);
},
{
closed = 1;
nodes = (
"700 500 LINE",
"700 600 LINE",
"600 600 LINE",
"600 500 LINE"
);
},
{
closed = 1;
nodes = (
"500 500 LINE",
"500 600 LINE",
"400 600 LINE",
"400 500 LINE"
);
},
{
closed = 1;
nodes = (
"600 500 LINE",
"600 600 LINE",
"500 600 LINE",
"500 500 LINE"
);
},
{
closed = 1;
nodes = (
"800 500 LINE",
"800 600 LINE",
"700 600 LINE",
"700 500 LINE"
);
},
{
closed = 1;
nodes = (
"900 500 LINE",
"900 600 LINE",
"800 600 LINE",
"800 500 LINE"
);
},
{
closed = 1;
nodes = (
"1000 500 LINE",
"1000 600 LINE",
"900 600 LINE",
"900 500 LINE"
);
},
{
closed = 1;
nodes = (
"1100 500 LINE",
"1100 600 LINE",
"1000 600 LINE",
"1000 500 LINE"
);
},
{
closed = 1;
nodes = (
"300 0 LINE",
"300 100 LINE",
"200 100 LINE",
"200 0 LINE"
);
},
{
closed = 1;
nodes = (
"400 0 LINE",
"400 100 LINE",
"300 100 LINE",
"300 0 LINE"
);
},
{
closed = 1;
nodes = (
"500 0 LINE",
"500 100 LINE",
"400 100 LINE",
"400 0 LINE"
);
},
{
closed = 1;
nodes = (
"600 0 LINE",
"600 100 LINE",
"500 100 LINE",
"500 0 LINE"
);
},
{
closed = 1;
nodes = (
"700 0 LINE",
"700 100 LINE",
"600 100 LINE",
"600 0 LINE"
);
},
{
closed = 1;
nodes = (
"800 0 LINE",
"800 100 LINE",
"700 100 LINE",
"700 0 LINE"
);
},
{
closed = 1;
nodes = (
"900 0 LINE",
"900 100 LINE",
"800 100 LINE",
"800 0 LINE"
);
},
{
closed = 1;
nodes = (
"1000 0 LINE",
"1000 100 LINE",
"900 100 LINE",
"900 0 LINE"
);
},
{
closed = 1;
nodes = (
"1100 0 LINE",
"1100 100 LINE",
"1000 100 LINE",
"1000 0 LINE"
);
},
{
closed = 1;
nodes = (
"300 300 LINE",
"300 400 LINE",
"200 400 LINE",
"200 300 LINE"
);
},
{
closed = 1;
nodes = (
"400 300 LINE",
"400 400 LINE",
"300 400 LINE",
"300 300 LINE"
);
},
{
closed = 1;
nodes = (
"500 300 LINE",
"500 400 LINE",
"400 400 LINE",
"400 300 LINE"
);
},
{
closed = 1;
nodes = (
"600 300 LINE",
"600 400 LINE",
"500 400 LINE",
"500 300 LINE"
);
},
{
closed = 1;
nodes = (
"700 300 LINE",
"700 400 LINE",
"600 400 LINE",
"600 300 LINE"
);
},
{
closed = 1;
nodes = (
"800 300 LINE",
"800 400 LINE",
"700 400 LINE",
"700 300 LINE"
);
}
);
width = 1400;
}
);
unicode = 00CB;
},
{
glyphname = Egrave;
lastChange = "2021-05-02 14:18:17 +0000";
layers = (
{
components = (
{
name = gravecomb;
transform = "{1, 0, 0, 1, 0, 100}";
}
);
layerId = "C06D72A1-06A8-4448-87FE-5EE3A071BB54";
paths = (
{
closed = 1;
nodes = (
"300 200 LINE",
"300 300 LINE",
"200 300 LINE",
"200 200 LINE"
);
},
{
closed = 1;
nodes = (
"300 100 LINE",
"300 200 LINE",
"200 200 LINE",
"200 100 LINE"
);
},
{
closed = 1;
nodes = (
"300 400 LINE",
"300 500 LINE",
"200 500 LINE",
"200 400 LINE"
);
},
{
closed = 1;
nodes = (
"300 500 LINE",
"300 600 LINE",
"200 600 LINE",
"200 500 LINE"
);
},
{
closed = 1;
nodes = (
"400 500 LINE",
"400 600 LINE",
"300 600 LINE",
"300 500 LINE"
);
},
{
closed = 1;
nodes = (
"700 500 LINE",
"700 600 LINE",
"600 600 LINE",
"600 500 LINE"
);
},
{
closed = 1;
nodes = (
"500 500 LINE",
"500 600 LINE",
"400 600 LINE",
"400 500 LINE"
);
},
{
closed = 1;
nodes = (
"600 500 LINE",
"600 600 LINE",
"500 600 LINE",
"500 500 LINE"
);
},
{
closed = 1;
nodes = (
"800 500 LINE",
"800 600 LINE",
"700 600 LINE",
"700 500 LINE"
);
},
{
closed = 1;
nodes = (
"900 500 LINE",
"900 600 LINE",
"800 600 LINE",
"800 500 LINE"
);
},
{
closed = 1;
nodes = (
"1000 500 LINE",
"1000 600 LINE",
"900 600 LINE",
"900 500 LINE"
);
},
{
closed = 1;
nodes = (
"1100 500 LINE",
"1100 600 LINE",
"1000 600 LINE",
"1000 500 LINE"
);
},
{
closed = 1;
nodes = (
"300 0 LINE",
"300 100 LINE",
"200 100 LINE",
"200 0 LINE"
);
},
{
closed = 1;
nodes = (
"400 0 LINE",
"400 100 LINE",
"300 100 LINE",
"300 0 LINE"
);
},
{
closed = 1;
nodes = (
"500 0 LINE",
"500 100 LINE",
"400 100 LINE",
"400 0 LINE"
);
},
{
closed = 1;
nodes = (
"600 0 LINE",
"600 100 LINE",
"500 100 LINE",
"500 0 LINE"
);
},
{
closed = 1;
nodes = (
"700 0 LINE",
"700 100 LINE",
"600 100 LINE",
"600 0 LINE"
);
},
{
closed = 1;
nodes = (
"800 0 LINE",
"800 100 LINE",
"700 100 LINE",
"700 0 LINE"
);
},
{
closed = 1;
nodes = (
"900 0 LINE",
"900 100 LINE",
"800 100 LINE",
"800 0 LINE"
);
},
{
closed = 1;
nodes = (
"1000 0 LINE",
"1000 100 LINE",
"900 100 LINE",
"900 0 LINE"
);
},
{
closed = 1;
nodes = (
"1100 0 LINE",
"1100 100 LINE",
"1000 100 LINE",
"1000 0 LINE"
);
},
{
closed = 1;
nodes = (
"300 300 LINE",
"300 400 LINE",
"200 400 LINE",
"200 300 LINE"
);
},
{
closed = 1;
nodes = (
"400 300 LINE",
"400 400 LINE",
"300 400 LINE",
"300 300 LINE"
);
},
{
closed = 1;
nodes = (
"500 300 LINE",
"500 400 LINE",
"400 400 LINE",
"400 300 LINE"
);
},
{
closed = 1;
nodes = (
"600 300 LINE",
"600 400 LINE",
"500 400 LINE",
"500 300 LINE"
);
},
{
closed = 1;
nodes = (
"700 300 LINE",
"700 400 LINE",
"600 400 LINE",
"600 300 LINE"
);
},
{
closed = 1;
nodes = (
"800 300 LINE",
"800 400 LINE",
"700 400 LINE",
"700 300 LINE"
);
}
);
width = 1400;
}
);
unicode = 00C8;
},
{
glyphname = F;
lastChange = "2021-05-02 14:18:17 +0000";
layers = (
{
layerId = "C06D72A1-06A8-4448-87FE-5EE3A071BB54";
paths = (
{
closed = 1;
nodes = (
"300 0 LINE",
"300 100 LINE",
"200 100 LINE",
"200 0 LINE"
);
},
{
closed = 1;
nodes = (
"300 100 LINE",
"300 200 LINE",
"200 200 LINE",
"200 100 LINE"
);
},
{
closed = 1;
nodes = (
"300 200 LINE",
"300 300 LINE",
"200 300 LINE",
"200 200 LINE"
);
},
{
closed = 1;
nodes = (
"300 400 LINE",
"300 500 LINE",
"200 500 LINE",
"200 400 LINE"
);
},
{
closed = 1;
nodes = (
"300 500 LINE",
"300 600 LINE",
"200 600 LINE",
"200 500 LINE"
);
},
{
closed = 1;
nodes = (
"300 600 LINE",
"300 700 LINE",
"200 700 LINE",
"200 600 LINE"
);
},
{
closed = 1;
nodes = (
"400 600 LINE",
"400 700 LINE",
"300 700 LINE",
"300 600 LINE"
);
},
{
closed = 1;
nodes = (
"600 600 LINE",
"600 700 LINE",
"500 700 LINE",
"500 600 LINE"
);
},
{
closed = 1;
nodes = (
"500 600 LINE",
"500 700 LINE",
"400 700 LINE",
"400 600 LINE"
);
},
{
closed = 1;
nodes = (
"700 600 LINE",
"700 700 LINE",
"600 700 LINE",
"600 600 LINE"
);
},
{
closed = 1;
nodes = (
"800 600 LINE",
"800 700 LINE",
"700 700 LINE",
"700 600 LINE"
);
},
{
closed = 1;
nodes = (
"900 600 LINE",
"900 700 LINE",
"800 700 LINE",
"800 600 LINE"
);
},
{
closed = 1;
nodes = (
"1000 600 LINE",
"1000 700 LINE",
"900 700 LINE",
"900 600 LINE"
);
},
{
closed = 1;
nodes = (
"1100 600 LINE",
"1100 700 LINE",
"1000 700 LINE",
"1000 600 LINE"
);
},
{
closed = 1;
nodes = (
"300 300 LINE",
"300 400 LINE",
"200 400 LINE",
"200 300 LINE"
);
},
{
closed = 1;
nodes = (
"400 300 LINE",
"400 400 LINE",
"300 400 LINE",
"300 300 LINE"
);
},
{
closed = 1;
nodes = (
"500 300 LINE",
"500 400 LINE",
"400 400 LINE",
"400 300 LINE"
);
},
{
closed = 1;
nodes = (
"600 300 LINE",
"600 400 LINE",
"500 400 LINE",
"500 300 LINE"
);
},
{
closed = 1;
nodes = (
"700 300 LINE",
"700 400 LINE",
"600 400 LINE",
"600 300 LINE"
);
},
{
closed = 1;
nodes = (
"800 300 LINE",
"800 400 LINE",
"700 400 LINE",
"700 300 LINE"
);
},
{
closed = 1;
nodes = (
"1200 600 LINE",
"1200 700 LINE",
"1100 700 LINE",
"1100 600 LINE"
);
}
);
width = 1400;
}
);
note = F;
unicode = 0046;
},
{
glyphname = G;
lastChange = "2021-05-02 14:18:17 +0000";
layers = (
{
layerId = "C06D72A1-06A8-4448-87FE-5EE3A071BB54";
paths = (
{
closed = 1;
nodes = (
"400 0 LINE",
"400 100 LINE",
"300 100 LINE",
"300 0 LINE"
);
},
{
closed = 1;
nodes = (
"500 0 LINE",
"500 100 LINE",
"400 100 LINE",
"400 0 LINE"
);
},
{
closed = 1;
nodes = (
"600 0 LINE",
"600 100 LINE",
"500 100 LINE",
"500 0 LINE"
);
},
{
closed = 1;
nodes = (
"700 0 LINE",
"700 100 LINE",
"600 100 LINE",
"600 0 LINE"
);
},
{
closed = 1;
nodes = (
"1000 0 LINE",
"1000 100 LINE",
"900 100 LINE",
"900 0 LINE"
);
},
{
closed = 1;
nodes = (
"800 0 LINE",
"800 100 LINE",
"700 100 LINE",
"700 0 LINE"
);
},
{
closed = 1;
nodes = (
"900 0 LINE",
"900 100 LINE",
"800 100 LINE",
"800 0 LINE"
);
},
{
closed = 1;
nodes = (
"1100 0 LINE",
"1100 100 LINE",
"1000 100 LINE",
"1000 0 LINE"
);
},
{
closed = 1;
nodes = (
"1100 100 LINE",
"1100 200 LINE",
"1000 200 LINE",
"1000 100 LINE"
);
},
{
closed = 1;
nodes = (
"1100 200 LINE",
"1100 300 LINE",
"1000 300 LINE",
"1000 200 LINE"
);
},
{
closed = 1;
nodes = (
"300 200 LINE",
"300 300 LINE",
"200 300 LINE",
"200 200 LINE"
);
},
{
closed = 1;
nodes = (
"300 300 LINE",
"300 400 LINE",
"200 400 LINE",
"200 300 LINE"
);
},
{
closed = 1;
nodes = (
"300 400 LINE",
"300 500 LINE",
"200 500 LINE",
"200 400 LINE"
);
},
{
closed = 1;
nodes = (
"300 500 LINE",
"300 600 LINE",
"200 600 LINE",
"200 500 LINE"
);
},
{
closed = 1;
nodes = (
"400 600 LINE",
"400 700 LINE",
"300 700 LINE",
"300 600 LINE"
);
},
{
closed = 1;
nodes = (
"500 600 LINE",
"500 700 LINE",
"400 700 LINE",
"400 600 LINE"
);
},
{
closed = 1;
nodes = (
"600 600 LINE",
"600 700 LINE",
"500 700 LINE",
"500 600 LINE"
);
},
{
closed = 1;
nodes = (
"800 600 LINE",
"800 700 LINE",
"700 700 LINE",
"700 600 LINE"
);
},
{
closed = 1;
nodes = (
"900 600 LINE",
"900 700 LINE",
"800 700 LINE",
"800 600 LINE"
);
},
{
closed = 1;
nodes = (
"700 600 LINE",
"700 700 LINE",
"600 700 LINE",
"600 600 LINE"
);
},
{
closed = 1;
nodes = (
"1000 600 LINE",
"1000 700 LINE",
"900 700 LINE",
"900 600 LINE"
);
},
{
closed = 1;
nodes = (
"1100 600 LINE",
"1100 700 LINE",
"1000 700 LINE",
"1000 600 LINE"
);
},
{
closed = 1;
nodes = (
"1100 300 LINE",
"1100 400 LINE",
"1000 400 LINE",
"1000 300 LINE"
);
},
{
closed = 1;
nodes = (
"1000 300 LINE",
"1000 400 LINE",
"900 400 LINE",
"900 300 LINE"
);
},
{
closed = 1;
nodes = (
"900 300 LINE",
"900 400 LINE",
"800 400 LINE",
"800 300 LINE"
);
},
{
closed = 1;
nodes = (
"800 300 LINE",
"800 400 LINE",
"700 400 LINE",
"700 300 LINE"
);
},
{
closed = 1;
nodes = (
"300 100 LINE",
"300 200 LINE",
"200 200 LINE",
"200 100 LINE"
);
}
);
width = 1400;
}
);
note = G;
unicode = 0047;
},
{
glyphname = H;
lastChange = "2021-05-02 14:18:17 +0000";
layers = (
{
layerId = "C06D72A1-06A8-4448-87FE-5EE3A071BB54";
paths = (
{
closed = 1;
nodes = (
"300 0 LINE",
"300 100 LINE",
"200 100 LINE",
"200 0 LINE"
);
},
{
closed = 1;
nodes = (
"300 200 LINE",
"300 300 LINE",
"200 300 LINE",
"200 200 LINE"
);
},
{
closed = 1;
nodes = (
"300 100 LINE",
"300 200 LINE",
"200 200 LINE",
"200 100 LINE"
);
},
{
closed = 1;
nodes = (
"300 400 LINE",
"300 500 LINE",
"200 500 LINE",
"200 400 LINE"
);
},
{
closed = 1;
nodes = (
"500 300 LINE",
"500 400 LINE",
"400 400 LINE",
"400 300 LINE"
);
},
{
closed = 1;
nodes = (
"300 500 LINE",
"300 600 LINE",
"200 600 LINE",
"200 500 LINE"
);
},
{
closed = 1;
nodes = (
"300 300 LINE",
"300 400 LINE",
"200 400 LINE",
"200 300 LINE"
);
},
{
closed = 1;
nodes = (
"300 600 LINE",
"300 700 LINE",
"200 700 LINE",
"200 600 LINE"
);
},
{
closed = 1;
nodes = (
"600 300 LINE",
"600 400 LINE",
"500 400 LINE",
"500 300 LINE"
);
},
{
closed = 1;
nodes = (
"400 300 LINE",
"400 400 LINE",
"300 400 LINE",
"300 300 LINE"
);
},
{
closed = 1;
nodes = (
"700 300 LINE",
"700 400 LINE",
"600 400 LINE",
"600 300 LINE"
);
},
{
closed = 1;
nodes = (
"800 300 LINE",
"800 400 LINE",
"700 400 LINE",
"700 300 LINE"
);
},
{
closed = 1;
nodes = (
"900 300 LINE",
"900 400 LINE",
"800 400 LINE",
"800 300 LINE"
);
},
{
closed = 1;
nodes = (
"1000 300 LINE",
"1000 400 LINE",
"900 400 LINE",
"900 300 LINE"
);
},
{
closed = 1;
nodes = (
"1100 300 LINE",
"1100 400 LINE",
"1000 400 LINE",
"1000 300 LINE"
);
},
{
closed = 1;
nodes = (
"1200 300 LINE",
"1200 400 LINE",
"1100 400 LINE",
"1100 300 LINE"
);
},
{
closed = 1;
nodes = (
"1200 200 LINE",
"1200 300 LINE",
"1100 300 LINE",
"1100 200 LINE"
);
},
{
closed = 1;
nodes = (
"1200 100 LINE",
"1200 200 LINE",
"1100 200 LINE",
"1100 100 LINE"
);
},
{
closed = 1;
nodes = (
"1200 0 LINE",
"1200 100 LINE",
"1100 100 LINE",
"1100 0 LINE"
);
},
{
closed = 1;
nodes = (
"1200 400 LINE",
"1200 500 LINE",
"1100 500 LINE",
"1100 400 LINE"
);
},
{
closed = 1;
nodes = (
"1200 500 LINE",
"1200 600 LINE",
"1100 600 LINE",
"1100 500 LINE"
);
},
{
closed = 1;
nodes = (
"1200 600 LINE",
"1200 700 LINE",
"1100 700 LINE",
"1100 600 LINE"
);
}
);
width = 1400;
}
);
note = H;
unicode = 0048;
},
{
glyphname = I;
lastChange = "2021-05-02 14:18:17 +0000";
layers = (
{
anchors = (
{
name = bottom;
position = "{700, 0}";
},
{
name = ogonek;
position = "{1250, 0}";
},
{
name = top;
position = "{700, 1000}";
},
{
name = topleft;
position = "{0, 1000}";
}
);
layerId = "C06D72A1-06A8-4448-87FE-5EE3A071BB54";
paths = (
{
closed = 1;
nodes = (
"700 0 LINE",
"700 100 LINE",
"600 100 LINE",
"600 0 LINE"
);
},
{
closed = 1;
nodes = (
"300 0 LINE",
"300 100 LINE",
"200 100 LINE",
"200 0 LINE"
);
},
{
closed = 1;
nodes = (
"400 0 LINE",
"400 100 LINE",
"300 100 LINE",
"300 0 LINE"
);
},
{
closed = 1;
nodes = (
"500 0 LINE",
"500 100 LINE",
"400 100 LINE",
"400 0 LINE"
);
},
{
closed = 1;
nodes = (
"600 0 LINE",
"600 100 LINE",
"500 100 LINE",
"500 0 LINE"
);
},
{
closed = 1;
nodes = (
"800 0 LINE",
"800 100 LINE",
"700 100 LINE",
"700 0 LINE"
);
},
{
closed = 1;
nodes = (
"900 0 LINE",
"900 100 LINE",
"800 100 LINE",
"800 0 LINE"
);
},
{
closed = 1;
nodes = (
"1000 0 LINE",
"1000 100 LINE",
"900 100 LINE",
"900 0 LINE"
);
},
{
closed = 1;
nodes = (
"1100 0 LINE",
"1100 100 LINE",
"1000 100 LINE",
"1000 0 LINE"
);
},
{
closed = 1;
nodes = (
"1200 0 LINE",
"1200 100 LINE",
"1100 100 LINE",
"1100 0 LINE"
);
},
{
closed = 1;
nodes = (
"700 100 LINE",
"700 200 LINE",
"600 200 LINE",
"600 100 LINE"
);
},
{
closed = 1;
nodes = (
"700 200 LINE",
"700 300 LINE",
"600 300 LINE",
"600 200 LINE"
);
},
{
closed = 1;
nodes = (
"700 400 LINE",
"700 500 LINE",
"600 500 LINE",
"600 400 LINE"
);
},
{
closed = 1;
nodes = (
"700 300 LINE",
"700 400 LINE",
"600 400 LINE",
"600 300 LINE"
);
},
{
closed = 1;
nodes = (
"700 500 LINE",
"700 600 LINE",
"600 600 LINE",
"600 500 LINE"
);
},
{
closed = 1;
nodes = (
"900 600 LINE",
"900 700 LINE",
"800 700 LINE",
"800 600 LINE"
);
},
{
closed = 1;
nodes = (
"700 600 LINE",
"700 700 LINE",
"600 700 LINE",
"600 600 LINE"
);
},
{
closed = 1;
nodes = (
"600 600 LINE",
"600 700 LINE",
"500 700 LINE",
"500 600 LINE"
);
},
{
closed = 1;
nodes = (
"500 600 LINE",
"500 700 LINE",
"400 700 LINE",
"400 600 LINE"
);
},
{
closed = 1;
nodes = (
"400 600 LINE",
"400 700 LINE",
"300 700 LINE",
"300 600 LINE"
);
},
{
closed = 1;
nodes = (
"300 600 LINE",
"300 700 LINE",
"200 700 LINE",
"200 600 LINE"
);
},
{
closed = 1;
nodes = (
"800 600 LINE",
"800 700 LINE",
"700 700 LINE",
"700 600 LINE"
);
},
{
closed = 1;
nodes = (
"1000 600 LINE",
"1000 700 LINE",
"900 700 LINE",
"900 600 LINE"
);
},
{
closed = 1;
nodes = (
"1100 600 LINE",
"1100 700 LINE",
"1000 700 LINE",
"1000 600 LINE"
);
},
{
closed = 1;
nodes = (
"1200 600 LINE",
"1200 700 LINE",
"1100 700 LINE",
"1100 600 LINE"
);
}
);
width = 1400;
}
);
note = I;
unicode = 0049;
},
{
glyphname = Iacute;
lastChange = "2021-05-02 14:18:17 +0000";
layers = (
{
anchors = (
{
name = bottom;
position = "{700, 0}";
},
{
name = ogonek;
position = "{1250, 0}";
},
{
name = top;
position = "{700, 1000}";
},
{
name = topleft;
position = "{0, 1000}";
}
);
components = (
{
name = acutecomb;
transform = "{1, 0, 0, 1, 0, 100}";
}
);
layerId = "C06D72A1-06A8-4448-87FE-5EE3A071BB54";
paths = (
{
closed = 1;
nodes = (
"700 0 LINE",
"700 100 LINE",
"600 100 LINE",
"600 0 LINE"
);
},
{
closed = 1;
nodes = (
"300 0 LINE",
"300 100 LINE",
"200 100 LINE",
"200 0 LINE"
);
},
{
closed = 1;
nodes = (
"400 0 LINE",
"400 100 LINE",
"300 100 LINE",
"300 0 LINE"
);
},
{
closed = 1;
nodes = (
"500 0 LINE",
"500 100 LINE",
"400 100 LINE",
"400 0 LINE"
);
},
{
closed = 1;
nodes = (
"600 0 LINE",
"600 100 LINE",
"500 100 LINE",
"500 0 LINE"
);
},
{
closed = 1;
nodes = (
"800 0 LINE",
"800 100 LINE",
"700 100 LINE",
"700 0 LINE"
);
},
{
closed = 1;
nodes = (
"900 0 LINE",
"900 100 LINE",
"800 100 LINE",
"800 0 LINE"
);
},
{
closed = 1;
nodes = (
"1000 0 LINE",
"1000 100 LINE",
"900 100 LINE",
"900 0 LINE"
);
},
{
closed = 1;
nodes = (
"1100 0 LINE",
"1100 100 LINE",
"1000 100 LINE",
"1000 0 LINE"
);
},
{
closed = 1;
nodes = (
"1200 0 LINE",
"1200 100 LINE",
"1100 100 LINE",
"1100 0 LINE"
);
},
{
closed = 1;
nodes = (
"700 100 LINE",
"700 200 LINE",
"600 200 LINE",
"600 100 LINE"
);
},
{
closed = 1;
nodes = (
"700 200 LINE",
"700 300 LINE",
"600 300 LINE",
"600 200 LINE"
);
},
{
closed = 1;
nodes = (
"700 400 LINE",
"700 500 LINE",
"600 500 LINE",
"600 400 LINE"
);
},
{
closed = 1;
nodes = (
"700 300 LINE",
"700 400 LINE",
"600 400 LINE",
"600 300 LINE"
);
},
{
closed = 1;
nodes = (
"900 500 LINE",
"900 600 LINE",
"800 600 LINE",
"800 500 LINE"
);
},
{
closed = 1;
nodes = (
"700 500 LINE",
"700 600 LINE",
"600 600 LINE",
"600 500 LINE"
);
},
{
closed = 1;
nodes = (
"600 500 LINE",
"600 600 LINE",
"500 600 LINE",
"500 500 LINE"
);
},
{
closed = 1;
nodes = (
"500 500 LINE",
"500 600 LINE",
"400 600 LINE",
"400 500 LINE"
);
},
{
closed = 1;
nodes = (
"400 500 LINE",
"400 600 LINE",
"300 600 LINE",
"300 500 LINE"
);
},
{
closed = 1;
nodes = (
"300 500 LINE",
"300 600 LINE",
"200 600 LINE",
"200 500 LINE"
);
},
{
closed = 1;
nodes = (
"800 500 LINE",
"800 600 LINE",
"700 600 LINE",
"700 500 LINE"
);
},
{
closed = 1;
nodes = (
"1000 500 LINE",
"1000 600 LINE",
"900 600 LINE",
"900 500 LINE"
);
},
{
closed = 1;
nodes = (
"1100 500 LINE",
"1100 600 LINE",
"1000 600 LINE",
"1000 500 LINE"
);
},
{
closed = 1;
nodes = (
"1200 500 LINE",
"1200 600 LINE",
"1100 600 LINE",
"1100 500 LINE"
);
}
);
width = 1400;
}
);
unicode = 00CD;
},
{
glyphname = Icircumflex;
lastChange = "2021-05-02 14:18:17 +0000";
layers = (
{
components = (
{
name = circumflexcomb;
transform = "{1, 0, 0, 1, 0, 100}";
}
);
layerId = "C06D72A1-06A8-4448-87FE-5EE3A071BB54";
paths = (
{
closed = 1;
nodes = (
"700 0 LINE",
"700 100 LINE",
"600 100 LINE",
"600 0 LINE"
);
},
{
closed = 1;
nodes = (
"300 0 LINE",
"300 100 LINE",
"200 100 LINE",
"200 0 LINE"
);
},
{
closed = 1;
nodes = (
"400 0 LINE",
"400 100 LINE",
"300 100 LINE",
"300 0 LINE"
);
},
{
closed = 1;
nodes = (
"500 0 LINE",
"500 100 LINE",
"400 100 LINE",
"400 0 LINE"
);
},
{
closed = 1;
nodes = (
"600 0 LINE",
"600 100 LINE",
"500 100 LINE",
"500 0 LINE"
);
},
{
closed = 1;
nodes = (
"800 0 LINE",
"800 100 LINE",
"700 100 LINE",
"700 0 LINE"
);
},
{
closed = 1;
nodes = (
"900 0 LINE",
"900 100 LINE",
"800 100 LINE",
"800 0 LINE"
);
},
{
closed = 1;
nodes = (
"1000 0 LINE",
"1000 100 LINE",
"900 100 LINE",
"900 0 LINE"
);
},
{
closed = 1;
nodes = (
"1100 0 LINE",
"1100 100 LINE",
"1000 100 LINE",
"1000 0 LINE"
);
},
{
closed = 1;
nodes = (
"1200 0 LINE",
"1200 100 LINE",
"1100 100 LINE",
"1100 0 LINE"
);
},
{
closed = 1;
nodes = (
"700 100 LINE",
"700 200 LINE",
"600 200 LINE",
"600 100 LINE"
);
},
{
closed = 1;
nodes = (
"700 200 LINE",
"700 300 LINE",
"600 300 LINE",
"600 200 LINE"
);
},
{
closed = 1;
nodes = (
"700 400 LINE",
"700 500 LINE",
"600 500 LINE",
"600 400 LINE"
);
},
{
closed = 1;
nodes = (
"700 300 LINE",
"700 400 LINE",
"600 400 LINE",
"600 300 LINE"
);
},
{
closed = 1;
nodes = (
"900 500 LINE",
"900 600 LINE",
"800 600 LINE",
"800 500 LINE"
);
},
{
closed = 1;
nodes = (
"700 500 LINE",
"700 600 LINE",
"600 600 LINE",
"600 500 LINE"
);
},
{
closed = 1;
nodes = (
"600 500 LINE",
"600 600 LINE",
"500 600 LINE",
"500 500 LINE"
);
},
{
closed = 1;
nodes = (
"500 500 LINE",
"500 600 LINE",
"400 600 LINE",
"400 500 LINE"
);
},
{
closed = 1;
nodes = (
"400 500 LINE",
"400 600 LINE",
"300 600 LINE",
"300 500 LINE"
);
},
{
closed = 1;
nodes = (
"300 500 LINE",
"300 600 LINE",
"200 600 LINE",
"200 500 LINE"
);
},
{
closed = 1;
nodes = (
"800 500 LINE",
"800 600 LINE",
"700 600 LINE",
"700 500 LINE"
);
},
{
closed = 1;
nodes = (
"1000 500 LINE",
"1000 600 LINE",
"900 600 LINE",
"900 500 LINE"
);
},
{
closed = 1;
nodes = (
"1100 500 LINE",
"1100 600 LINE",
"1000 600 LINE",
"1000 500 LINE"
);
},
{
closed = 1;
nodes = (
"1200 500 LINE",
"1200 600 LINE",
"1100 600 LINE",
"1100 500 LINE"
);
}
);
width = 1400;
}
);
unicode = 00CE;
},
{
glyphname = Idieresis;
lastChange = "2021-05-02 14:18:17 +0000";
layers = (
{
components = (
{
name = dieresiscomb;
transform = "{1, 0, 0, 1, 0, 100}";
}
);
layerId = "C06D72A1-06A8-4448-87FE-5EE3A071BB54";
paths = (
{
closed = 1;
nodes = (
"700 0 LINE",
"700 100 LINE",
"600 100 LINE",
"600 0 LINE"
);
},
{
closed = 1;
nodes = (
"300 0 LINE",
"300 100 LINE",
"200 100 LINE",
"200 0 LINE"
);
},
{
closed = 1;
nodes = (
"400 0 LINE",
"400 100 LINE",
"300 100 LINE",
"300 0 LINE"
);
},
{
closed = 1;
nodes = (
"500 0 LINE",
"500 100 LINE",
"400 100 LINE",
"400 0 LINE"
);
},
{
closed = 1;
nodes = (
"600 0 LINE",
"600 100 LINE",
"500 100 LINE",
"500 0 LINE"
);
},
{
closed = 1;
nodes = (
"800 0 LINE",
"800 100 LINE",
"700 100 LINE",
"700 0 LINE"
);
},
{
closed = 1;
nodes = (
"900 0 LINE",
"900 100 LINE",
"800 100 LINE",
"800 0 LINE"
);
},
{
closed = 1;
nodes = (
"1000 0 LINE",
"1000 100 LINE",
"900 100 LINE",
"900 0 LINE"
);
},
{
closed = 1;
nodes = (
"1100 0 LINE",
"1100 100 LINE",
"1000 100 LINE",
"1000 0 LINE"
);
},
{
closed = 1;
nodes = (
"1200 0 LINE",
"1200 100 LINE",
"1100 100 LINE",
"1100 0 LINE"
);
},
{
closed = 1;
nodes = (
"700 100 LINE",
"700 200 LINE",
"600 200 LINE",
"600 100 LINE"
);
},
{
closed = 1;
nodes = (
"700 200 LINE",
"700 300 LINE",
"600 300 LINE",
"600 200 LINE"
);
},
{
closed = 1;
nodes = (
"700 400 LINE",
"700 500 LINE",
"600 500 LINE",
"600 400 LINE"
);
},
{
closed = 1;
nodes = (
"700 300 LINE",
"700 400 LINE",
"600 400 LINE",
"600 300 LINE"
);
},
{
closed = 1;
nodes = (
"900 500 LINE",
"900 600 LINE",
"800 600 LINE",
"800 500 LINE"
);
},
{
closed = 1;
nodes = (
"700 500 LINE",
"700 600 LINE",
"600 600 LINE",
"600 500 LINE"
);
},
{
closed = 1;
nodes = (
"600 500 LINE",
"600 600 LINE",
"500 600 LINE",
"500 500 LINE"
);
},
{
closed = 1;
nodes = (
"500 500 LINE",
"500 600 LINE",
"400 600 LINE",
"400 500 LINE"
);
},
{
closed = 1;
nodes = (
"400 500 LINE",
"400 600 LINE",
"300 600 LINE",
"300 500 LINE"
);
},
{
closed = 1;
nodes = (
"300 500 LINE",
"300 600 LINE",
"200 600 LINE",
"200 500 LINE"
);
},
{
closed = 1;
nodes = (
"800 500 LINE",
"800 600 LINE",
"700 600 LINE",
"700 500 LINE"
);
},
{
closed = 1;
nodes = (
"1000 500 LINE",
"1000 600 LINE",
"900 600 LINE",
"900 500 LINE"
);
},
{
closed = 1;
nodes = (
"1100 500 LINE",
"1100 600 LINE",
"1000 600 LINE",
"1000 500 LINE"
);
},
{
closed = 1;
nodes = (
"1200 500 LINE",
"1200 600 LINE",
"1100 600 LINE",
"1100 500 LINE"
);
}
);
width = 1400;
}
);
unicode = 00CF;
},
{
glyphname = Igrave;
lastChange = "2021-05-02 14:18:17 +0000";
layers = (
{
components = (
{
name = gravecomb;
transform = "{1, 0, 0, 1, 0, 100}";
}
);
layerId = "C06D72A1-06A8-4448-87FE-5EE3A071BB54";
paths = (
{
closed = 1;
nodes = (
"700 0 LINE",
"700 100 LINE",
"600 100 LINE",
"600 0 LINE"
);
},
{
closed = 1;
nodes = (
"300 0 LINE",
"300 100 LINE",
"200 100 LINE",
"200 0 LINE"
);
},
{
closed = 1;
nodes = (
"400 0 LINE",
"400 100 LINE",
"300 100 LINE",
"300 0 LINE"
);
},
{
closed = 1;
nodes = (
"500 0 LINE",
"500 100 LINE",
"400 100 LINE",
"400 0 LINE"
);
},
{
closed = 1;
nodes = (
"600 0 LINE",
"600 100 LINE",
"500 100 LINE",
"500 0 LINE"
);
},
{
closed = 1;
nodes = (
"800 0 LINE",
"800 100 LINE",
"700 100 LINE",
"700 0 LINE"
);
},
{
closed = 1;
nodes = (
"900 0 LINE",
"900 100 LINE",
"800 100 LINE",
"800 0 LINE"
);
},
{
closed = 1;
nodes = (
"1000 0 LINE",
"1000 100 LINE",
"900 100 LINE",
"900 0 LINE"
);
},
{
closed = 1;
nodes = (
"1100 0 LINE",
"1100 100 LINE",
"1000 100 LINE",
"1000 0 LINE"
);
},
{
closed = 1;
nodes = (
"1200 0 LINE",
"1200 100 LINE",
"1100 100 LINE",
"1100 0 LINE"
);
},
{
closed = 1;
nodes = (
"700 100 LINE",
"700 200 LINE",
"600 200 LINE",
"600 100 LINE"
);
},
{
closed = 1;
nodes = (
"700 200 LINE",
"700 300 LINE",
"600 300 LINE",
"600 200 LINE"
);
},
{
closed = 1;
nodes = (
"700 400 LINE",
"700 500 LINE",
"600 500 LINE",
"600 400 LINE"
);
},
{
closed = 1;
nodes = (
"700 300 LINE",
"700 400 LINE",
"600 400 LINE",
"600 300 LINE"
);
},
{
closed = 1;
nodes = (
"900 500 LINE",
"900 600 LINE",
"800 600 LINE",
"800 500 LINE"
);
},
{
closed = 1;
nodes = (
"700 500 LINE",
"700 600 LINE",
"600 600 LINE",
"600 500 LINE"
);
},
{
closed = 1;
nodes = (
"600 500 LINE",
"600 600 LINE",
"500 600 LINE",
"500 500 LINE"
);
},
{
closed = 1;
nodes = (
"500 500 LINE",
"500 600 LINE",
"400 600 LINE",
"400 500 LINE"
);
},
{
closed = 1;
nodes = (
"400 500 LINE",
"400 600 LINE",
"300 600 LINE",
"300 500 LINE"
);
},
{
closed = 1;
nodes = (
"300 500 LINE",
"300 600 LINE",
"200 600 LINE",
"200 500 LINE"
);
},
{
closed = 1;
nodes = (
"800 500 LINE",
"800 600 LINE",
"700 600 LINE",
"700 500 LINE"
);
},
{
closed = 1;
nodes = (
"1000 500 LINE",
"1000 600 LINE",
"900 600 LINE",
"900 500 LINE"
);
},
{
closed = 1;
nodes = (
"1100 500 LINE",
"1100 600 LINE",
"1000 600 LINE",
"1000 500 LINE"
);
},
{
closed = 1;
nodes = (
"1200 500 LINE",
"1200 600 LINE",
"1100 600 LINE",
"1100 500 LINE"
);
}
);
width = 1400;
}
);
unicode = 00CC;
},
{
glyphname = J;
lastChange = "2021-05-02 14:18:17 +0000";
layers = (
{
layerId = "C06D72A1-06A8-4448-87FE-5EE3A071BB54";
paths = (
{
closed = 1;
nodes = (
"1200 100 LINE",
"1200 200 LINE",
"1100 200 LINE",
"1100 100 LINE"
);
},
{
closed = 1;
nodes = (
"1200 300 LINE",
"1200 400 LINE",
"1100 400 LINE",
"1100 300 LINE"
);
},
{
closed = 1;
nodes = (
"1200 200 LINE",
"1200 300 LINE",
"1100 300 LINE",
"1100 200 LINE"
);
},
{
closed = 1;
nodes = (
"1200 400 LINE",
"1200 500 LINE",
"1100 500 LINE",
"1100 400 LINE"
);
},
{
closed = 1;
nodes = (
"1200 500 LINE",
"1200 600 LINE",
"1100 600 LINE",
"1100 500 LINE"
);
},
{
closed = 1;
nodes = (
"1200 600 LINE",
"1200 700 LINE",
"1100 700 LINE",
"1100 600 LINE"
);
},
{
closed = 1;
nodes = (
"1100 600 LINE",
"1100 700 LINE",
"1000 700 LINE",
"1000 600 LINE"
);
},
{
closed = 1;
nodes = (
"1000 600 LINE",
"1000 700 LINE",
"900 700 LINE",
"900 600 LINE"
);
},
{
closed = 1;
nodes = (
"900 600 LINE",
"900 700 LINE",
"800 700 LINE",
"800 600 LINE"
);
},
{
closed = 1;
nodes = (
"800 600 LINE",
"800 700 LINE",
"700 700 LINE",
"700 600 LINE"
);
},
{
closed = 1;
nodes = (
"700 600 LINE",
"700 700 LINE",
"600 700 LINE",
"600 600 LINE"
);
},
{
closed = 1;
nodes = (
"1100 0 LINE",
"1100 100 LINE",
"1000 100 LINE",
"1000 0 LINE"
);
},
{
closed = 1;
nodes = (
"800 0 LINE",
"800 100 LINE",
"700 100 LINE",
"700 0 LINE"
);
},
{
closed = 1;
nodes = (
"1000 0 LINE",
"1000 100 LINE",
"900 100 LINE",
"900 0 LINE"
);
},
{
closed = 1;
nodes = (
"900 0 LINE",
"900 100 LINE",
"800 100 LINE",
"800 0 LINE"
);
},
{
closed = 1;
nodes = (
"700 0 LINE",
"700 100 LINE",
"600 100 LINE",
"600 0 LINE"
);
},
{
closed = 1;
nodes = (
"600 0 LINE",
"600 100 LINE",
"500 100 LINE",
"500 0 LINE"
);
},
{
closed = 1;
nodes = (
"500 0 LINE",
"500 100 LINE",
"400 100 LINE",
"400 0 LINE"
);
},
{
closed = 1;
nodes = (
"400 0 LINE",
"400 100 LINE",
"300 100 LINE",
"300 0 LINE"
);
},
{
closed = 1;
nodes = (
"300 100 LINE",
"300 200 LINE",
"200 200 LINE",
"200 100 LINE"
);
},
{
closed = 1;
nodes = (
"300 600 LINE",
"300 700 LINE",
"200 700 LINE",
"200 600 LINE"
);
},
{
closed = 1;
nodes = (
"400 600 LINE",
"400 700 LINE",
"300 700 LINE",
"300 600 LINE"
);
},
{
closed = 1;
nodes = (
"500 600 LINE",
"500 700 LINE",
"400 700 LINE",
"400 600 LINE"
);
},
{
closed = 1;
nodes = (
"600 600 LINE",
"600 700 LINE",
"500 700 LINE",
"500 600 LINE"
);
}
);
width = 1400;
}
);
note = J;
unicode = 004A;
},
{
glyphname = K;
lastChange = "2021-05-02 14:18:17 +0000";
layers = (
{
layerId = "C06D72A1-06A8-4448-87FE-5EE3A071BB54";
paths = (
{
closed = 1;
nodes = (
"300 0 LINE",
"300 100 LINE",
"200 100 LINE",
"200 0 LINE"
);
},
{
closed = 1;
nodes = (
"300 200 LINE",
"300 300 LINE",
"200 300 LINE",
"200 200 LINE"
);
},
{
closed = 1;
nodes = (
"300 100 LINE",
"300 200 LINE",
"200 200 LINE",
"200 100 LINE"
);
},
{
closed = 1;
nodes = (
"300 300 LINE",
"300 400 LINE",
"200 400 LINE",
"200 300 LINE"
);
},
{
closed = 1;
nodes = (
"300 400 LINE",
"300 500 LINE",
"200 500 LINE",
"200 400 LINE"
);
},
{
closed = 1;
nodes = (
"300 500 LINE",
"300 600 LINE",
"200 600 LINE",
"200 500 LINE"
);
},
{
closed = 1;
nodes = (
"300 600 LINE",
"300 700 LINE",
"200 700 LINE",
"200 600 LINE"
);
},
{
closed = 1;
nodes = (
"1200 0 LINE",
"1200 100 LINE",
"1100 100 LINE",
"1100 0 LINE"
);
},
{
closed = 1;
nodes = (
"1200 600 LINE",
"1200 700 LINE",
"1100 700 LINE",
"1100 600 LINE"
);
},
{
closed = 1;
nodes = (
"1100 600 LINE",
"1100 700 LINE",
"1000 700 LINE",
"1000 600 LINE"
);
},
{
closed = 1;
nodes = (
"1000 500 LINE",
"1000 600 LINE",
"900 600 LINE",
"900 500 LINE"
);
},
{
closed = 1;
nodes = (
"900 500 LINE",
"900 600 LINE",
"800 600 LINE",
"800 500 LINE"
);
},
{
closed = 1;
nodes = (
"1100 0 LINE",
"1100 100 LINE",
"1000 100 LINE",
"1000 0 LINE"
);
},
{
closed = 1;
nodes = (
"1000 100 LINE",
"1000 200 LINE",
"900 200 LINE",
"900 100 LINE"
);
},
{
closed = 1;
nodes = (
"900 100 LINE",
"900 200 LINE",
"800 200 LINE",
"800 100 LINE"
);
},
{
closed = 1;
nodes = (
"800 400 LINE",
"800 500 LINE",
"700 500 LINE",
"700 400 LINE"
);
},
{
closed = 1;
nodes = (
"800 200 LINE",
"800 300 LINE",
"700 300 LINE",
"700 200 LINE"
);
},
{
closed = 1;
nodes = (
"700 200 LINE",
"700 300 LINE",
"600 300 LINE",
"600 200 LINE"
);
},
{
closed = 1;
nodes = (
"700 400 LINE",
"700 500 LINE",
"600 500 LINE",
"600 400 LINE"
);
},
{
closed = 1;
nodes = (
"600 300 LINE",
"600 400 LINE",
"500 400 LINE",
"500 300 LINE"
);
},
{
closed = 1;
nodes = (
"500 300 LINE",
"500 400 LINE",
"400 400 LINE",
"400 300 LINE"
);
},
{
closed = 1;
nodes = (
"400 300 LINE",
"400 400 LINE",
"300 400 LINE",
"300 300 LINE"
);
}
);
width = 1400;
}
);
note = K;
unicode = 004B;
},
{
glyphname = L;
lastChange = "2021-05-02 14:18:17 +0000";
layers = (
{
layerId = "C06D72A1-06A8-4448-87FE-5EE3A071BB54";
paths = (
{
closed = 1;
nodes = (
"300 0 LINE",
"300 100 LINE",
"200 100 LINE",
"200 0 LINE"
);
},
{
closed = 1;
nodes = (
"300 100 LINE",
"300 200 LINE",
"200 200 LINE",
"200 100 LINE"
);
},
{
closed = 1;
nodes = (
"300 200 LINE",
"300 300 LINE",
"200 300 LINE",
"200 200 LINE"
);
},
{
closed = 1;
nodes = (
"300 300 LINE",
"300 400 LINE",
"200 400 LINE",
"200 300 LINE"
);
},
{
closed = 1;
nodes = (
"300 500 LINE",
"300 600 LINE",
"200 600 LINE",
"200 500 LINE"
);
},
{
closed = 1;
nodes = (
"300 400 LINE",
"300 500 LINE",
"200 500 LINE",
"200 400 LINE"
);
},
{
closed = 1;
nodes = (
"300 600 LINE",
"300 700 LINE",
"200 700 LINE",
"200 600 LINE"
);
},
{
closed = 1;
nodes = (
"400 0 LINE",
"400 100 LINE",
"300 100 LINE",
"300 0 LINE"
);
},
{
closed = 1;
nodes = (
"500 0 LINE",
"500 100 LINE",
"400 100 LINE",
"400 0 LINE"
);
},
{
closed = 1;
nodes = (
"600 0 LINE",
"600 100 LINE",
"500 100 LINE",
"500 0 LINE"
);
},
{
closed = 1;
nodes = (
"700 0 LINE",
"700 100 LINE",
"600 100 LINE",
"600 0 LINE"
);
},
{
closed = 1;
nodes = (
"800 0 LINE",
"800 100 LINE",
"700 100 LINE",
"700 0 LINE"
);
},
{
closed = 1;
nodes = (
"1200 0 LINE",
"1200 100 LINE",
"1100 100 LINE",
"1100 0 LINE"
);
},
{
closed = 1;
nodes = (
"1100 0 LINE",
"1100 100 LINE",
"1000 100 LINE",
"1000 0 LINE"
);
},
{
closed = 1;
nodes = (
"1000 0 LINE",
"1000 100 LINE",
"900 100 LINE",
"900 0 LINE"
);
},
{
closed = 1;
nodes = (
"900 0 LINE",
"900 100 LINE",
"800 100 LINE",
"800 0 LINE"
);
}
);
width = 1400;
}
);
note = L;
unicode = 004C;
},
{
glyphname = M;
lastChange = "2021-05-02 14:18:17 +0000";
layers = (
{
layerId = "C06D72A1-06A8-4448-87FE-5EE3A071BB54";
paths = (
{
closed = 1;
nodes = (
"300 0 LINE",
"300 100 LINE",
"200 100 LINE",
"200 0 LINE"
);
},
{
closed = 1;
nodes = (
"300 100 LINE",
"300 200 LINE",
"200 200 LINE",
"200 100 LINE"
);
},
{
closed = 1;
nodes = (
"300 200 LINE",
"300 300 LINE",
"200 300 LINE",
"200 200 LINE"
);
},
{
closed = 1;
nodes = (
"300 400 LINE",
"300 500 LINE",
"200 500 LINE",
"200 400 LINE"
);
},
{
closed = 1;
nodes = (
"300 300 LINE",
"300 400 LINE",
"200 400 LINE",
"200 300 LINE"
);
},
{
closed = 1;
nodes = (
"300 500 LINE",
"300 600 LINE",
"200 600 LINE",
"200 500 LINE"
);
},
{
closed = 1;
nodes = (
"300 600 LINE",
"300 700 LINE",
"200 700 LINE",
"200 600 LINE"
);
},
{
closed = 1;
nodes = (
"1200 600 LINE",
"1200 700 LINE",
"1100 700 LINE",
"1100 600 LINE"
);
},
{
closed = 1;
nodes = (
"1200 400 LINE",
"1200 500 LINE",
"1100 500 LINE",
"1100 400 LINE"
);
},
{
closed = 1;
nodes = (
"1200 500 LINE",
"1200 600 LINE",
"1100 600 LINE",
"1100 500 LINE"
);
},
{
closed = 1;
nodes = (
"1200 100 LINE",
"1200 200 LINE",
"1100 200 LINE",
"1100 100 LINE"
);
},
{
closed = 1;
nodes = (
"1200 200 LINE",
"1200 300 LINE",
"1100 300 LINE",
"1100 200 LINE"
);
},
{
closed = 1;
nodes = (
"1200 300 LINE",
"1200 400 LINE",
"1100 400 LINE",
"1100 300 LINE"
);
},
{
closed = 1;
nodes = (
"1200 0 LINE",
"1200 100 LINE",
"1100 100 LINE",
"1100 0 LINE"
);
},
{
closed = 1;
nodes = (
"400 500 LINE",
"400 600 LINE",
"300 600 LINE",
"300 500 LINE"
);
},
{
closed = 1;
nodes = (
"1100 500 LINE",
"1100 600 LINE",
"1000 600 LINE",
"1000 500 LINE"
);
},
{
closed = 1;
nodes = (
"500 400 LINE",
"500 500 LINE",
"400 500 LINE",
"400 400 LINE"
);
},
{
closed = 1;
nodes = (
"600 300 LINE",
"600 400 LINE",
"500 400 LINE",
"500 300 LINE"
);
},
{
closed = 1;
nodes = (
"900 300 LINE",
"900 400 LINE",
"800 400 LINE",
"800 300 LINE"
);
},
{
closed = 1;
nodes = (
"800 200 LINE",
"800 300 LINE",
"700 300 LINE",
"700 200 LINE"
);
},
{
closed = 1;
nodes = (
"700 200 LINE",
"700 300 LINE",
"600 300 LINE",
"600 200 LINE"
);
},
{
closed = 1;
nodes = (
"1000 400 LINE",
"1000 500 LINE",
"900 500 LINE",
"900 400 LINE"
);
}
);
width = 1400;
}
);
note = M;
unicode = 004D;
},
{
glyphname = N;
lastChange = "2021-05-02 14:18:17 +0000";
layers = (
{
layerId = "C06D72A1-06A8-4448-87FE-5EE3A071BB54";
paths = (
{
closed = 1;
nodes = (
"300 0 LINE",
"300 100 LINE",
"200 100 LINE",
"200 0 LINE"
);
},
{
closed = 1;
nodes = (
"300 100 LINE",
"300 200 LINE",
"200 200 LINE",
"200 100 LINE"
);
},
{
closed = 1;
nodes = (
"300 300 LINE",
"300 400 LINE",
"200 400 LINE",
"200 300 LINE"
);
},
{
closed = 1;
nodes = (
"300 200 LINE",
"300 300 LINE",
"200 300 LINE",
"200 200 LINE"
);
},
{
closed = 1;
nodes = (
"300 400 LINE",
"300 500 LINE",
"200 500 LINE",
"200 400 LINE"
);
},
{
closed = 1;
nodes = (
"300 600 LINE",
"300 700 LINE",
"200 700 LINE",
"200 600 LINE"
);
},
{
closed = 1;
nodes = (
"300 500 LINE",
"300 600 LINE",
"200 600 LINE",
"200 500 LINE"
);
},
{
closed = 1;
nodes = (
"1200 600 LINE",
"1200 700 LINE",
"1100 700 LINE",
"1100 600 LINE"
);
},
{
closed = 1;
nodes = (
"1200 500 LINE",
"1200 600 LINE",
"1100 600 LINE",
"1100 500 LINE"
);
},
{
closed = 1;
nodes = (
"1200 400 LINE",
"1200 500 LINE",
"1100 500 LINE",
"1100 400 LINE"
);
},
{
closed = 1;
nodes = (
"1200 300 LINE",
"1200 400 LINE",
"1100 400 LINE",
"1100 300 LINE"
);
},
{
closed = 1;
nodes = (
"1200 200 LINE",
"1200 300 LINE",
"1100 300 LINE",
"1100 200 LINE"
);
},
{
closed = 1;
nodes = (
"1200 0 LINE",
"1200 100 LINE",
"1100 100 LINE",
"1100 0 LINE"
);
},
{
closed = 1;
nodes = (
"1200 100 LINE",
"1200 200 LINE",
"1100 200 LINE",
"1100 100 LINE"
);
},
{
closed = 1;
nodes = (
"500 400 LINE",
"500 500 LINE",
"400 500 LINE",
"400 400 LINE"
);
},
{
closed = 1;
nodes = (
"400 500 LINE",
"400 600 LINE",
"300 600 LINE",
"300 500 LINE"
);
},
{
closed = 1;
nodes = (
"700 300 LINE",
"700 400 LINE",
"600 400 LINE",
"600 300 LINE"
);
},
{
closed = 1;
nodes = (
"600 400 LINE",
"600 500 LINE",
"500 500 LINE",
"500 400 LINE"
);
},
{
closed = 1;
nodes = (
"800 300 LINE",
"800 400 LINE",
"700 400 LINE",
"700 300 LINE"
);
},
{
closed = 1;
nodes = (
"900 200 LINE",
"900 300 LINE",
"800 300 LINE",
"800 200 LINE"
);
},
{
closed = 1;
nodes = (
"1000 200 LINE",
"1000 300 LINE",
"900 300 LINE",
"900 200 LINE"
);
},
{
closed = 1;
nodes = (
"1100 100 LINE",
"1100 200 LINE",
"1000 200 LINE",
"1000 100 LINE"
);
},
{
closed = 1;
nodes = (
"400 500 LINE",
"400 600 LINE",
"300 600 LINE",
"300 500 LINE"
);
}
);
width = 1400;
}
);
note = N;
unicode = 004E;
},
{
glyphname = O;
lastChange = "2021-05-02 14:18:17 +0000";
layers = (
{
anchors = (
{
name = bottom;
position = "{700, 0}";
},
{
name = center;
position = "{700, 500}";
},
{
name = ogonek;
position = "{1250, 0}";
},
{
name = top;
position = "{700, 1000}";
},
{
name = topleft;
position = "{0, 1000}";
},
{
name = topright;
position = "{1400, 1000}";
}
);
layerId = "C06D72A1-06A8-4448-87FE-5EE3A071BB54";
paths = (
{
closed = 1;
nodes = (
"400 0 LINE",
"400 100 LINE",
"300 100 LINE",
"300 0 LINE"
);
},
{
closed = 1;
nodes = (
"300 100 LINE",
"300 200 LINE",
"200 200 LINE",
"200 100 LINE"
);
},
{
closed = 1;
nodes = (
"1200 100 LINE",
"1200 200 LINE",
"1100 200 LINE",
"1100 100 LINE"
);
},
{
closed = 1;
nodes = (
"1100 0 LINE",
"1100 100 LINE",
"1000 100 LINE",
"1000 0 LINE"
);
},
{
closed = 1;
nodes = (
"1000 0 LINE",
"1000 100 LINE",
"900 100 LINE",
"900 0 LINE"
);
},
{
closed = 1;
nodes = (
"900 0 LINE",
"900 100 LINE",
"800 100 LINE",
"800 0 LINE"
);
},
{
closed = 1;
nodes = (
"700 0 LINE",
"700 100 LINE",
"600 100 LINE",
"600 0 LINE"
);
},
{
closed = 1;
nodes = (
"500 0 LINE",
"500 100 LINE",
"400 100 LINE",
"400 0 LINE"
);
},
{
closed = 1;
nodes = (
"600 0 LINE",
"600 100 LINE",
"500 100 LINE",
"500 0 LINE"
);
},
{
closed = 1;
nodes = (
"800 0 LINE",
"800 100 LINE",
"700 100 LINE",
"700 0 LINE"
);
},
{
closed = 1;
nodes = (
"1200 200 LINE",
"1200 300 LINE",
"1100 300 LINE",
"1100 200 LINE"
);
},
{
closed = 1;
nodes = (
"1200 300 LINE",
"1200 400 LINE",
"1100 400 LINE",
"1100 300 LINE"
);
},
{
closed = 1;
nodes = (
"1200 400 LINE",
"1200 500 LINE",
"1100 500 LINE",
"1100 400 LINE"
);
},
{
closed = 1;
nodes = (
"1200 500 LINE",
"1200 600 LINE",
"1100 600 LINE",
"1100 500 LINE"
);
},
{
closed = 1;
nodes = (
"1100 600 LINE",
"1100 700 LINE",
"1000 700 LINE",
"1000 600 LINE"
);
},
{
closed = 1;
nodes = (
"300 400 LINE",
"300 500 LINE",
"200 500 LINE",
"200 400 LINE"
);
},
{
closed = 1;
nodes = (
"300 200 LINE",
"300 300 LINE",
"200 300 LINE",
"200 200 LINE"
);
},
{
closed = 1;
nodes = (
"300 300 LINE",
"300 400 LINE",
"200 400 LINE",
"200 300 LINE"
);
},
{
closed = 1;
nodes = (
"300 500 LINE",
"300 600 LINE",
"200 600 LINE",
"200 500 LINE"
);
},
{
closed = 1;
nodes = (
"400 600 LINE",
"400 700 LINE",
"300 700 LINE",
"300 600 LINE"
);
},
{
closed = 1;
nodes = (
"500 600 LINE",
"500 700 LINE",
"400 700 LINE",
"400 600 LINE"
);
},
{
closed = 1;
nodes = (
"600 600 LINE",
"600 700 LINE",
"500 700 LINE",
"500 600 LINE"
);
},
{
closed = 1;
nodes = (
"800 600 LINE",
"800 700 LINE",
"700 700 LINE",
"700 600 LINE"
);
},
{
closed = 1;
nodes = (
"700 600 LINE",
"700 700 LINE",
"600 700 LINE",
"600 600 LINE"
);
},
{
closed = 1;
nodes = (
"900 600 LINE",
"900 700 LINE",
"800 700 LINE",
"800 600 LINE"
);
},
{
closed = 1;
nodes = (
"1000 600 LINE",
"1000 700 LINE",
"900 700 LINE",
"900 600 LINE"
);
}
);
width = 1400;
}
);
note = O;
unicode = 004F;
},
{
glyphname = Oacute;
lastChange = "2021-05-02 14:18:17 +0000";
layers = (
{
anchors = (
{
name = bottom;
position = "{700, 0}";
},
{
name = center;
position = "{700, 500}";
},
{
name = ogonek;
position = "{1250, 0}";
},
{
name = top;
position = "{700, 1000}";
},
{
name = topleft;
position = "{0, 1000}";
},
{
name = topright;
position = "{1400, 1000}";
}
);
components = (
{
name = acutecomb;
transform = "{1, 0, 0, 1, 0, 100}";
}
);
layerId = "C06D72A1-06A8-4448-87FE-5EE3A071BB54";
paths = (
{
closed = 1;
nodes = (
"400 0 LINE",
"400 100 LINE",
"300 100 LINE",
"300 0 LINE"
);
},
{
closed = 1;
nodes = (
"300 100 LINE",
"300 200 LINE",
"200 200 LINE",
"200 100 LINE"
);
},
{
closed = 1;
nodes = (
"1200 100 LINE",
"1200 200 LINE",
"1100 200 LINE",
"1100 100 LINE"
);
},
{
closed = 1;
nodes = (
"1100 0 LINE",
"1100 100 LINE",
"1000 100 LINE",
"1000 0 LINE"
);
},
{
closed = 1;
nodes = (
"1000 0 LINE",
"1000 100 LINE",
"900 100 LINE",
"900 0 LINE"
);
},
{
closed = 1;
nodes = (
"900 0 LINE",
"900 100 LINE",
"800 100 LINE",
"800 0 LINE"
);
},
{
closed = 1;
nodes = (
"700 0 LINE",
"700 100 LINE",
"600 100 LINE",
"600 0 LINE"
);
},
{
closed = 1;
nodes = (
"500 0 LINE",
"500 100 LINE",
"400 100 LINE",
"400 0 LINE"
);
},
{
closed = 1;
nodes = (
"600 0 LINE",
"600 100 LINE",
"500 100 LINE",
"500 0 LINE"
);
},
{
closed = 1;
nodes = (
"800 0 LINE",
"800 100 LINE",
"700 100 LINE",
"700 0 LINE"
);
},
{
closed = 1;
nodes = (
"1200 200 LINE",
"1200 300 LINE",
"1100 300 LINE",
"1100 200 LINE"
);
},
{
closed = 1;
nodes = (
"1200 300 LINE",
"1200 400 LINE",
"1100 400 LINE",
"1100 300 LINE"
);
},
{
closed = 1;
nodes = (
"1200 400 LINE",
"1200 500 LINE",
"1100 500 LINE",
"1100 400 LINE"
);
},
{
closed = 1;
nodes = (
"1100 500 LINE",
"1100 600 LINE",
"1000 600 LINE",
"1000 500 LINE"
);
},
{
closed = 1;
nodes = (
"300 400 LINE",
"300 500 LINE",
"200 500 LINE",
"200 400 LINE"
);
},
{
closed = 1;
nodes = (
"300 200 LINE",
"300 300 LINE",
"200 300 LINE",
"200 200 LINE"
);
},
{
closed = 1;
nodes = (
"300 300 LINE",
"300 400 LINE",
"200 400 LINE",
"200 300 LINE"
);
},
{
closed = 1;
nodes = (
"400 500 LINE",
"400 600 LINE",
"300 600 LINE",
"300 500 LINE"
);
},
{
closed = 1;
nodes = (
"500 500 LINE",
"500 600 LINE",
"400 600 LINE",
"400 500 LINE"
);
},
{
closed = 1;
nodes = (
"600 500 LINE",
"600 600 LINE",
"500 600 LINE",
"500 500 LINE"
);
},
{
closed = 1;
nodes = (
"800 500 LINE",
"800 600 LINE",
"700 600 LINE",
"700 500 LINE"
);
},
{
closed = 1;
nodes = (
"700 500 LINE",
"700 600 LINE",
"600 600 LINE",
"600 500 LINE"
);
},
{
closed = 1;
nodes = (
"900 500 LINE",
"900 600 LINE",
"800 600 LINE",
"800 500 LINE"
);
},
{
closed = 1;
nodes = (
"1000 500 LINE",
"1000 600 LINE",
"900 600 LINE",
"900 500 LINE"
);
}
);
width = 1400;
}
);
unicode = 00D3;
},
{
glyphname = Ocircumflex;
lastChange = "2021-05-02 14:18:17 +0000";
layers = (
{
components = (
{
name = circumflexcomb;
transform = "{1, 0, 0, 1, 0, 100}";
}
);
layerId = "C06D72A1-06A8-4448-87FE-5EE3A071BB54";
paths = (
{
closed = 1;
nodes = (
"400 0 LINE",
"400 100 LINE",
"300 100 LINE",
"300 0 LINE"
);
},
{
closed = 1;
nodes = (
"300 100 LINE",
"300 200 LINE",
"200 200 LINE",
"200 100 LINE"
);
},
{
closed = 1;
nodes = (
"1200 100 LINE",
"1200 200 LINE",
"1100 200 LINE",
"1100 100 LINE"
);
},
{
closed = 1;
nodes = (
"1100 0 LINE",
"1100 100 LINE",
"1000 100 LINE",
"1000 0 LINE"
);
},
{
closed = 1;
nodes = (
"1000 0 LINE",
"1000 100 LINE",
"900 100 LINE",
"900 0 LINE"
);
},
{
closed = 1;
nodes = (
"900 0 LINE",
"900 100 LINE",
"800 100 LINE",
"800 0 LINE"
);
},
{
closed = 1;
nodes = (
"700 0 LINE",
"700 100 LINE",
"600 100 LINE",
"600 0 LINE"
);
},
{
closed = 1;
nodes = (
"500 0 LINE",
"500 100 LINE",
"400 100 LINE",
"400 0 LINE"
);
},
{
closed = 1;
nodes = (
"600 0 LINE",
"600 100 LINE",
"500 100 LINE",
"500 0 LINE"
);
},
{
closed = 1;
nodes = (
"800 0 LINE",
"800 100 LINE",
"700 100 LINE",
"700 0 LINE"
);
},
{
closed = 1;
nodes = (
"1200 200 LINE",
"1200 300 LINE",
"1100 300 LINE",
"1100 200 LINE"
);
},
{
closed = 1;
nodes = (
"1200 300 LINE",
"1200 400 LINE",
"1100 400 LINE",
"1100 300 LINE"
);
},
{
closed = 1;
nodes = (
"1200 400 LINE",
"1200 500 LINE",
"1100 500 LINE",
"1100 400 LINE"
);
},
{
closed = 1;
nodes = (
"1100 500 LINE",
"1100 600 LINE",
"1000 600 LINE",
"1000 500 LINE"
);
},
{
closed = 1;
nodes = (
"300 400 LINE",
"300 500 LINE",
"200 500 LINE",
"200 400 LINE"
);
},
{
closed = 1;
nodes = (
"300 200 LINE",
"300 300 LINE",
"200 300 LINE",
"200 200 LINE"
);
},
{
closed = 1;
nodes = (
"300 300 LINE",
"300 400 LINE",
"200 400 LINE",
"200 300 LINE"
);
},
{
closed = 1;
nodes = (
"400 500 LINE",
"400 600 LINE",
"300 600 LINE",
"300 500 LINE"
);
},
{
closed = 1;
nodes = (
"500 500 LINE",
"500 600 LINE",
"400 600 LINE",
"400 500 LINE"
);
},
{
closed = 1;
nodes = (
"600 500 LINE",
"600 600 LINE",
"500 600 LINE",
"500 500 LINE"
);
},
{
closed = 1;
nodes = (
"800 500 LINE",
"800 600 LINE",
"700 600 LINE",
"700 500 LINE"
);
},
{
closed = 1;
nodes = (
"700 500 LINE",
"700 600 LINE",
"600 600 LINE",
"600 500 LINE"
);
},
{
closed = 1;
nodes = (
"900 500 LINE",
"900 600 LINE",
"800 600 LINE",
"800 500 LINE"
);
},
{
closed = 1;
nodes = (
"1000 500 LINE",
"1000 600 LINE",
"900 600 LINE",
"900 500 LINE"
);
}
);
width = 1400;
}
);
unicode = 00D4;
},
{
glyphname = Odieresis;
lastChange = "2021-05-02 14:18:17 +0000";
layers = (
{
components = (
{
name = dieresiscomb;
transform = "{1, 0, 0, 1, 0, 100}";
}
);
layerId = "C06D72A1-06A8-4448-87FE-5EE3A071BB54";
paths = (
{
closed = 1;
nodes = (
"400 0 LINE",
"400 100 LINE",
"300 100 LINE",
"300 0 LINE"
);
},
{
closed = 1;
nodes = (
"300 100 LINE",
"300 200 LINE",
"200 200 LINE",
"200 100 LINE"
);
},
{
closed = 1;
nodes = (
"1200 100 LINE",
"1200 200 LINE",
"1100 200 LINE",
"1100 100 LINE"
);
},
{
closed = 1;
nodes = (
"1100 0 LINE",
"1100 100 LINE",
"1000 100 LINE",
"1000 0 LINE"
);
},
{
closed = 1;
nodes = (
"1000 0 LINE",
"1000 100 LINE",
"900 100 LINE",
"900 0 LINE"
);
},
{
closed = 1;
nodes = (
"900 0 LINE",
"900 100 LINE",
"800 100 LINE",
"800 0 LINE"
);
},
{
closed = 1;
nodes = (
"700 0 LINE",
"700 100 LINE",
"600 100 LINE",
"600 0 LINE"
);
},
{
closed = 1;
nodes = (
"500 0 LINE",
"500 100 LINE",
"400 100 LINE",
"400 0 LINE"
);
},
{
closed = 1;
nodes = (
"600 0 LINE",
"600 100 LINE",
"500 100 LINE",
"500 0 LINE"
);
},
{
closed = 1;
nodes = (
"800 0 LINE",
"800 100 LINE",
"700 100 LINE",
"700 0 LINE"
);
},
{
closed = 1;
nodes = (
"1200 200 LINE",
"1200 300 LINE",
"1100 300 LINE",
"1100 200 LINE"
);
},
{
closed = 1;
nodes = (
"1200 300 LINE",
"1200 400 LINE",
"1100 400 LINE",
"1100 300 LINE"
);
},
{
closed = 1;
nodes = (
"1200 400 LINE",
"1200 500 LINE",
"1100 500 LINE",
"1100 400 LINE"
);
},
{
closed = 1;
nodes = (
"1100 500 LINE",
"1100 600 LINE",
"1000 600 LINE",
"1000 500 LINE"
);
},
{
closed = 1;
nodes = (
"300 400 LINE",
"300 500 LINE",
"200 500 LINE",
"200 400 LINE"
);
},
{
closed = 1;
nodes = (
"300 200 LINE",
"300 300 LINE",
"200 300 LINE",
"200 200 LINE"
);
},
{
closed = 1;
nodes = (
"300 300 LINE",
"300 400 LINE",
"200 400 LINE",
"200 300 LINE"
);
},
{
closed = 1;
nodes = (
"400 500 LINE",
"400 600 LINE",
"300 600 LINE",
"300 500 LINE"
);
},
{
closed = 1;
nodes = (
"500 500 LINE",
"500 600 LINE",
"400 600 LINE",
"400 500 LINE"
);
},
{
closed = 1;
nodes = (
"600 500 LINE",
"600 600 LINE",
"500 600 LINE",
"500 500 LINE"
);
},
{
closed = 1;
nodes = (
"800 500 LINE",
"800 600 LINE",
"700 600 LINE",
"700 500 LINE"
);
},
{
closed = 1;
nodes = (
"700 500 LINE",
"700 600 LINE",
"600 600 LINE",
"600 500 LINE"
);
},
{
closed = 1;
nodes = (
"900 500 LINE",
"900 600 LINE",
"800 600 LINE",
"800 500 LINE"
);
},
{
closed = 1;
nodes = (
"1000 500 LINE",
"1000 600 LINE",
"900 600 LINE",
"900 500 LINE"
);
}
);
width = 1400;
}
);
unicode = 00D6;
},
{
glyphname = Ograve;
lastChange = "2021-05-02 14:18:17 +0000";
layers = (
{
components = (
{
name = gravecomb;
transform = "{1, 0, 0, 1, 0, 100}";
}
);
layerId = "C06D72A1-06A8-4448-87FE-5EE3A071BB54";
paths = (
{
closed = 1;
nodes = (
"400 0 LINE",
"400 100 LINE",
"300 100 LINE",
"300 0 LINE"
);
},
{
closed = 1;
nodes = (
"300 100 LINE",
"300 200 LINE",
"200 200 LINE",
"200 100 LINE"
);
},
{
closed = 1;
nodes = (
"1200 100 LINE",
"1200 200 LINE",
"1100 200 LINE",
"1100 100 LINE"
);
},
{
closed = 1;
nodes = (
"1100 0 LINE",
"1100 100 LINE",
"1000 100 LINE",
"1000 0 LINE"
);
},
{
closed = 1;
nodes = (
"1000 0 LINE",
"1000 100 LINE",
"900 100 LINE",
"900 0 LINE"
);
},
{
closed = 1;
nodes = (
"900 0 LINE",
"900 100 LINE",
"800 100 LINE",
"800 0 LINE"
);
},
{
closed = 1;
nodes = (
"700 0 LINE",
"700 100 LINE",
"600 100 LINE",
"600 0 LINE"
);
},
{
closed = 1;
nodes = (
"500 0 LINE",
"500 100 LINE",
"400 100 LINE",
"400 0 LINE"
);
},
{
closed = 1;
nodes = (
"600 0 LINE",
"600 100 LINE",
"500 100 LINE",
"500 0 LINE"
);
},
{
closed = 1;
nodes = (
"800 0 LINE",
"800 100 LINE",
"700 100 LINE",
"700 0 LINE"
);
},
{
closed = 1;
nodes = (
"1200 200 LINE",
"1200 300 LINE",
"1100 300 LINE",
"1100 200 LINE"
);
},
{
closed = 1;
nodes = (
"1200 300 LINE",
"1200 400 LINE",
"1100 400 LINE",
"1100 300 LINE"
);
},
{
closed = 1;
nodes = (
"1200 400 LINE",
"1200 500 LINE",
"1100 500 LINE",
"1100 400 LINE"
);
},
{
closed = 1;
nodes = (
"1100 500 LINE",
"1100 600 LINE",
"1000 600 LINE",
"1000 500 LINE"
);
},
{
closed = 1;
nodes = (
"300 400 LINE",
"300 500 LINE",
"200 500 LINE",
"200 400 LINE"
);
},
{
closed = 1;
nodes = (
"300 200 LINE",
"300 300 LINE",
"200 300 LINE",
"200 200 LINE"
);
},
{
closed = 1;
nodes = (
"300 300 LINE",
"300 400 LINE",
"200 400 LINE",
"200 300 LINE"
);
},
{
closed = 1;
nodes = (
"400 500 LINE",
"400 600 LINE",
"300 600 LINE",
"300 500 LINE"
);
},
{
closed = 1;
nodes = (
"500 500 LINE",
"500 600 LINE",
"400 600 LINE",
"400 500 LINE"
);
},
{
closed = 1;
nodes = (
"600 500 LINE",
"600 600 LINE",
"500 600 LINE",
"500 500 LINE"
);
},
{
closed = 1;
nodes = (
"800 500 LINE",
"800 600 LINE",
"700 600 LINE",
"700 500 LINE"
);
},
{
closed = 1;
nodes = (
"700 500 LINE",
"700 600 LINE",
"600 600 LINE",
"600 500 LINE"
);
},
{
closed = 1;
nodes = (
"900 500 LINE",
"900 600 LINE",
"800 600 LINE",
"800 500 LINE"
);
},
{
closed = 1;
nodes = (
"1000 500 LINE",
"1000 600 LINE",
"900 600 LINE",
"900 500 LINE"
);
}
);
width = 1400;
}
);
unicode = 00D2;
},
{
glyphname = Oslash;
lastChange = "2021-05-02 14:18:17 +0000";
layers = (
{
anchors = (
{
name = bottom;
position = "{700, 0}";
},
{
name = center;
position = "{700, 500}";
},
{
name = ogonek;
position = "{1250, 0}";
},
{
name = top;
position = "{700, 1000}";
},
{
name = topleft;
position = "{0, 1000}";
},
{
name = topright;
position = "{1400, 1000}";
}
);
layerId = "C06D72A1-06A8-4448-87FE-5EE3A071BB54";
paths = (
{
closed = 1;
nodes = (
"400 0 LINE",
"400 100 LINE",
"300 100 LINE",
"300 0 LINE"
);
},
{
closed = 1;
nodes = (
"300 100 LINE",
"300 200 LINE",
"200 200 LINE",
"200 100 LINE"
);
},
{
closed = 1;
nodes = (
"1200 100 LINE",
"1200 200 LINE",
"1100 200 LINE",
"1100 100 LINE"
);
},
{
closed = 1;
nodes = (
"1100 0 LINE",
"1100 100 LINE",
"1000 100 LINE",
"1000 0 LINE"
);
},
{
closed = 1;
nodes = (
"1000 0 LINE",
"1000 100 LINE",
"900 100 LINE",
"900 0 LINE"
);
},
{
closed = 1;
nodes = (
"900 0 LINE",
"900 100 LINE",
"800 100 LINE",
"800 0 LINE"
);
},
{
closed = 1;
nodes = (
"700 0 LINE",
"700 100 LINE",
"600 100 LINE",
"600 0 LINE"
);
},
{
closed = 1;
nodes = (
"500 0 LINE",
"500 100 LINE",
"400 100 LINE",
"400 0 LINE"
);
},
{
closed = 1;
nodes = (
"600 0 LINE",
"600 100 LINE",
"500 100 LINE",
"500 0 LINE"
);
},
{
closed = 1;
nodes = (
"800 0 LINE",
"800 100 LINE",
"700 100 LINE",
"700 0 LINE"
);
},
{
closed = 1;
nodes = (
"1200 200 LINE",
"1200 300 LINE",
"1100 300 LINE",
"1100 200 LINE"
);
},
{
closed = 1;
nodes = (
"1200 300 LINE",
"1200 400 LINE",
"1100 400 LINE",
"1100 300 LINE"
);
},
{
closed = 1;
nodes = (
"1200 400 LINE",
"1200 500 LINE",
"1100 500 LINE",
"1100 400 LINE"
);
},
{
closed = 1;
nodes = (
"1200 500 LINE",
"1200 600 LINE",
"1100 600 LINE",
"1100 500 LINE"
);
},
{
closed = 1;
nodes = (
"1100 600 LINE",
"1100 700 LINE",
"1000 700 LINE",
"1000 600 LINE"
);
},
{
closed = 1;
nodes = (
"300 400 LINE",
"300 500 LINE",
"200 500 LINE",
"200 400 LINE"
);
},
{
closed = 1;
nodes = (
"300 200 LINE",
"300 300 LINE",
"200 300 LINE",
"200 200 LINE"
);
},
{
closed = 1;
nodes = (
"300 300 LINE",
"300 400 LINE",
"200 400 LINE",
"200 300 LINE"
);
},
{
closed = 1;
nodes = (
"300 500 LINE",
"300 600 LINE",
"200 600 LINE",
"200 500 LINE"
);
},
{
closed = 1;
nodes = (
"400 600 LINE",
"400 700 LINE",
"300 700 LINE",
"300 600 LINE"
);
},
{
closed = 1;
nodes = (
"500 600 LINE",
"500 700 LINE",
"400 700 LINE",
"400 600 LINE"
);
},
{
closed = 1;
nodes = (
"600 600 LINE",
"600 700 LINE",
"500 700 LINE",
"500 600 LINE"
);
},
{
closed = 1;
nodes = (
"800 600 LINE",
"800 700 LINE",
"700 700 LINE",
"700 600 LINE"
);
},
{
closed = 1;
nodes = (
"700 600 LINE",
"700 700 LINE",
"600 700 LINE",
"600 600 LINE"
);
},
{
closed = 1;
nodes = (
"900 600 LINE",
"900 700 LINE",
"800 700 LINE",
"800 600 LINE"
);
},
{
closed = 1;
nodes = (
"1000 600 LINE",
"1000 700 LINE",
"900 700 LINE",
"900 600 LINE"
);
},
{
closed = 1;
nodes = (
"1100 500 LINE",
"1100 600 LINE",
"1000 600 LINE",
"1000 500 LINE"
);
},
{
closed = 1;
nodes = (
"1000 400 LINE",
"1000 500 LINE",
"900 500 LINE",
"900 400 LINE"
);
},
{
closed = 1;
nodes = (
"800 300 LINE",
"800 400 LINE",
"700 400 LINE",
"700 300 LINE"
);
},
{
closed = 1;
nodes = (
"600 200 LINE",
"600 300 LINE",
"500 300 LINE",
"500 200 LINE"
);
},
{
closed = 1;
nodes = (
"900 400 LINE",
"900 500 LINE",
"800 500 LINE",
"800 400 LINE"
);
},
{
closed = 1;
nodes = (
"700 300 LINE",
"700 400 LINE",
"600 400 LINE",
"600 300 LINE"
);
},
{
closed = 1;
nodes = (
"500 200 LINE",
"500 300 LINE",
"400 300 LINE",
"400 200 LINE"
);
},
{
closed = 1;
nodes = (
"400 100 LINE",
"400 200 LINE",
"300 200 LINE",
"300 100 LINE"
);
}
);
width = 1400;
}
);
unicode = 00D8;
},
{
glyphname = Otilde;
lastChange = "2021-05-02 14:18:17 +0000";
layers = (
{
components = (
{
name = tildecomb;
transform = "{1, 0, 0, 1, 0, 100}";
}
);
layerId = "C06D72A1-06A8-4448-87FE-5EE3A071BB54";
paths = (
{
closed = 1;
nodes = (
"400 0 LINE",
"400 100 LINE",
"300 100 LINE",
"300 0 LINE"
);
},
{
closed = 1;
nodes = (
"300 100 LINE",
"300 200 LINE",
"200 200 LINE",
"200 100 LINE"
);
},
{
closed = 1;
nodes = (
"1200 100 LINE",
"1200 200 LINE",
"1100 200 LINE",
"1100 100 LINE"
);
},
{
closed = 1;
nodes = (
"1100 0 LINE",
"1100 100 LINE",
"1000 100 LINE",
"1000 0 LINE"
);
},
{
closed = 1;
nodes = (
"1000 0 LINE",
"1000 100 LINE",
"900 100 LINE",
"900 0 LINE"
);
},
{
closed = 1;
nodes = (
"900 0 LINE",
"900 100 LINE",
"800 100 LINE",
"800 0 LINE"
);
},
{
closed = 1;
nodes = (
"700 0 LINE",
"700 100 LINE",
"600 100 LINE",
"600 0 LINE"
);
},
{
closed = 1;
nodes = (
"500 0 LINE",
"500 100 LINE",
"400 100 LINE",
"400 0 LINE"
);
},
{
closed = 1;
nodes = (
"600 0 LINE",
"600 100 LINE",
"500 100 LINE",
"500 0 LINE"
);
},
{
closed = 1;
nodes = (
"800 0 LINE",
"800 100 LINE",
"700 100 LINE",
"700 0 LINE"
);
},
{
closed = 1;
nodes = (
"1200 200 LINE",
"1200 300 LINE",
"1100 300 LINE",
"1100 200 LINE"
);
},
{
closed = 1;
nodes = (
"1200 300 LINE",
"1200 400 LINE",
"1100 400 LINE",
"1100 300 LINE"
);
},
{
closed = 1;
nodes = (
"1200 400 LINE",
"1200 500 LINE",
"1100 500 LINE",
"1100 400 LINE"
);
},
{
closed = 1;
nodes = (
"1100 500 LINE",
"1100 600 LINE",
"1000 600 LINE",
"1000 500 LINE"
);
},
{
closed = 1;
nodes = (
"300 400 LINE",
"300 500 LINE",
"200 500 LINE",
"200 400 LINE"
);
},
{
closed = 1;
nodes = (
"300 200 LINE",
"300 300 LINE",
"200 300 LINE",
"200 200 LINE"
);
},
{
closed = 1;
nodes = (
"300 300 LINE",
"300 400 LINE",
"200 400 LINE",
"200 300 LINE"
);
},
{
closed = 1;
nodes = (
"400 500 LINE",
"400 600 LINE",
"300 600 LINE",
"300 500 LINE"
);
},
{
closed = 1;
nodes = (
"500 500 LINE",
"500 600 LINE",
"400 600 LINE",
"400 500 LINE"
);
},
{
closed = 1;
nodes = (
"600 500 LINE",
"600 600 LINE",
"500 600 LINE",
"500 500 LINE"
);
},
{
closed = 1;
nodes = (
"800 500 LINE",
"800 600 LINE",
"700 600 LINE",
"700 500 LINE"
);
},
{
closed = 1;
nodes = (
"700 500 LINE",
"700 600 LINE",
"600 600 LINE",
"600 500 LINE"
);
},
{
closed = 1;
nodes = (
"900 500 LINE",
"900 600 LINE",
"800 600 LINE",
"800 500 LINE"
);
},
{
closed = 1;
nodes = (
"1000 500 LINE",
"1000 600 LINE",
"900 600 LINE",
"900 500 LINE"
);
}
);
width = 1400;
}
);
unicode = 00D5;
},
{
glyphname = OE;
lastChange = "2021-05-02 14:18:17 +0000";
layers = (
{
layerId = "C06D72A1-06A8-4448-87FE-5EE3A071BB54";
paths = (
{
closed = 1;
nodes = (
"200 100 LINE",
"200 200 LINE",
"100 200 LINE",
"100 100 LINE"
);
},
{
closed = 1;
nodes = (
"200 300 LINE",
"200 400 LINE",
"100 400 LINE",
"100 300 LINE"
);
},
{
closed = 1;
nodes = (
"200 500 LINE",
"200 600 LINE",
"100 600 LINE",
"100 500 LINE"
);
},
{
closed = 1;
nodes = (
"200 400 LINE",
"200 500 LINE",
"100 500 LINE",
"100 400 LINE"
);
},
{
closed = 1;
nodes = (
"300 600 LINE",
"300 700 LINE",
"200 700 LINE",
"200 600 LINE"
);
},
{
closed = 1;
nodes = (
"400 600 LINE",
"400 700 LINE",
"300 700 LINE",
"300 600 LINE"
);
},
{
closed = 1;
nodes = (
"600 600 LINE",
"600 700 LINE",
"500 700 LINE",
"500 600 LINE"
);
},
{
closed = 1;
nodes = (
"500 600 LINE",
"500 700 LINE",
"400 700 LINE",
"400 600 LINE"
);
},
{
closed = 1;
nodes = (
"800 500 LINE",
"800 600 LINE",
"700 600 LINE",
"700 500 LINE"
);
},
{
closed = 1;
nodes = (
"800 400 LINE",
"800 500 LINE",
"700 500 LINE",
"700 400 LINE"
);
},
{
closed = 1;
nodes = (
"700 0 LINE",
"700 100 LINE",
"600 100 LINE",
"600 0 LINE"
);
},
{
closed = 1;
nodes = (
"800 100 LINE",
"800 200 LINE",
"700 200 LINE",
"700 100 LINE"
);
},
{
closed = 1;
nodes = (
"600 0 LINE",
"600 100 LINE",
"500 100 LINE",
"500 0 LINE"
);
},
{
closed = 1;
nodes = (
"500 0 LINE",
"500 100 LINE",
"400 100 LINE",
"400 0 LINE"
);
},
{
closed = 1;
nodes = (
"400 0 LINE",
"400 100 LINE",
"300 100 LINE",
"300 0 LINE"
);
},
{
closed = 1;
nodes = (
"200 200 LINE",
"200 300 LINE",
"100 300 LINE",
"100 200 LINE"
);
},
{
closed = 1;
nodes = (
"300 0 LINE",
"300 100 LINE",
"200 100 LINE",
"200 0 LINE"
);
},
{
closed = 1;
nodes = (
"800 200 LINE",
"800 300 LINE",
"700 300 LINE",
"700 200 LINE"
);
},
{
closed = 1;
nodes = (
"700 600 LINE",
"700 700 LINE",
"600 700 LINE",
"600 600 LINE"
);
},
{
closed = 1;
nodes = (
"1100 600 LINE",
"1100 700 LINE",
"1000 700 LINE",
"1000 600 LINE"
);
},
{
closed = 1;
nodes = (
"900 600 LINE",
"900 700 LINE",
"800 700 LINE",
"800 600 LINE"
);
},
{
closed = 1;
nodes = (
"1000 600 LINE",
"1000 700 LINE",
"900 700 LINE",
"900 600 LINE"
);
},
{
closed = 1;
nodes = (
"1200 600 LINE",
"1200 700 LINE",
"1100 700 LINE",
"1100 600 LINE"
);
},
{
closed = 1;
nodes = (
"1300 600 LINE",
"1300 700 LINE",
"1200 700 LINE",
"1200 600 LINE"
);
},
{
closed = 1;
nodes = (
"900 0 LINE",
"900 100 LINE",
"800 100 LINE",
"800 0 LINE"
);
},
{
closed = 1;
nodes = (
"1000 0 LINE",
"1000 100 LINE",
"900 100 LINE",
"900 0 LINE"
);
},
{
closed = 1;
nodes = (
"1100 0 LINE",
"1100 100 LINE",
"1000 100 LINE",
"1000 0 LINE"
);
},
{
closed = 1;
nodes = (
"1200 0 LINE",
"1200 100 LINE",
"1100 100 LINE",
"1100 0 LINE"
);
},
{
closed = 1;
nodes = (
"1300 0 LINE",
"1300 100 LINE",
"1200 100 LINE",
"1200 0 LINE"
);
},
{
closed = 1;
nodes = (
"800 300 LINE",
"800 400 LINE",
"700 400 LINE",
"700 300 LINE"
);
},
{
closed = 1;
nodes = (
"900 300 LINE",
"900 400 LINE",
"800 400 LINE",
"800 300 LINE"
);
},
{
closed = 1;
nodes = (
"1000 300 LINE",
"1000 400 LINE",
"900 400 LINE",
"900 300 LINE"
);
},
{
closed = 1;
nodes = (
"1100 300 LINE",
"1100 400 LINE",
"1000 400 LINE",
"1000 300 LINE"
);
},
{
closed = 1;
nodes = (
"800 600 LINE",
"800 700 LINE",
"700 700 LINE",
"700 600 LINE"
);
},
{
closed = 1;
nodes = (
"800 0 LINE",
"800 100 LINE",
"700 100 LINE",
"700 0 LINE"
);
}
);
width = 1400;
}
);
unicode = 0152;
},
{
glyphname = P;
lastChange = "2021-05-02 14:18:17 +0000";
layers = (
{
layerId = "C06D72A1-06A8-4448-87FE-5EE3A071BB54";
paths = (
{
closed = 1;
nodes = (
"300 0 LINE",
"300 100 LINE",
"200 100 LINE",
"200 0 LINE"
);
},
{
closed = 1;
nodes = (
"300 100 LINE",
"300 200 LINE",
"200 200 LINE",
"200 100 LINE"
);
},
{
closed = 1;
nodes = (
"300 300 LINE",
"300 400 LINE",
"200 400 LINE",
"200 300 LINE"
);
},
{
closed = 1;
nodes = (
"300 200 LINE",
"300 300 LINE",
"200 300 LINE",
"200 200 LINE"
);
},
{
closed = 1;
nodes = (
"300 400 LINE",
"300 500 LINE",
"200 500 LINE",
"200 400 LINE"
);
},
{
closed = 1;
nodes = (
"300 500 LINE",
"300 600 LINE",
"200 600 LINE",
"200 500 LINE"
);
},
{
closed = 1;
nodes = (
"300 600 LINE",
"300 700 LINE",
"200 700 LINE",
"200 600 LINE"
);
},
{
closed = 1;
nodes = (
"400 600 LINE",
"400 700 LINE",
"300 700 LINE",
"300 600 LINE"
);
},
{
closed = 1;
nodes = (
"500 600 LINE",
"500 700 LINE",
"400 700 LINE",
"400 600 LINE"
);
},
{
closed = 1;
nodes = (
"600 600 LINE",
"600 700 LINE",
"500 700 LINE",
"500 600 LINE"
);
},
{
closed = 1;
nodes = (
"700 600 LINE",
"700 700 LINE",
"600 700 LINE",
"600 600 LINE"
);
},
{
closed = 1;
nodes = (
"800 600 LINE",
"800 700 LINE",
"700 700 LINE",
"700 600 LINE"
);
},
{
closed = 1;
nodes = (
"900 600 LINE",
"900 700 LINE",
"800 700 LINE",
"800 600 LINE"
);
},
{
closed = 1;
nodes = (
"1000 600 LINE",
"1000 700 LINE",
"900 700 LINE",
"900 600 LINE"
);
},
{
closed = 1;
nodes = (
"1100 600 LINE",
"1100 700 LINE",
"1000 700 LINE",
"1000 600 LINE"
);
},
{
closed = 1;
nodes = (
"1200 400 LINE",
"1200 500 LINE",
"1100 500 LINE",
"1100 400 LINE"
);
},
{
closed = 1;
nodes = (
"1200 500 LINE",
"1200 600 LINE",
"1100 600 LINE",
"1100 500 LINE"
);
},
{
closed = 1;
nodes = (
"1200 300 LINE",
"1200 400 LINE",
"1100 400 LINE",
"1100 300 LINE"
);
},
{
closed = 1;
nodes = (
"900 200 LINE",
"900 300 LINE",
"800 300 LINE",
"800 200 LINE"
);
},
{
closed = 1;
nodes = (
"1100 200 LINE",
"1100 300 LINE",
"1000 300 LINE",
"1000 200 LINE"
);
},
{
closed = 1;
nodes = (
"1000 200 LINE",
"1000 300 LINE",
"900 300 LINE",
"900 200 LINE"
);
},
{
closed = 1;
nodes = (
"800 200 LINE",
"800 300 LINE",
"700 300 LINE",
"700 200 LINE"
);
},
{
closed = 1;
nodes = (
"700 200 LINE",
"700 300 LINE",
"600 300 LINE",
"600 200 LINE"
);
},
{
closed = 1;
nodes = (
"600 200 LINE",
"600 300 LINE",
"500 300 LINE",
"500 200 LINE"
);
},
{
closed = 1;
nodes = (
"500 200 LINE",
"500 300 LINE",
"400 300 LINE",
"400 200 LINE"
);
},
{
closed = 1;
nodes = (
"400 200 LINE",
"400 300 LINE",
"300 300 LINE",
"300 200 LINE"
);
}
);
width = 1400;
}
);
note = P;
unicode = 0050;
},
{
glyphname = Q;
lastChange = "2021-05-02 14:18:17 +0000";
layers = (
{
layerId = "C06D72A1-06A8-4448-87FE-5EE3A071BB54";
paths = (
{
closed = 1;
nodes = (
"300 100 LINE",
"300 200 LINE",
"200 200 LINE",
"200 100 LINE"
);
},
{
closed = 1;
nodes = (
"400 0 LINE",
"400 100 LINE",
"300 100 LINE",
"300 0 LINE"
);
},
{
closed = 1;
nodes = (
"600 0 LINE",
"600 100 LINE",
"500 100 LINE",
"500 0 LINE"
);
},
{
closed = 1;
nodes = (
"500 0 LINE",
"500 100 LINE",
"400 100 LINE",
"400 0 LINE"
);
},
{
closed = 1;
nodes = (
"800 0 LINE",
"800 100 LINE",
"700 100 LINE",
"700 0 LINE"
);
},
{
closed = 1;
nodes = (
"700 0 LINE",
"700 100 LINE",
"600 100 LINE",
"600 0 LINE"
);
},
{
closed = 1;
nodes = (
"1100 100 LINE",
"1100 200 LINE",
"1000 200 LINE",
"1000 100 LINE"
);
},
{
closed = 1;
nodes = (
"1200 0 LINE",
"1200 100 LINE",
"1100 100 LINE",
"1100 0 LINE"
);
},
{
closed = 1;
nodes = (
"1000 0 LINE",
"1000 100 LINE",
"900 100 LINE",
"900 0 LINE"
);
},
{
closed = 1;
nodes = (
"900 0 LINE",
"900 100 LINE",
"800 100 LINE",
"800 0 LINE"
);
},
{
closed = 1;
nodes = (
"300 200 LINE",
"300 300 LINE",
"200 300 LINE",
"200 200 LINE"
);
},
{
closed = 1;
nodes = (
"300 400 LINE",
"300 500 LINE",
"200 500 LINE",
"200 400 LINE"
);
},
{
closed = 1;
nodes = (
"300 300 LINE",
"300 400 LINE",
"200 400 LINE",
"200 300 LINE"
);
},
{
closed = 1;
nodes = (
"400 600 LINE",
"400 700 LINE",
"300 700 LINE",
"300 600 LINE"
);
},
{
closed = 1;
nodes = (
"300 500 LINE",
"300 600 LINE",
"200 600 LINE",
"200 500 LINE"
);
},
{
closed = 1;
nodes = (
"700 600 LINE",
"700 700 LINE",
"600 700 LINE",
"600 600 LINE"
);
},
{
closed = 1;
nodes = (
"500 600 LINE",
"500 700 LINE",
"400 700 LINE",
"400 600 LINE"
);
},
{
closed = 1;
nodes = (
"600 600 LINE",
"600 700 LINE",
"500 700 LINE",
"500 600 LINE"
);
},
{
closed = 1;
nodes = (
"800 600 LINE",
"800 700 LINE",
"700 700 LINE",
"700 600 LINE"
);
},
{
closed = 1;
nodes = (
"900 600 LINE",
"900 700 LINE",
"800 700 LINE",
"800 600 LINE"
);
},
{
closed = 1;
nodes = (
"1000 600 LINE",
"1000 700 LINE",
"900 700 LINE",
"900 600 LINE"
);
},
{
closed = 1;
nodes = (
"1100 600 LINE",
"1100 700 LINE",
"1000 700 LINE",
"1000 600 LINE"
);
},
{
closed = 1;
nodes = (
"1200 500 LINE",
"1200 600 LINE",
"1100 600 LINE",
"1100 500 LINE"
);
},
{
closed = 1;
nodes = (
"1200 400 LINE",
"1200 500 LINE",
"1100 500 LINE",
"1100 400 LINE"
);
},
{
closed = 1;
nodes = (
"1200 300 LINE",
"1200 400 LINE",
"1100 400 LINE",
"1100 300 LINE"
);
},
{
closed = 1;
nodes = (
"1200 200 LINE",
"1200 300 LINE",
"1100 300 LINE",
"1100 200 LINE"
);
},
{
closed = 1;
nodes = (
"1000 200 LINE",
"1000 300 LINE",
"900 300 LINE",
"900 200 LINE"
);
}
);
width = 1400;
}
);
note = Q;
unicode = 0051;
},
{
glyphname = R;
lastChange = "2021-05-02 14:18:17 +0000";
layers = (
{
layerId = "C06D72A1-06A8-4448-87FE-5EE3A071BB54";
paths = (
{
closed = 1;
nodes = (
"300 0 LINE",
"300 100 LINE",
"200 100 LINE",
"200 0 LINE"
);
},
{
closed = 1;
nodes = (
"300 100 LINE",
"300 200 LINE",
"200 200 LINE",
"200 100 LINE"
);
},
{
closed = 1;
nodes = (
"300 300 LINE",
"300 400 LINE",
"200 400 LINE",
"200 300 LINE"
);
},
{
closed = 1;
nodes = (
"300 200 LINE",
"300 300 LINE",
"200 300 LINE",
"200 200 LINE"
);
},
{
closed = 1;
nodes = (
"300 400 LINE",
"300 500 LINE",
"200 500 LINE",
"200 400 LINE"
);
},
{
closed = 1;
nodes = (
"300 500 LINE",
"300 600 LINE",
"200 600 LINE",
"200 500 LINE"
);
},
{
closed = 1;
nodes = (
"300 600 LINE",
"300 700 LINE",
"200 700 LINE",
"200 600 LINE"
);
},
{
closed = 1;
nodes = (
"500 600 LINE",
"500 700 LINE",
"400 700 LINE",
"400 600 LINE"
);
},
{
closed = 1;
nodes = (
"400 600 LINE",
"400 700 LINE",
"300 700 LINE",
"300 600 LINE"
);
},
{
closed = 1;
nodes = (
"600 600 LINE",
"600 700 LINE",
"500 700 LINE",
"500 600 LINE"
);
},
{
closed = 1;
nodes = (
"800 600 LINE",
"800 700 LINE",
"700 700 LINE",
"700 600 LINE"
);
},
{
closed = 1;
nodes = (
"700 600 LINE",
"700 700 LINE",
"600 700 LINE",
"600 600 LINE"
);
},
{
closed = 1;
nodes = (
"900 600 LINE",
"900 700 LINE",
"800 700 LINE",
"800 600 LINE"
);
},
{
closed = 1;
nodes = (
"1000 600 LINE",
"1000 700 LINE",
"900 700 LINE",
"900 600 LINE"
);
},
{
closed = 1;
nodes = (
"1100 600 LINE",
"1100 700 LINE",
"1000 700 LINE",
"1000 600 LINE"
);
},
{
closed = 1;
nodes = (
"1200 500 LINE",
"1200 600 LINE",
"1100 600 LINE",
"1100 500 LINE"
);
},
{
closed = 1;
nodes = (
"1100 300 LINE",
"1100 400 LINE",
"1000 400 LINE",
"1000 300 LINE"
);
},
{
closed = 1;
nodes = (
"1200 400 LINE",
"1200 500 LINE",
"1100 500 LINE",
"1100 400 LINE"
);
},
{
closed = 1;
nodes = (
"1000 300 LINE",
"1000 400 LINE",
"900 400 LINE",
"900 300 LINE"
);
},
{
closed = 1;
nodes = (
"900 300 LINE",
"900 400 LINE",
"800 400 LINE",
"800 300 LINE"
);
},
{
closed = 1;
nodes = (
"800 300 LINE",
"800 400 LINE",
"700 400 LINE",
"700 300 LINE"
);
},
{
closed = 1;
nodes = (
"700 300 LINE",
"700 400 LINE",
"600 400 LINE",
"600 300 LINE"
);
},
{
closed = 1;
nodes = (
"400 300 LINE",
"400 400 LINE",
"300 400 LINE",
"300 300 LINE"
);
},
{
closed = 1;
nodes = (
"600 300 LINE",
"600 400 LINE",
"500 400 LINE",
"500 300 LINE"
);
},
{
closed = 1;
nodes = (
"500 300 LINE",
"500 400 LINE",
"400 400 LINE",
"400 300 LINE"
);
},
{
closed = 1;
nodes = (
"1200 0 LINE",
"1200 100 LINE",
"1100 100 LINE",
"1100 0 LINE"
);
},
{
closed = 1;
nodes = (
"1100 100 LINE",
"1100 200 LINE",
"1000 200 LINE",
"1000 100 LINE"
);
},
{
closed = 1;
nodes = (
"1000 200 LINE",
"1000 300 LINE",
"900 300 LINE",
"900 200 LINE"
);
}
);
width = 1400;
}
);
note = R;
unicode = 0052;
},
{
glyphname = S;
lastChange = "2021-05-02 14:18:17 +0000";
layers = (
{
layerId = "C06D72A1-06A8-4448-87FE-5EE3A071BB54";
paths = (
{
closed = 1;
nodes = (
"300 0 LINE",
"300 100 LINE",
"200 100 LINE",
"200 0 LINE"
);
},
{
closed = 1;
nodes = (
"400 0 LINE",
"400 100 LINE",
"300 100 LINE",
"300 0 LINE"
);
},
{
closed = 1;
nodes = (
"500 0 LINE",
"500 100 LINE",
"400 100 LINE",
"400 0 LINE"
);
},
{
closed = 1;
nodes = (
"600 0 LINE",
"600 100 LINE",
"500 100 LINE",
"500 0 LINE"
);
},
{
closed = 1;
nodes = (
"800 0 LINE",
"800 100 LINE",
"700 100 LINE",
"700 0 LINE"
);
},
{
closed = 1;
nodes = (
"700 0 LINE",
"700 100 LINE",
"600 100 LINE",
"600 0 LINE"
);
},
{
closed = 1;
nodes = (
"900 0 LINE",
"900 100 LINE",
"800 100 LINE",
"800 0 LINE"
);
},
{
closed = 1;
nodes = (
"1000 0 LINE",
"1000 100 LINE",
"900 100 LINE",
"900 0 LINE"
);
},
{
closed = 1;
nodes = (
"1100 0 LINE",
"1100 100 LINE",
"1000 100 LINE",
"1000 0 LINE"
);
},
{
closed = 1;
nodes = (
"1200 100 LINE",
"1200 200 LINE",
"1100 200 LINE",
"1100 100 LINE"
);
},
{
closed = 1;
nodes = (
"400 600 LINE",
"400 700 LINE",
"300 700 LINE",
"300 600 LINE"
);
},
{
closed = 1;
nodes = (
"1200 600 LINE",
"1200 700 LINE",
"1100 700 LINE",
"1100 600 LINE"
);
},
{
closed = 1;
nodes = (
"1100 600 LINE",
"1100 700 LINE",
"1000 700 LINE",
"1000 600 LINE"
);
},
{
closed = 1;
nodes = (
"300 500 LINE",
"300 600 LINE",
"200 600 LINE",
"200 500 LINE"
);
},
{
closed = 1;
nodes = (
"500 600 LINE",
"500 700 LINE",
"400 700 LINE",
"400 600 LINE"
);
},
{
closed = 1;
nodes = (
"600 600 LINE",
"600 700 LINE",
"500 700 LINE",
"500 600 LINE"
);
},
{
closed = 1;
nodes = (
"700 600 LINE",
"700 700 LINE",
"600 700 LINE",
"600 600 LINE"
);
},
{
closed = 1;
nodes = (
"800 600 LINE",
"800 700 LINE",
"700 700 LINE",
"700 600 LINE"
);
},
{
closed = 1;
nodes = (
"900 600 LINE",
"900 700 LINE",
"800 700 LINE",
"800 600 LINE"
);
},
{
closed = 1;
nodes = (
"1000 600 LINE",
"1000 700 LINE",
"900 700 LINE",
"900 600 LINE"
);
},
{
closed = 1;
nodes = (
"1200 200 LINE",
"1200 300 LINE",
"1100 300 LINE",
"1100 200 LINE"
);
},
{
closed = 1;
nodes = (
"300 400 LINE",
"300 500 LINE",
"200 500 LINE",
"200 400 LINE"
);
},
{
closed = 1;
nodes = (
"400 300 LINE",
"400 400 LINE",
"300 400 LINE",
"300 300 LINE"
);
},
{
closed = 1;
nodes = (
"500 300 LINE",
"500 400 LINE",
"400 400 LINE",
"400 300 LINE"
);
},
{
closed = 1;
nodes = (
"600 300 LINE",
"600 400 LINE",
"500 400 LINE",
"500 300 LINE"
);
},
{
closed = 1;
nodes = (
"700 300 LINE",
"700 400 LINE",
"600 400 LINE",
"600 300 LINE"
);
},
{
closed = 1;
nodes = (
"900 300 LINE",
"900 400 LINE",
"800 400 LINE",
"800 300 LINE"
);
},
{
closed = 1;
nodes = (
"1000 300 LINE",
"1000 400 LINE",
"900 400 LINE",
"900 300 LINE"
);
},
{
closed = 1;
nodes = (
"800 300 LINE",
"800 400 LINE",
"700 400 LINE",
"700 300 LINE"
);
},
{
closed = 1;
nodes = (
"1100 300 LINE",
"1100 400 LINE",
"1000 400 LINE",
"1000 300 LINE"
);
}
);
width = 1400;
}
);
note = S;
unicode = 0053;
},
{
glyphname = T;
lastChange = "2021-05-02 14:18:17 +0000";
layers = (
{
layerId = "C06D72A1-06A8-4448-87FE-5EE3A071BB54";
paths = (
{
closed = 1;
nodes = (
"700 0 LINE",
"700 100 LINE",
"600 100 LINE",
"600 0 LINE"
);
},
{
closed = 1;
nodes = (
"700 100 LINE",
"700 200 LINE",
"600 200 LINE",
"600 100 LINE"
);
},
{
closed = 1;
nodes = (
"700 200 LINE",
"700 300 LINE",
"600 300 LINE",
"600 200 LINE"
);
},
{
closed = 1;
nodes = (
"700 300 LINE",
"700 400 LINE",
"600 400 LINE",
"600 300 LINE"
);
},
{
closed = 1;
nodes = (
"700 400 LINE",
"700 500 LINE",
"600 500 LINE",
"600 400 LINE"
);
},
{
closed = 1;
nodes = (
"700 500 LINE",
"700 600 LINE",
"600 600 LINE",
"600 500 LINE"
);
},
{
closed = 1;
nodes = (
"700 600 LINE",
"700 700 LINE",
"600 700 LINE",
"600 600 LINE"
);
},
{
closed = 1;
nodes = (
"600 600 LINE",
"600 700 LINE",
"500 700 LINE",
"500 600 LINE"
);
},
{
closed = 1;
nodes = (
"300 600 LINE",
"300 700 LINE",
"200 700 LINE",
"200 600 LINE"
);
},
{
closed = 1;
nodes = (
"400 600 LINE",
"400 700 LINE",
"300 700 LINE",
"300 600 LINE"
);
},
{
closed = 1;
nodes = (
"500 600 LINE",
"500 700 LINE",
"400 700 LINE",
"400 600 LINE"
);
},
{
closed = 1;
nodes = (
"800 600 LINE",
"800 700 LINE",
"700 700 LINE",
"700 600 LINE"
);
},
{
closed = 1;
nodes = (
"900 600 LINE",
"900 700 LINE",
"800 700 LINE",
"800 600 LINE"
);
},
{
closed = 1;
nodes = (
"1000 600 LINE",
"1000 700 LINE",
"900 700 LINE",
"900 600 LINE"
);
},
{
closed = 1;
nodes = (
"1200 600 LINE",
"1200 700 LINE",
"1100 700 LINE",
"1100 600 LINE"
);
},
{
closed = 1;
nodes = (
"1100 600 LINE",
"1100 700 LINE",
"1000 700 LINE",
"1000 600 LINE"
);
}
);
width = 1400;
}
);
note = T;
unicode = 0054;
},
{
glyphname = U;
lastChange = "2021-05-02 14:18:17 +0000";
layers = (
{
anchors = (
{
name = bottom;
position = "{700, 0}";
},
{
name = ogonek;
position = "{1250, 0}";
},
{
name = top;
position = "{700, 1000}";
},
{
name = topright;
position = "{1400, 1000}";
}
);
layerId = "C06D72A1-06A8-4448-87FE-5EE3A071BB54";
paths = (
{
closed = 1;
nodes = (
"300 600 LINE",
"300 700 LINE",
"200 700 LINE",
"200 600 LINE"
);
},
{
closed = 1;
nodes = (
"300 500 LINE",
"300 600 LINE",
"200 600 LINE",
"200 500 LINE"
);
},
{
closed = 1;
nodes = (
"300 400 LINE",
"300 500 LINE",
"200 500 LINE",
"200 400 LINE"
);
},
{
closed = 1;
nodes = (
"300 200 LINE",
"300 300 LINE",
"200 300 LINE",
"200 200 LINE"
);
},
{
closed = 1;
nodes = (
"300 300 LINE",
"300 400 LINE",
"200 400 LINE",
"200 300 LINE"
);
},
{
closed = 1;
nodes = (
"400 0 LINE",
"400 100 LINE",
"300 100 LINE",
"300 0 LINE"
);
},
{
closed = 1;
nodes = (
"300 100 LINE",
"300 200 LINE",
"200 200 LINE",
"200 100 LINE"
);
},
{
closed = 1;
nodes = (
"500 0 LINE",
"500 100 LINE",
"400 100 LINE",
"400 0 LINE"
);
},
{
closed = 1;
nodes = (
"600 0 LINE",
"600 100 LINE",
"500 100 LINE",
"500 0 LINE"
);
},
{
closed = 1;
nodes = (
"700 0 LINE",
"700 100 LINE",
"600 100 LINE",
"600 0 LINE"
);
},
{
closed = 1;
nodes = (
"800 0 LINE",
"800 100 LINE",
"700 100 LINE",
"700 0 LINE"
);
},
{
closed = 1;
nodes = (
"900 0 LINE",
"900 100 LINE",
"800 100 LINE",
"800 0 LINE"
);
},
{
closed = 1;
nodes = (
"1000 0 LINE",
"1000 100 LINE",
"900 100 LINE",
"900 0 LINE"
);
},
{
closed = 1;
nodes = (
"1100 0 LINE",
"1100 100 LINE",
"1000 100 LINE",
"1000 0 LINE"
);
},
{
closed = 1;
nodes = (
"1200 100 LINE",
"1200 200 LINE",
"1100 200 LINE",
"1100 100 LINE"
);
},
{
closed = 1;
nodes = (
"1200 200 LINE",
"1200 300 LINE",
"1100 300 LINE",
"1100 200 LINE"
);
},
{
closed = 1;
nodes = (
"1200 300 LINE",
"1200 400 LINE",
"1100 400 LINE",
"1100 300 LINE"
);
},
{
closed = 1;
nodes = (
"1200 400 LINE",
"1200 500 LINE",
"1100 500 LINE",
"1100 400 LINE"
);
},
{
closed = 1;
nodes = (
"1200 500 LINE",
"1200 600 LINE",
"1100 600 LINE",
"1100 500 LINE"
);
},
{
closed = 1;
nodes = (
"1200 600 LINE",
"1200 700 LINE",
"1100 700 LINE",
"1100 600 LINE"
);
}
);
width = 1400;
}
);
note = U;
unicode = 0055;
},
{
glyphname = Uacute;
lastChange = "2021-05-02 14:18:17 +0000";
layers = (
{
anchors = (
{
name = bottom;
position = "{700, 0}";
},
{
name = ogonek;
position = "{1250, 0}";
},
{
name = top;
position = "{700, 1000}";
},
{
name = topright;
position = "{1400, 1000}";
}
);
components = (
{
name = acutecomb;
transform = "{1, 0, 0, 1, 0, 100}";
}
);
layerId = "C06D72A1-06A8-4448-87FE-5EE3A071BB54";
paths = (
{
closed = 1;
nodes = (
"300 500 LINE",
"300 600 LINE",
"200 600 LINE",
"200 500 LINE"
);
},
{
closed = 1;
nodes = (
"300 400 LINE",
"300 500 LINE",
"200 500 LINE",
"200 400 LINE"
);
},
{
closed = 1;
nodes = (
"300 200 LINE",
"300 300 LINE",
"200 300 LINE",
"200 200 LINE"
);
},
{
closed = 1;
nodes = (
"300 300 LINE",
"300 400 LINE",
"200 400 LINE",
"200 300 LINE"
);
},
{
closed = 1;
nodes = (
"400 0 LINE",
"400 100 LINE",
"300 100 LINE",
"300 0 LINE"
);
},
{
closed = 1;
nodes = (
"300 100 LINE",
"300 200 LINE",
"200 200 LINE",
"200 100 LINE"
);
},
{
closed = 1;
nodes = (
"500 0 LINE",
"500 100 LINE",
"400 100 LINE",
"400 0 LINE"
);
},
{
closed = 1;
nodes = (
"600 0 LINE",
"600 100 LINE",
"500 100 LINE",
"500 0 LINE"
);
},
{
closed = 1;
nodes = (
"700 0 LINE",
"700 100 LINE",
"600 100 LINE",
"600 0 LINE"
);
},
{
closed = 1;
nodes = (
"800 0 LINE",
"800 100 LINE",
"700 100 LINE",
"700 0 LINE"
);
},
{
closed = 1;
nodes = (
"900 0 LINE",
"900 100 LINE",
"800 100 LINE",
"800 0 LINE"
);
},
{
closed = 1;
nodes = (
"1000 0 LINE",
"1000 100 LINE",
"900 100 LINE",
"900 0 LINE"
);
},
{
closed = 1;
nodes = (
"1100 0 LINE",
"1100 100 LINE",
"1000 100 LINE",
"1000 0 LINE"
);
},
{
closed = 1;
nodes = (
"1200 100 LINE",
"1200 200 LINE",
"1100 200 LINE",
"1100 100 LINE"
);
},
{
closed = 1;
nodes = (
"1200 200 LINE",
"1200 300 LINE",
"1100 300 LINE",
"1100 200 LINE"
);
},
{
closed = 1;
nodes = (
"1200 300 LINE",
"1200 400 LINE",
"1100 400 LINE",
"1100 300 LINE"
);
},
{
closed = 1;
nodes = (
"1200 400 LINE",
"1200 500 LINE",
"1100 500 LINE",
"1100 400 LINE"
);
},
{
closed = 1;
nodes = (
"1200 500 LINE",
"1200 600 LINE",
"1100 600 LINE",
"1100 500 LINE"
);
}
);
width = 1400;
}
);
unicode = 00DA;
},
{
glyphname = Ucircumflex;
lastChange = "2021-05-02 14:18:17 +0000";
layers = (
{
components = (
{
name = circumflexcomb;
transform = "{1, 0, 0, 1, 0, 100}";
}
);
layerId = "C06D72A1-06A8-4448-87FE-5EE3A071BB54";
paths = (
{
closed = 1;
nodes = (
"300 500 LINE",
"300 600 LINE",
"200 600 LINE",
"200 500 LINE"
);
},
{
closed = 1;
nodes = (
"300 400 LINE",
"300 500 LINE",
"200 500 LINE",
"200 400 LINE"
);
},
{
closed = 1;
nodes = (
"300 200 LINE",
"300 300 LINE",
"200 300 LINE",
"200 200 LINE"
);
},
{
closed = 1;
nodes = (
"300 300 LINE",
"300 400 LINE",
"200 400 LINE",
"200 300 LINE"
);
},
{
closed = 1;
nodes = (
"400 0 LINE",
"400 100 LINE",
"300 100 LINE",
"300 0 LINE"
);
},
{
closed = 1;
nodes = (
"300 100 LINE",
"300 200 LINE",
"200 200 LINE",
"200 100 LINE"
);
},
{
closed = 1;
nodes = (
"500 0 LINE",
"500 100 LINE",
"400 100 LINE",
"400 0 LINE"
);
},
{
closed = 1;
nodes = (
"600 0 LINE",
"600 100 LINE",
"500 100 LINE",
"500 0 LINE"
);
},
{
closed = 1;
nodes = (
"700 0 LINE",
"700 100 LINE",
"600 100 LINE",
"600 0 LINE"
);
},
{
closed = 1;
nodes = (
"800 0 LINE",
"800 100 LINE",
"700 100 LINE",
"700 0 LINE"
);
},
{
closed = 1;
nodes = (
"900 0 LINE",
"900 100 LINE",
"800 100 LINE",
"800 0 LINE"
);
},
{
closed = 1;
nodes = (
"1000 0 LINE",
"1000 100 LINE",
"900 100 LINE",
"900 0 LINE"
);
},
{
closed = 1;
nodes = (
"1100 0 LINE",
"1100 100 LINE",
"1000 100 LINE",
"1000 0 LINE"
);
},
{
closed = 1;
nodes = (
"1200 100 LINE",
"1200 200 LINE",
"1100 200 LINE",
"1100 100 LINE"
);
},
{
closed = 1;
nodes = (
"1200 200 LINE",
"1200 300 LINE",
"1100 300 LINE",
"1100 200 LINE"
);
},
{
closed = 1;
nodes = (
"1200 300 LINE",
"1200 400 LINE",
"1100 400 LINE",
"1100 300 LINE"
);
},
{
closed = 1;
nodes = (
"1200 400 LINE",
"1200 500 LINE",
"1100 500 LINE",
"1100 400 LINE"
);
},
{
closed = 1;
nodes = (
"1200 500 LINE",
"1200 600 LINE",
"1100 600 LINE",
"1100 500 LINE"
);
}
);
width = 1400;
}
);
unicode = 00DB;
},
{
glyphname = Udieresis;
lastChange = "2021-05-02 14:18:17 +0000";
layers = (
{
components = (
{
name = dieresiscomb;
transform = "{1, 0, 0, 1, 0, 100}";
}
);
layerId = "C06D72A1-06A8-4448-87FE-5EE3A071BB54";
paths = (
{
closed = 1;
nodes = (
"300 500 LINE",
"300 600 LINE",
"200 600 LINE",
"200 500 LINE"
);
},
{
closed = 1;
nodes = (
"300 400 LINE",
"300 500 LINE",
"200 500 LINE",
"200 400 LINE"
);
},
{
closed = 1;
nodes = (
"300 200 LINE",
"300 300 LINE",
"200 300 LINE",
"200 200 LINE"
);
},
{
closed = 1;
nodes = (
"300 300 LINE",
"300 400 LINE",
"200 400 LINE",
"200 300 LINE"
);
},
{
closed = 1;
nodes = (
"400 0 LINE",
"400 100 LINE",
"300 100 LINE",
"300 0 LINE"
);
},
{
closed = 1;
nodes = (
"300 100 LINE",
"300 200 LINE",
"200 200 LINE",
"200 100 LINE"
);
},
{
closed = 1;
nodes = (
"500 0 LINE",
"500 100 LINE",
"400 100 LINE",
"400 0 LINE"
);
},
{
closed = 1;
nodes = (
"600 0 LINE",
"600 100 LINE",
"500 100 LINE",
"500 0 LINE"
);
},
{
closed = 1;
nodes = (
"700 0 LINE",
"700 100 LINE",
"600 100 LINE",
"600 0 LINE"
);
},
{
closed = 1;
nodes = (
"800 0 LINE",
"800 100 LINE",
"700 100 LINE",
"700 0 LINE"
);
},
{
closed = 1;
nodes = (
"900 0 LINE",
"900 100 LINE",
"800 100 LINE",
"800 0 LINE"
);
},
{
closed = 1;
nodes = (
"1000 0 LINE",
"1000 100 LINE",
"900 100 LINE",
"900 0 LINE"
);
},
{
closed = 1;
nodes = (
"1100 0 LINE",
"1100 100 LINE",
"1000 100 LINE",
"1000 0 LINE"
);
},
{
closed = 1;
nodes = (
"1200 100 LINE",
"1200 200 LINE",
"1100 200 LINE",
"1100 100 LINE"
);
},
{
closed = 1;
nodes = (
"1200 200 LINE",
"1200 300 LINE",
"1100 300 LINE",
"1100 200 LINE"
);
},
{
closed = 1;
nodes = (
"1200 300 LINE",
"1200 400 LINE",
"1100 400 LINE",
"1100 300 LINE"
);
},
{
closed = 1;
nodes = (
"1200 400 LINE",
"1200 500 LINE",
"1100 500 LINE",
"1100 400 LINE"
);
},
{
closed = 1;
nodes = (
"1200 500 LINE",
"1200 600 LINE",
"1100 600 LINE",
"1100 500 LINE"
);
}
);
width = 1400;
}
);
unicode = 00DC;
},
{
glyphname = Ugrave;
lastChange = "2021-05-02 14:18:17 +0000";
layers = (
{
components = (
{
name = gravecomb;
transform = "{1, 0, 0, 1, 0, 100}";
}
);
layerId = "C06D72A1-06A8-4448-87FE-5EE3A071BB54";
paths = (
{
closed = 1;
nodes = (
"300 500 LINE",
"300 600 LINE",
"200 600 LINE",
"200 500 LINE"
);
},
{
closed = 1;
nodes = (
"300 400 LINE",
"300 500 LINE",
"200 500 LINE",
"200 400 LINE"
);
},
{
closed = 1;
nodes = (
"300 200 LINE",
"300 300 LINE",
"200 300 LINE",
"200 200 LINE"
);
},
{
closed = 1;
nodes = (
"300 300 LINE",
"300 400 LINE",
"200 400 LINE",
"200 300 LINE"
);
},
{
closed = 1;
nodes = (
"400 0 LINE",
"400 100 LINE",
"300 100 LINE",
"300 0 LINE"
);
},
{
closed = 1;
nodes = (
"300 100 LINE",
"300 200 LINE",
"200 200 LINE",
"200 100 LINE"
);
},
{
closed = 1;
nodes = (
"500 0 LINE",
"500 100 LINE",
"400 100 LINE",
"400 0 LINE"
);
},
{
closed = 1;
nodes = (
"600 0 LINE",
"600 100 LINE",
"500 100 LINE",
"500 0 LINE"
);
},
{
closed = 1;
nodes = (
"700 0 LINE",
"700 100 LINE",
"600 100 LINE",
"600 0 LINE"
);
},
{
closed = 1;
nodes = (
"800 0 LINE",
"800 100 LINE",
"700 100 LINE",
"700 0 LINE"
);
},
{
closed = 1;
nodes = (
"900 0 LINE",
"900 100 LINE",
"800 100 LINE",
"800 0 LINE"
);
},
{
closed = 1;
nodes = (
"1000 0 LINE",
"1000 100 LINE",
"900 100 LINE",
"900 0 LINE"
);
},
{
closed = 1;
nodes = (
"1100 0 LINE",
"1100 100 LINE",
"1000 100 LINE",
"1000 0 LINE"
);
},
{
closed = 1;
nodes = (
"1200 100 LINE",
"1200 200 LINE",
"1100 200 LINE",
"1100 100 LINE"
);
},
{
closed = 1;
nodes = (
"1200 200 LINE",
"1200 300 LINE",
"1100 300 LINE",
"1100 200 LINE"
);
},
{
closed = 1;
nodes = (
"1200 300 LINE",
"1200 400 LINE",
"1100 400 LINE",
"1100 300 LINE"
);
},
{
closed = 1;
nodes = (
"1200 400 LINE",
"1200 500 LINE",
"1100 500 LINE",
"1100 400 LINE"
);
},
{
closed = 1;
nodes = (
"1200 500 LINE",
"1200 600 LINE",
"1100 600 LINE",
"1100 500 LINE"
);
}
);
width = 1400;
}
);
unicode = 00D9;
},
{
glyphname = V;
lastChange = "2021-05-02 14:18:17 +0000";
layers = (
{
layerId = "C06D72A1-06A8-4448-87FE-5EE3A071BB54";
paths = (
{
closed = 1;
nodes = (
"1200 600 LINE",
"1200 700 LINE",
"1100 700 LINE",
"1100 600 LINE"
);
},
{
closed = 1;
nodes = (
"300 600 LINE",
"300 700 LINE",
"200 700 LINE",
"200 600 LINE"
);
},
{
closed = 1;
nodes = (
"1200 500 LINE",
"1200 600 LINE",
"1100 600 LINE",
"1100 500 LINE"
);
},
{
closed = 1;
nodes = (
"300 500 LINE",
"300 600 LINE",
"200 600 LINE",
"200 500 LINE"
);
},
{
closed = 1;
nodes = (
"400 300 LINE",
"400 400 LINE",
"300 400 LINE",
"300 300 LINE"
);
},
{
closed = 1;
nodes = (
"1100 400 LINE",
"1100 500 LINE",
"1000 500 LINE",
"1000 400 LINE"
);
},
{
closed = 1;
nodes = (
"1100 300 LINE",
"1100 400 LINE",
"1000 400 LINE",
"1000 300 LINE"
);
},
{
closed = 1;
nodes = (
"600 100 LINE",
"600 200 LINE",
"500 200 LINE",
"500 100 LINE"
);
},
{
closed = 1;
nodes = (
"700 0 LINE",
"700 100 LINE",
"600 100 LINE",
"600 0 LINE"
);
},
{
closed = 1;
nodes = (
"800 0 LINE",
"800 100 LINE",
"700 100 LINE",
"700 0 LINE"
);
},
{
closed = 1;
nodes = (
"400 400 LINE",
"400 500 LINE",
"300 500 LINE",
"300 400 LINE"
);
},
{
closed = 1;
nodes = (
"900 100 LINE",
"900 200 LINE",
"800 200 LINE",
"800 100 LINE"
);
},
{
closed = 1;
nodes = (
"500 200 LINE",
"500 300 LINE",
"400 300 LINE",
"400 200 LINE"
);
},
{
closed = 1;
nodes = (
"1000 200 LINE",
"1000 300 LINE",
"900 300 LINE",
"900 200 LINE"
);
}
);
width = 1400;
}
);
note = V;
unicode = 0056;
},
{
glyphname = W;
lastChange = "2021-05-02 14:18:17 +0000";
layers = (
{
layerId = "C06D72A1-06A8-4448-87FE-5EE3A071BB54";
paths = (
{
closed = 1;
nodes = (
"200 600 LINE",
"200 700 LINE",
"100 700 LINE",
"100 600 LINE"
);
},
{
closed = 1;
nodes = (
"200 500 LINE",
"200 600 LINE",
"100 600 LINE",
"100 500 LINE"
);
},
{
closed = 1;
nodes = (
"300 300 LINE",
"300 400 LINE",
"200 400 LINE",
"200 300 LINE"
);
},
{
closed = 1;
nodes = (
"400 100 LINE",
"400 200 LINE",
"300 200 LINE",
"300 100 LINE"
);
},
{
closed = 1;
nodes = (
"300 400 LINE",
"300 500 LINE",
"200 500 LINE",
"200 400 LINE"
);
},
{
closed = 1;
nodes = (
"1000 200 LINE",
"1000 300 LINE",
"900 300 LINE",
"900 200 LINE"
);
},
{
closed = 1;
nodes = (
"1200 600 LINE",
"1200 700 LINE",
"1100 700 LINE",
"1100 600 LINE"
);
},
{
closed = 1;
nodes = (
"1200 500 LINE",
"1200 600 LINE",
"1100 600 LINE",
"1100 500 LINE"
);
},
{
closed = 1;
nodes = (
"1100 300 LINE",
"1100 400 LINE",
"1000 400 LINE",
"1000 300 LINE"
);
},
{
closed = 1;
nodes = (
"1100 400 LINE",
"1100 500 LINE",
"1000 500 LINE",
"1000 400 LINE"
);
},
{
closed = 1;
nodes = (
"700 300 LINE",
"700 400 LINE",
"600 400 LINE",
"600 300 LINE"
);
},
{
closed = 1;
nodes = (
"800 200 LINE",
"800 300 LINE",
"700 300 LINE",
"700 200 LINE"
);
},
{
closed = 1;
nodes = (
"1000 100 LINE",
"1000 200 LINE",
"900 200 LINE",
"900 100 LINE"
);
},
{
closed = 1;
nodes = (
"900 0 LINE",
"900 100 LINE",
"800 100 LINE",
"800 0 LINE"
);
},
{
closed = 1;
nodes = (
"800 100 LINE",
"800 200 LINE",
"700 200 LINE",
"700 100 LINE"
);
},
{
closed = 1;
nodes = (
"400 200 LINE",
"400 300 LINE",
"300 300 LINE",
"300 200 LINE"
);
},
{
closed = 1;
nodes = (
"500 0 LINE",
"500 100 LINE",
"400 100 LINE",
"400 0 LINE"
);
},
{
closed = 1;
nodes = (
"600 100 LINE",
"600 200 LINE",
"500 200 LINE",
"500 100 LINE"
);
},
{
closed = 1;
nodes = (
"600 200 LINE",
"600 300 LINE",
"500 300 LINE",
"500 200 LINE"
);
},
{
closed = 1;
nodes = (
"700 400 LINE",
"700 500 LINE",
"600 500 LINE",
"600 400 LINE"
);
}
);
width = 1400;
}
);
note = W;
unicode = 0057;
},
{
glyphname = X;
lastChange = "2021-05-02 14:18:17 +0000";
layers = (
{
layerId = "C06D72A1-06A8-4448-87FE-5EE3A071BB54";
paths = (
{
closed = 1;
nodes = (
"700 300 LINE",
"700 400 LINE",
"600 400 LINE",
"600 300 LINE"
);
},
{
closed = 1;
nodes = (
"900 300 LINE",
"900 400 LINE",
"800 400 LINE",
"800 300 LINE"
);
},
{
closed = 1;
nodes = (
"1000 400 LINE",
"1000 500 LINE",
"900 500 LINE",
"900 400 LINE"
);
},
{
closed = 1;
nodes = (
"1100 500 LINE",
"1100 600 LINE",
"1000 600 LINE",
"1000 500 LINE"
);
},
{
closed = 1;
nodes = (
"400 500 LINE",
"400 600 LINE",
"300 600 LINE",
"300 500 LINE"
);
},
{
closed = 1;
nodes = (
"500 400 LINE",
"500 500 LINE",
"400 500 LINE",
"400 400 LINE"
);
},
{
closed = 1;
nodes = (
"1100 100 LINE",
"1100 200 LINE",
"1000 200 LINE",
"1000 100 LINE"
);
},
{
closed = 1;
nodes = (
"500 200 LINE",
"500 300 LINE",
"400 300 LINE",
"400 200 LINE"
);
},
{
closed = 1;
nodes = (
"400 100 LINE",
"400 200 LINE",
"300 200 LINE",
"300 100 LINE"
);
},
{
closed = 1;
nodes = (
"1000 200 LINE",
"1000 300 LINE",
"900 300 LINE",
"900 200 LINE"
);
},
{
closed = 1;
nodes = (
"1200 0 LINE",
"1200 100 LINE",
"1100 100 LINE",
"1100 0 LINE"
);
},
{
closed = 1;
nodes = (
"1200 600 LINE",
"1200 700 LINE",
"1100 700 LINE",
"1100 600 LINE"
);
},
{
closed = 1;
nodes = (
"300 600 LINE",
"300 700 LINE",
"200 700 LINE",
"200 600 LINE"
);
},
{
closed = 1;
nodes = (
"300 0 LINE",
"300 100 LINE",
"200 100 LINE",
"200 0 LINE"
);
},
{
closed = 1;
nodes = (
"600 300 LINE",
"600 400 LINE",
"500 400 LINE",
"500 300 LINE"
);
},
{
closed = 1;
nodes = (
"800 300 LINE",
"800 400 LINE",
"700 400 LINE",
"700 300 LINE"
);
}
);
width = 1400;
}
);
note = X;
unicode = 0058;
},
{
glyphname = Y;
lastChange = "2021-05-02 14:18:17 +0000";
layers = (
{
anchors = (
{
name = bottom;
position = "{700, 0}";
},
{
name = top;
position = "{700, 1000}";
},
{
name = topleft;
position = "{0, 1000}";
}
);
layerId = "C06D72A1-06A8-4448-87FE-5EE3A071BB54";
paths = (
{
closed = 1;
nodes = (
"800 0 LINE",
"800 100 LINE",
"700 100 LINE",
"700 0 LINE"
);
},
{
closed = 1;
nodes = (
"800 100 LINE",
"800 200 LINE",
"700 200 LINE",
"700 100 LINE"
);
},
{
closed = 1;
nodes = (
"700 200 LINE",
"700 300 LINE",
"600 300 LINE",
"600 200 LINE"
);
},
{
closed = 1;
nodes = (
"1100 400 LINE",
"1100 500 LINE",
"1000 500 LINE",
"1000 400 LINE"
);
},
{
closed = 1;
nodes = (
"1200 500 LINE",
"1200 600 LINE",
"1100 600 LINE",
"1100 500 LINE"
);
},
{
closed = 1;
nodes = (
"1300 600 LINE",
"1300 700 LINE",
"1200 700 LINE",
"1200 600 LINE"
);
},
{
closed = 1;
nodes = (
"300 600 LINE",
"300 700 LINE",
"200 700 LINE",
"200 600 LINE"
);
},
{
closed = 1;
nodes = (
"400 500 LINE",
"400 600 LINE",
"300 600 LINE",
"300 500 LINE"
);
},
{
closed = 1;
nodes = (
"500 400 LINE",
"500 500 LINE",
"400 500 LINE",
"400 400 LINE"
);
},
{
closed = 1;
nodes = (
"600 300 LINE",
"600 400 LINE",
"500 400 LINE",
"500 300 LINE"
);
},
{
closed = 1;
nodes = (
"1000 300 LINE",
"1000 400 LINE",
"900 400 LINE",
"900 300 LINE"
);
},
{
closed = 1;
nodes = (
"900 200 LINE",
"900 300 LINE",
"800 300 LINE",
"800 200 LINE"
);
},
{
closed = 1;
nodes = (
"800 200 LINE",
"800 300 LINE",
"700 300 LINE",
"700 200 LINE"
);
}
);
width = 1400;
}
);
note = Y;
unicode = 0059;
},
{
glyphname = Yacute;
lastChange = "2021-05-02 14:18:17 +0000";
layers = (
{
anchors = (
{
name = bottom;
position = "{700, 0}";
},
{
name = top;
position = "{700, 1000}";
},
{
name = topleft;
position = "{0, 1000}";
}
);
components = (
{
name = acutecomb;
transform = "{1, 0, 0, 1, 100, 100}";
}
);
layerId = "C06D72A1-06A8-4448-87FE-5EE3A071BB54";
paths = (
{
closed = 1;
nodes = (
"800 0 LINE",
"800 100 LINE",
"700 100 LINE",
"700 0 LINE"
);
},
{
closed = 1;
nodes = (
"800 100 LINE",
"800 200 LINE",
"700 200 LINE",
"700 100 LINE"
);
},
{
closed = 1;
nodes = (
"700 100 LINE",
"700 200 LINE",
"600 200 LINE",
"600 100 LINE"
);
},
{
closed = 1;
nodes = (
"1100 300 LINE",
"1100 400 LINE",
"1000 400 LINE",
"1000 300 LINE"
);
},
{
closed = 1;
nodes = (
"1200 400 LINE",
"1200 500 LINE",
"1100 500 LINE",
"1100 400 LINE"
);
},
{
closed = 1;
nodes = (
"1300 500 LINE",
"1300 600 LINE",
"1200 600 LINE",
"1200 500 LINE"
);
},
{
closed = 1;
nodes = (
"300 500 LINE",
"300 600 LINE",
"200 600 LINE",
"200 500 LINE"
);
},
{
closed = 1;
nodes = (
"400 400 LINE",
"400 500 LINE",
"300 500 LINE",
"300 400 LINE"
);
},
{
closed = 1;
nodes = (
"500 300 LINE",
"500 400 LINE",
"400 400 LINE",
"400 300 LINE"
);
},
{
closed = 1;
nodes = (
"600 200 LINE",
"600 300 LINE",
"500 300 LINE",
"500 200 LINE"
);
},
{
closed = 1;
nodes = (
"1000 200 LINE",
"1000 300 LINE",
"900 300 LINE",
"900 200 LINE"
);
},
{
closed = 1;
nodes = (
"900 100 LINE",
"900 200 LINE",
"800 200 LINE",
"800 100 LINE"
);
},
{
closed = 1;
nodes = (
"800 100 LINE",
"800 200 LINE",
"700 200 LINE",
"700 100 LINE"
);
}
);
width = 1400;
}
);
unicode = 00DD;
},
{
glyphname = Ycircumflex;
lastChange = "2021-05-02 14:18:17 +0000";
layers = (
{
components = (
{
name = circumflexcomb;
transform = "{1, 0, 0, 1, 100, 100}";
}
);
layerId = "C06D72A1-06A8-4448-87FE-5EE3A071BB54";
paths = (
{
closed = 1;
nodes = (
"800 0 LINE",
"800 100 LINE",
"700 100 LINE",
"700 0 LINE"
);
},
{
closed = 1;
nodes = (
"800 100 LINE",
"800 200 LINE",
"700 200 LINE",
"700 100 LINE"
);
},
{
closed = 1;
nodes = (
"700 100 LINE",
"700 200 LINE",
"600 200 LINE",
"600 100 LINE"
);
},
{
closed = 1;
nodes = (
"1100 300 LINE",
"1100 400 LINE",
"1000 400 LINE",
"1000 300 LINE"
);
},
{
closed = 1;
nodes = (
"1200 400 LINE",
"1200 500 LINE",
"1100 500 LINE",
"1100 400 LINE"
);
},
{
closed = 1;
nodes = (
"1300 500 LINE",
"1300 600 LINE",
"1200 600 LINE",
"1200 500 LINE"
);
},
{
closed = 1;
nodes = (
"300 500 LINE",
"300 600 LINE",
"200 600 LINE",
"200 500 LINE"
);
},
{
closed = 1;
nodes = (
"400 400 LINE",
"400 500 LINE",
"300 500 LINE",
"300 400 LINE"
);
},
{
closed = 1;
nodes = (
"500 300 LINE",
"500 400 LINE",
"400 400 LINE",
"400 300 LINE"
);
},
{
closed = 1;
nodes = (
"600 200 LINE",
"600 300 LINE",
"500 300 LINE",
"500 200 LINE"
);
},
{
closed = 1;
nodes = (
"1000 200 LINE",
"1000 300 LINE",
"900 300 LINE",
"900 200 LINE"
);
},
{
closed = 1;
nodes = (
"900 100 LINE",
"900 200 LINE",
"800 200 LINE",
"800 100 LINE"
);
}
);
width = 1400;
}
);
unicode = 0176;
},
{
glyphname = Ydieresis;
lastChange = "2021-05-02 14:18:17 +0000";
layers = (
{
components = (
{
name = dieresiscomb;
transform = "{1, 0, 0, 1, 100, 100}";
}
);
layerId = "C06D72A1-06A8-4448-87FE-5EE3A071BB54";
paths = (
{
closed = 1;
nodes = (
"800 0 LINE",
"800 100 LINE",
"700 100 LINE",
"700 0 LINE"
);
},
{
closed = 1;
nodes = (
"800 100 LINE",
"800 200 LINE",
"700 200 LINE",
"700 100 LINE"
);
},
{
closed = 1;
nodes = (
"700 100 LINE",
"700 200 LINE",
"600 200 LINE",
"600 100 LINE"
);
},
{
closed = 1;
nodes = (
"1100 300 LINE",
"1100 400 LINE",
"1000 400 LINE",
"1000 300 LINE"
);
},
{
closed = 1;
nodes = (
"1200 400 LINE",
"1200 500 LINE",
"1100 500 LINE",
"1100 400 LINE"
);
},
{
closed = 1;
nodes = (
"1300 500 LINE",
"1300 600 LINE",
"1200 600 LINE",
"1200 500 LINE"
);
},
{
closed = 1;
nodes = (
"300 500 LINE",
"300 600 LINE",
"200 600 LINE",
"200 500 LINE"
);
},
{
closed = 1;
nodes = (
"400 400 LINE",
"400 500 LINE",
"300 500 LINE",
"300 400 LINE"
);
},
{
closed = 1;
nodes = (
"500 300 LINE",
"500 400 LINE",
"400 400 LINE",
"400 300 LINE"
);
},
{
closed = 1;
nodes = (
"600 200 LINE",
"600 300 LINE",
"500 300 LINE",
"500 200 LINE"
);
},
{
closed = 1;
nodes = (
"1000 200 LINE",
"1000 300 LINE",
"900 300 LINE",
"900 200 LINE"
);
},
{
closed = 1;
nodes = (
"900 100 LINE",
"900 200 LINE",
"800 200 LINE",
"800 100 LINE"
);
}
);
width = 1400;
}
);
unicode = 0178;
},
{
glyphname = Ygrave;
lastChange = "2021-05-02 14:18:17 +0000";
layers = (
{
components = (
{
name = gravecomb;
transform = "{1, 0, 0, 1, 100, 100}";
}
);
layerId = "C06D72A1-06A8-4448-87FE-5EE3A071BB54";
paths = (
{
closed = 1;
nodes = (
"800 0 LINE",
"800 100 LINE",
"700 100 LINE",
"700 0 LINE"
);
},
{
closed = 1;
nodes = (
"800 100 LINE",
"800 200 LINE",
"700 200 LINE",
"700 100 LINE"
);
},
{
closed = 1;
nodes = (
"700 100 LINE",
"700 200 LINE",
"600 200 LINE",
"600 100 LINE"
);
},
{
closed = 1;
nodes = (
"1100 300 LINE",
"1100 400 LINE",
"1000 400 LINE",
"1000 300 LINE"
);
},
{
closed = 1;
nodes = (
"1200 400 LINE",
"1200 500 LINE",
"1100 500 LINE",
"1100 400 LINE"
);
},
{
closed = 1;
nodes = (
"1300 500 LINE",
"1300 600 LINE",
"1200 600 LINE",
"1200 500 LINE"
);
},
{
closed = 1;
nodes = (
"300 500 LINE",
"300 600 LINE",
"200 600 LINE",
"200 500 LINE"
);
},
{
closed = 1;
nodes = (
"400 400 LINE",
"400 500 LINE",
"300 500 LINE",
"300 400 LINE"
);
},
{
closed = 1;
nodes = (
"500 300 LINE",
"500 400 LINE",
"400 400 LINE",
"400 300 LINE"
);
},
{
closed = 1;
nodes = (
"600 200 LINE",
"600 300 LINE",
"500 300 LINE",
"500 200 LINE"
);
},
{
closed = 1;
nodes = (
"1000 200 LINE",
"1000 300 LINE",
"900 300 LINE",
"900 200 LINE"
);
},
{
closed = 1;
nodes = (
"900 100 LINE",
"900 200 LINE",
"800 200 LINE",
"800 100 LINE"
);
}
);
width = 1400;
}
);
unicode = 1EF2;
},
{
glyphname = Z;
lastChange = "2021-05-02 14:18:17 +0000";
layers = (
{
layerId = "C06D72A1-06A8-4448-87FE-5EE3A071BB54";
paths = (
{
closed = 1;
nodes = (
"400 0 LINE",
"400 100 LINE",
"300 100 LINE",
"300 0 LINE"
);
},
{
closed = 1;
nodes = (
"500 0 LINE",
"500 100 LINE",
"400 100 LINE",
"400 0 LINE"
);
},
{
closed = 1;
nodes = (
"600 0 LINE",
"600 100 LINE",
"500 100 LINE",
"500 0 LINE"
);
},
{
closed = 1;
nodes = (
"300 0 LINE",
"300 100 LINE",
"200 100 LINE",
"200 0 LINE"
);
},
{
closed = 1;
nodes = (
"700 0 LINE",
"700 100 LINE",
"600 100 LINE",
"600 0 LINE"
);
},
{
closed = 1;
nodes = (
"800 0 LINE",
"800 100 LINE",
"700 100 LINE",
"700 0 LINE"
);
},
{
closed = 1;
nodes = (
"900 0 LINE",
"900 100 LINE",
"800 100 LINE",
"800 0 LINE"
);
},
{
closed = 1;
nodes = (
"1000 0 LINE",
"1000 100 LINE",
"900 100 LINE",
"900 0 LINE"
);
},
{
closed = 1;
nodes = (
"1100 0 LINE",
"1100 100 LINE",
"1000 100 LINE",
"1000 0 LINE"
);
},
{
closed = 1;
nodes = (
"1200 0 LINE",
"1200 100 LINE",
"1100 100 LINE",
"1100 0 LINE"
);
},
{
closed = 1;
nodes = (
"400 100 LINE",
"400 200 LINE",
"300 200 LINE",
"300 100 LINE"
);
},
{
closed = 1;
nodes = (
"300 600 LINE",
"300 700 LINE",
"200 700 LINE",
"200 600 LINE"
);
},
{
closed = 1;
nodes = (
"400 600 LINE",
"400 700 LINE",
"300 700 LINE",
"300 600 LINE"
);
},
{
closed = 1;
nodes = (
"500 600 LINE",
"500 700 LINE",
"400 700 LINE",
"400 600 LINE"
);
},
{
closed = 1;
nodes = (
"600 600 LINE",
"600 700 LINE",
"500 700 LINE",
"500 600 LINE"
);
},
{
closed = 1;
nodes = (
"700 600 LINE",
"700 700 LINE",
"600 700 LINE",
"600 600 LINE"
);
},
{
closed = 1;
nodes = (
"800 600 LINE",
"800 700 LINE",
"700 700 LINE",
"700 600 LINE"
);
},
{
closed = 1;
nodes = (
"900 600 LINE",
"900 700 LINE",
"800 700 LINE",
"800 600 LINE"
);
},
{
closed = 1;
nodes = (
"1000 600 LINE",
"1000 700 LINE",
"900 700 LINE",
"900 600 LINE"
);
},
{
closed = 1;
nodes = (
"1100 600 LINE",
"1100 700 LINE",
"1000 700 LINE",
"1000 600 LINE"
);
},
{
closed = 1;
nodes = (
"1200 600 LINE",
"1200 700 LINE",
"1100 700 LINE",
"1100 600 LINE"
);
},
{
closed = 1;
nodes = (
"1100 500 LINE",
"1100 600 LINE",
"1000 600 LINE",
"1000 500 LINE"
);
},
{
closed = 1;
nodes = (
"500 200 LINE",
"500 300 LINE",
"400 300 LINE",
"400 200 LINE"
);
},
{
closed = 1;
nodes = (
"1000 400 LINE",
"1000 500 LINE",
"900 500 LINE",
"900 400 LINE"
);
},
{
closed = 1;
nodes = (
"600 200 LINE",
"600 300 LINE",
"500 300 LINE",
"500 200 LINE"
);
},
{
closed = 1;
nodes = (
"700 300 LINE",
"700 400 LINE",
"600 400 LINE",
"600 300 LINE"
);
},
{
closed = 1;
nodes = (
"900 400 LINE",
"900 500 LINE",
"800 500 LINE",
"800 400 LINE"
);
},
{
closed = 1;
nodes = (
"800 300 LINE",
"800 400 LINE",
"700 400 LINE",
"700 300 LINE"
);
}
);
width = 1400;
}
);
note = Z;
unicode = 005A;
},
{
glyphname = a;
lastChange = "2021-05-02 14:18:17 +0000";
layers = (
{
anchors = (
{
name = bottom;
position = "{700, 0}";
},
{
name = ogonek;
position = "{1250, 0}";
},
{
name = top;
position = "{700, 500}";
}
);
layerId = "C06D72A1-06A8-4448-87FE-5EE3A071BB54";
paths = (
{
closed = 1;
nodes = (
"400 0 LINE",
"400 100 LINE",
"300 100 LINE",
"300 0 LINE"
);
},
{
closed = 1;
nodes = (
"300 100 LINE",
"300 200 LINE",
"200 200 LINE",
"200 100 LINE"
);
},
{
closed = 1;
nodes = (
"300 200 LINE",
"300 300 LINE",
"200 300 LINE",
"200 200 LINE"
);
},
{
closed = 1;
nodes = (
"300 300 LINE",
"300 400 LINE",
"200 400 LINE",
"200 300 LINE"
);
},
{
closed = 1;
nodes = (
"400 400 LINE",
"400 500 LINE",
"300 500 LINE",
"300 400 LINE"
);
},
{
closed = 1;
nodes = (
"500 400 LINE",
"500 500 LINE",
"400 500 LINE",
"400 400 LINE"
);
},
{
closed = 1;
nodes = (
"600 400 LINE",
"600 500 LINE",
"500 500 LINE",
"500 400 LINE"
);
},
{
closed = 1;
nodes = (
"700 400 LINE",
"700 500 LINE",
"600 500 LINE",
"600 400 LINE"
);
},
{
closed = 1;
nodes = (
"800 400 LINE",
"800 500 LINE",
"700 500 LINE",
"700 400 LINE"
);
},
{
closed = 1;
nodes = (
"900 400 LINE",
"900 500 LINE",
"800 500 LINE",
"800 400 LINE"
);
},
{
closed = 1;
nodes = (
"1000 400 LINE",
"1000 500 LINE",
"900 500 LINE",
"900 400 LINE"
);
},
{
closed = 1;
nodes = (
"1100 300 LINE",
"1100 400 LINE",
"1000 400 LINE",
"1000 300 LINE"
);
},
{
closed = 1;
nodes = (
"1200 400 LINE",
"1200 500 LINE",
"1100 500 LINE",
"1100 400 LINE"
);
},
{
closed = 1;
nodes = (
"500 0 LINE",
"500 100 LINE",
"400 100 LINE",
"400 0 LINE"
);
},
{
closed = 1;
nodes = (
"600 0 LINE",
"600 100 LINE",
"500 100 LINE",
"500 0 LINE"
);
},
{
closed = 1;
nodes = (
"700 0 LINE",
"700 100 LINE",
"600 100 LINE",
"600 0 LINE"
);
},
{
closed = 1;
nodes = (
"800 0 LINE",
"800 100 LINE",
"700 100 LINE",
"700 0 LINE"
);
},
{
closed = 1;
nodes = (
"900 0 LINE",
"900 100 LINE",
"800 100 LINE",
"800 0 LINE"
);
},
{
closed = 1;
nodes = (
"1000 0 LINE",
"1000 100 LINE",
"900 100 LINE",
"900 0 LINE"
);
},
{
closed = 1;
nodes = (
"1100 100 LINE",
"1100 200 LINE",
"1000 200 LINE",
"1000 100 LINE"
);
},
{
closed = 1;
nodes = (
"1200 0 LINE",
"1200 100 LINE",
"1100 100 LINE",
"1100 0 LINE"
);
},
{
closed = 1;
nodes = (
"1200 300 LINE",
"1200 400 LINE",
"1100 400 LINE",
"1100 300 LINE"
);
},
{
closed = 1;
nodes = (
"1200 100 LINE",
"1200 200 LINE",
"1100 200 LINE",
"1100 100 LINE"
);
},
{
closed = 1;
nodes = (
"1200 200 LINE",
"1200 300 LINE",
"1100 300 LINE",
"1100 200 LINE"
);
}
);
width = 1400;
}
);
note = a;
unicode = 0061;
},
{
glyphname = ae;
lastChange = "2021-05-02 14:18:17 +0000";
layers = (
{
anchors = (
{
name = bottom;
position = "{1200, 0}";
},
{
name = ogonek;
position = "{1750, 0}";
},
{
name = top;
position = "{1200, 500}";
}
);
layerId = "C06D72A1-06A8-4448-87FE-5EE3A071BB54";
paths = (
{
closed = 1;
nodes = (
"200 100 LINE",
"200 200 LINE",
"100 200 LINE",
"100 100 LINE"
);
},
{
closed = 1;
nodes = (
"200 200 LINE",
"200 300 LINE",
"100 300 LINE",
"100 200 LINE"
);
},
{
closed = 1;
nodes = (
"200 300 LINE",
"200 400 LINE",
"100 400 LINE",
"100 300 LINE"
);
},
{
closed = 1;
nodes = (
"300 400 LINE",
"300 500 LINE",
"200 500 LINE",
"200 400 LINE"
);
},
{
closed = 1;
nodes = (
"400 400 LINE",
"400 500 LINE",
"300 500 LINE",
"300 400 LINE"
);
},
{
closed = 1;
nodes = (
"400 400 LINE",
"400 500 LINE",
"300 500 LINE",
"300 400 LINE"
);
},
{
closed = 1;
nodes = (
"400 400 LINE",
"400 500 LINE",
"300 500 LINE",
"300 400 LINE"
);
},
{
closed = 1;
nodes = (
"500 400 LINE",
"500 500 LINE",
"400 500 LINE",
"400 400 LINE"
);
},
{
closed = 1;
nodes = (
"600 400 LINE",
"600 500 LINE",
"500 500 LINE",
"500 400 LINE"
);
},
{
closed = 1;
nodes = (
"700 300 LINE",
"700 400 LINE",
"600 400 LINE",
"600 300 LINE"
);
},
{
closed = 1;
nodes = (
"800 400 LINE",
"800 500 LINE",
"700 500 LINE",
"700 400 LINE"
);
},
{
closed = 1;
nodes = (
"300 0 LINE",
"300 100 LINE",
"200 100 LINE",
"200 0 LINE"
);
},
{
closed = 1;
nodes = (
"300 0 LINE",
"300 100 LINE",
"200 100 LINE",
"200 0 LINE"
);
},
{
closed = 1;
nodes = (
"800 200 LINE",
"800 300 LINE",
"700 300 LINE",
"700 200 LINE"
);
},
{
closed = 1;
nodes = (
"400 0 LINE",
"400 100 LINE",
"300 100 LINE",
"300 0 LINE"
);
},
{
closed = 1;
nodes = (
"500 0 LINE",
"500 100 LINE",
"400 100 LINE",
"400 0 LINE"
);
},
{
closed = 1;
nodes = (
"600 0 LINE",
"600 100 LINE",
"500 100 LINE",
"500 0 LINE"
);
},
{
closed = 1;
nodes = (
"700 100 LINE",
"700 200 LINE",
"600 200 LINE",
"600 100 LINE"
);
},
{
closed = 1;
nodes = (
"800 0 LINE",
"800 100 LINE",
"700 100 LINE",
"700 0 LINE"
);
},
{
closed = 1;
nodes = (
"900 200 LINE",
"900 300 LINE",
"800 300 LINE",
"800 200 LINE"
);
},
{
closed = 1;
nodes = (
"800 100 LINE",
"800 200 LINE",
"700 200 LINE",
"700 100 LINE"
);
},
{
closed = 1;
nodes = (
"800 300 LINE",
"800 400 LINE",
"700 400 LINE",
"700 300 LINE"
);
},
{
closed = 1;
nodes = (
"900 400 LINE",
"900 500 LINE",
"800 500 LINE",
"800 400 LINE"
);
},
{
closed = 1;
nodes = (
"1000 400 LINE",
"1000 500 LINE",
"900 500 LINE",
"900 400 LINE"
);
},
{
closed = 1;
nodes = (
"1100 400 LINE",
"1100 500 LINE",
"1000 500 LINE",
"1000 400 LINE"
);
},
{
closed = 1;
nodes = (
"1200 400 LINE",
"1200 500 LINE",
"1100 500 LINE",
"1100 400 LINE"
);
},
{
closed = 1;
nodes = (
"1200 400 LINE",
"1200 500 LINE",
"1100 500 LINE",
"1100 400 LINE"
);
},
{
closed = 1;
nodes = (
"1300 400 LINE",
"1300 500 LINE",
"1200 500 LINE",
"1200 400 LINE"
);
},
{
closed = 1;
nodes = (
"1300 400 LINE",
"1300 500 LINE",
"1200 500 LINE",
"1200 400 LINE"
);
},
{
closed = 1;
nodes = (
"1400 300 LINE",
"1400 400 LINE",
"1300 400 LINE",
"1300 300 LINE"
);
},
{
closed = 1;
nodes = (
"1400 200 LINE",
"1400 300 LINE",
"1300 300 LINE",
"1300 200 LINE"
);
},
{
closed = 1;
nodes = (
"900 0 LINE",
"900 100 LINE",
"800 100 LINE",
"800 0 LINE"
);
},
{
closed = 1;
nodes = (
"1000 0 LINE",
"1000 100 LINE",
"900 100 LINE",
"900 0 LINE"
);
},
{
closed = 1;
nodes = (
"1100 0 LINE",
"1100 100 LINE",
"1000 100 LINE",
"1000 0 LINE"
);
},
{
closed = 1;
nodes = (
"1200 0 LINE",
"1200 100 LINE",
"1100 100 LINE",
"1100 0 LINE"
);
},
{
closed = 1;
nodes = (
"1300 0 LINE",
"1300 100 LINE",
"1200 100 LINE",
"1200 0 LINE"
);
},
{
closed = 1;
nodes = (
"1200 0 LINE",
"1200 100 LINE",
"1100 100 LINE",
"1100 0 LINE"
);
},
{
closed = 1;
nodes = (
"1300 0 LINE",
"1300 100 LINE",
"1200 100 LINE",
"1200 0 LINE"
);
},
{
closed = 1;
nodes = (
"900 200 LINE",
"900 300 LINE",
"800 300 LINE",
"800 200 LINE"
);
},
{
closed = 1;
nodes = (
"1000 200 LINE",
"1000 300 LINE",
"900 300 LINE",
"900 200 LINE"
);
},
{
closed = 1;
nodes = (
"1100 200 LINE",
"1100 300 LINE",
"1000 300 LINE",
"1000 200 LINE"
);
},
{
closed = 1;
nodes = (
"1200 200 LINE",
"1200 300 LINE",
"1100 300 LINE",
"1100 200 LINE"
);
},
{
closed = 1;
nodes = (
"1300 200 LINE",
"1300 300 LINE",
"1200 300 LINE",
"1200 200 LINE"
);
},
{
closed = 1;
nodes = (
"1200 200 LINE",
"1200 300 LINE",
"1100 300 LINE",
"1100 200 LINE"
);
},
{
closed = 1;
nodes = (
"1300 200 LINE",
"1300 300 LINE",
"1200 300 LINE",
"1200 200 LINE"
);
}
);
width = 1400;
}
);
unicode = 00E6;
},
{
glyphname = b;
lastChange = "2021-05-02 14:18:17 +0000";
layers = (
{
layerId = "C06D72A1-06A8-4448-87FE-5EE3A071BB54";
paths = (
{
closed = 1;
nodes = (
"300 0 LINE",
"300 100 LINE",
"200 100 LINE",
"200 0 LINE"
);
},
{
closed = 1;
nodes = (
"300 100 LINE",
"300 200 LINE",
"200 200 LINE",
"200 100 LINE"
);
},
{
closed = 1;
nodes = (
"300 200 LINE",
"300 300 LINE",
"200 300 LINE",
"200 200 LINE"
);
},
{
closed = 1;
nodes = (
"300 300 LINE",
"300 400 LINE",
"200 400 LINE",
"200 300 LINE"
);
},
{
closed = 1;
nodes = (
"300 400 LINE",
"300 500 LINE",
"200 500 LINE",
"200 400 LINE"
);
},
{
closed = 1;
nodes = (
"300 500 LINE",
"300 600 LINE",
"200 600 LINE",
"200 500 LINE"
);
},
{
closed = 1;
nodes = (
"300 600 LINE",
"300 700 LINE",
"200 700 LINE",
"200 600 LINE"
);
},
{
closed = 1;
nodes = (
"400 400 LINE",
"400 500 LINE",
"300 500 LINE",
"300 400 LINE"
);
},
{
closed = 1;
nodes = (
"500 400 LINE",
"500 500 LINE",
"400 500 LINE",
"400 400 LINE"
);
},
{
closed = 1;
nodes = (
"600 400 LINE",
"600 500 LINE",
"500 500 LINE",
"500 400 LINE"
);
},
{
closed = 1;
nodes = (
"700 400 LINE",
"700 500 LINE",
"600 500 LINE",
"600 400 LINE"
);
},
{
closed = 1;
nodes = (
"800 400 LINE",
"800 500 LINE",
"700 500 LINE",
"700 400 LINE"
);
},
{
closed = 1;
nodes = (
"900 400 LINE",
"900 500 LINE",
"800 500 LINE",
"800 400 LINE"
);
},
{
closed = 1;
nodes = (
"1200 300 LINE",
"1200 400 LINE",
"1100 400 LINE",
"1100 300 LINE"
);
},
{
closed = 1;
nodes = (
"1000 400 LINE",
"1000 500 LINE",
"900 500 LINE",
"900 400 LINE"
);
},
{
closed = 1;
nodes = (
"1100 400 LINE",
"1100 500 LINE",
"1000 500 LINE",
"1000 400 LINE"
);
},
{
closed = 1;
nodes = (
"1200 200 LINE",
"1200 300 LINE",
"1100 300 LINE",
"1100 200 LINE"
);
},
{
closed = 1;
nodes = (
"1200 100 LINE",
"1200 200 LINE",
"1100 200 LINE",
"1100 100 LINE"
);
},
{
closed = 1;
nodes = (
"1100 0 LINE",
"1100 100 LINE",
"1000 100 LINE",
"1000 0 LINE"
);
},
{
closed = 1;
nodes = (
"1000 0 LINE",
"1000 100 LINE",
"900 100 LINE",
"900 0 LINE"
);
},
{
closed = 1;
nodes = (
"900 0 LINE",
"900 100 LINE",
"800 100 LINE",
"800 0 LINE"
);
},
{
closed = 1;
nodes = (
"800 0 LINE",
"800 100 LINE",
"700 100 LINE",
"700 0 LINE"
);
},
{
closed = 1;
nodes = (
"700 0 LINE",
"700 100 LINE",
"600 100 LINE",
"600 0 LINE"
);
},
{
closed = 1;
nodes = (
"600 0 LINE",
"600 100 LINE",
"500 100 LINE",
"500 0 LINE"
);
},
{
closed = 1;
nodes = (
"400 0 LINE",
"400 100 LINE",
"300 100 LINE",
"300 0 LINE"
);
},
{
closed = 1;
nodes = (
"500 0 LINE",
"500 100 LINE",
"400 100 LINE",
"400 0 LINE"
);
}
);
width = 1400;
}
);
note = b;
unicode = 0062;
},
{
glyphname = c;
lastChange = "2021-05-02 14:18:17 +0000";
layers = (
{
layerId = "C06D72A1-06A8-4448-87FE-5EE3A071BB54";
paths = (
{
closed = 1;
nodes = (
"300 100 LINE",
"300 200 LINE",
"200 200 LINE",
"200 100 LINE"
);
},
{
closed = 1;
nodes = (
"300 200 LINE",
"300 300 LINE",
"200 300 LINE",
"200 200 LINE"
);
},
{
closed = 1;
nodes = (
"300 300 LINE",
"300 400 LINE",
"200 400 LINE",
"200 300 LINE"
);
},
{
closed = 1;
nodes = (
"400 0 LINE",
"400 100 LINE",
"300 100 LINE",
"300 0 LINE"
);
},
{
closed = 1;
nodes = (
"500 0 LINE",
"500 100 LINE",
"400 100 LINE",
"400 0 LINE"
);
},
{
closed = 1;
nodes = (
"600 0 LINE",
"600 100 LINE",
"500 100 LINE",
"500 0 LINE"
);
},
{
closed = 1;
nodes = (
"700 0 LINE",
"700 100 LINE",
"600 100 LINE",
"600 0 LINE"
);
},
{
closed = 1;
nodes = (
"1100 0 LINE",
"1100 100 LINE",
"1000 100 LINE",
"1000 0 LINE"
);
},
{
closed = 1;
nodes = (
"800 0 LINE",
"800 100 LINE",
"700 100 LINE",
"700 0 LINE"
);
},
{
closed = 1;
nodes = (
"900 0 LINE",
"900 100 LINE",
"800 100 LINE",
"800 0 LINE"
);
},
{
closed = 1;
nodes = (
"1000 0 LINE",
"1000 100 LINE",
"900 100 LINE",
"900 0 LINE"
);
},
{
closed = 1;
nodes = (
"1200 0 LINE",
"1200 100 LINE",
"1100 100 LINE",
"1100 0 LINE"
);
},
{
closed = 1;
nodes = (
"400 400 LINE",
"400 500 LINE",
"300 500 LINE",
"300 400 LINE"
);
},
{
closed = 1;
nodes = (
"500 400 LINE",
"500 500 LINE",
"400 500 LINE",
"400 400 LINE"
);
},
{
closed = 1;
nodes = (
"600 400 LINE",
"600 500 LINE",
"500 500 LINE",
"500 400 LINE"
);
},
{
closed = 1;
nodes = (
"700 400 LINE",
"700 500 LINE",
"600 500 LINE",
"600 400 LINE"
);
},
{
closed = 1;
nodes = (
"800 400 LINE",
"800 500 LINE",
"700 500 LINE",
"700 400 LINE"
);
},
{
closed = 1;
nodes = (
"900 400 LINE",
"900 500 LINE",
"800 500 LINE",
"800 400 LINE"
);
},
{
closed = 1;
nodes = (
"1000 400 LINE",
"1000 500 LINE",
"900 500 LINE",
"900 400 LINE"
);
},
{
closed = 1;
nodes = (
"1100 400 LINE",
"1100 500 LINE",
"1000 500 LINE",
"1000 400 LINE"
);
},
{
closed = 1;
nodes = (
"1200 400 LINE",
"1200 500 LINE",
"1100 500 LINE",
"1100 400 LINE"
);
}
);
width = 1400;
}
);
note = c;
unicode = 0063;
},
{
glyphname = d;
lastChange = "2021-05-02 14:18:17 +0000";
layers = (
{
layerId = "C06D72A1-06A8-4448-87FE-5EE3A071BB54";
paths = (
{
closed = 1;
nodes = (
"300 100 LINE",
"300 200 LINE",
"200 200 LINE",
"200 100 LINE"
);
},
{
closed = 1;
nodes = (
"300 200 LINE",
"300 300 LINE",
"200 300 LINE",
"200 200 LINE"
);
},
{
closed = 1;
nodes = (
"300 300 LINE",
"300 400 LINE",
"200 400 LINE",
"200 300 LINE"
);
},
{
closed = 1;
nodes = (
"400 0 LINE",
"400 100 LINE",
"300 100 LINE",
"300 0 LINE"
);
},
{
closed = 1;
nodes = (
"500 0 LINE",
"500 100 LINE",
"400 100 LINE",
"400 0 LINE"
);
},
{
closed = 1;
nodes = (
"600 0 LINE",
"600 100 LINE",
"500 100 LINE",
"500 0 LINE"
);
},
{
closed = 1;
nodes = (
"700 0 LINE",
"700 100 LINE",
"600 100 LINE",
"600 0 LINE"
);
},
{
closed = 1;
nodes = (
"1200 100 LINE",
"1200 200 LINE",
"1100 200 LINE",
"1100 100 LINE"
);
},
{
closed = 1;
nodes = (
"900 0 LINE",
"900 100 LINE",
"800 100 LINE",
"800 0 LINE"
);
},
{
closed = 1;
nodes = (
"800 0 LINE",
"800 100 LINE",
"700 100 LINE",
"700 0 LINE"
);
},
{
closed = 1;
nodes = (
"1000 0 LINE",
"1000 100 LINE",
"900 100 LINE",
"900 0 LINE"
);
},
{
closed = 1;
nodes = (
"1100 0 LINE",
"1100 100 LINE",
"1000 100 LINE",
"1000 0 LINE"
);
},
{
closed = 1;
nodes = (
"1200 0 LINE",
"1200 100 LINE",
"1100 100 LINE",
"1100 0 LINE"
);
},
{
closed = 1;
nodes = (
"1200 200 LINE",
"1200 300 LINE",
"1100 300 LINE",
"1100 200 LINE"
);
},
{
closed = 1;
nodes = (
"1200 300 LINE",
"1200 400 LINE",
"1100 400 LINE",
"1100 300 LINE"
);
},
{
closed = 1;
nodes = (
"1200 400 LINE",
"1200 500 LINE",
"1100 500 LINE",
"1100 400 LINE"
);
},
{
closed = 1;
nodes = (
"1200 500 LINE",
"1200 600 LINE",
"1100 600 LINE",
"1100 500 LINE"
);
},
{
closed = 1;
nodes = (
"1200 600 LINE",
"1200 700 LINE",
"1100 700 LINE",
"1100 600 LINE"
);
},
{
closed = 1;
nodes = (
"1100 400 LINE",
"1100 500 LINE",
"1000 500 LINE",
"1000 400 LINE"
);
},
{
closed = 1;
nodes = (
"1000 400 LINE",
"1000 500 LINE",
"900 500 LINE",
"900 400 LINE"
);
},
{
closed = 1;
nodes = (
"900 400 LINE",
"900 500 LINE",
"800 500 LINE",
"800 400 LINE"
);
},
{
closed = 1;
nodes = (
"800 400 LINE",
"800 500 LINE",
"700 500 LINE",
"700 400 LINE"
);
},
{
closed = 1;
nodes = (
"700 400 LINE",
"700 500 LINE",
"600 500 LINE",
"600 400 LINE"
);
},
{
closed = 1;
nodes = (
"600 400 LINE",
"600 500 LINE",
"500 500 LINE",
"500 400 LINE"
);
},
{
closed = 1;
nodes = (
"500 400 LINE",
"500 500 LINE",
"400 500 LINE",
"400 400 LINE"
);
},
{
closed = 1;
nodes = (
"400 400 LINE",
"400 500 LINE",
"300 500 LINE",
"300 400 LINE"
);
}
);
width = 1400;
}
);
note = d;
unicode = 0064;
},
{
glyphname = e;
lastChange = "2021-05-02 14:18:17 +0000";
layers = (
{
anchors = (
{
name = bottom;
position = "{700, 0}";
},
{
name = ogonek;
position = "{1250, 0}";
},
{
name = top;
position = "{700, 500}";
}
);
layerId = "C06D72A1-06A8-4448-87FE-5EE3A071BB54";
paths = (
{
closed = 1;
nodes = (
"300 100 LINE",
"300 200 LINE",
"200 200 LINE",
"200 100 LINE"
);
},
{
closed = 1;
nodes = (
"300 200 LINE",
"300 300 LINE",
"200 300 LINE",
"200 200 LINE"
);
},
{
closed = 1;
nodes = (
"300 300 LINE",
"300 400 LINE",
"200 400 LINE",
"200 300 LINE"
);
},
{
closed = 1;
nodes = (
"400 400 LINE",
"400 500 LINE",
"300 500 LINE",
"300 400 LINE"
);
},
{
closed = 1;
nodes = (
"500 400 LINE",
"500 500 LINE",
"400 500 LINE",
"400 400 LINE"
);
},
{
closed = 1;
nodes = (
"600 400 LINE",
"600 500 LINE",
"500 500 LINE",
"500 400 LINE"
);
},
{
closed = 1;
nodes = (
"700 400 LINE",
"700 500 LINE",
"600 500 LINE",
"600 400 LINE"
);
},
{
closed = 1;
nodes = (
"900 400 LINE",
"900 500 LINE",
"800 500 LINE",
"800 400 LINE"
);
},
{
closed = 1;
nodes = (
"800 400 LINE",
"800 500 LINE",
"700 500 LINE",
"700 400 LINE"
);
},
{
closed = 1;
nodes = (
"1100 400 LINE",
"1100 500 LINE",
"1000 500 LINE",
"1000 400 LINE"
);
},
{
closed = 1;
nodes = (
"1000 400 LINE",
"1000 500 LINE",
"900 500 LINE",
"900 400 LINE"
);
},
{
closed = 1;
nodes = (
"1200 300 LINE",
"1200 400 LINE",
"1100 400 LINE",
"1100 300 LINE"
);
},
{
closed = 1;
nodes = (
"1200 200 LINE",
"1200 300 LINE",
"1100 300 LINE",
"1100 200 LINE"
);
},
{
closed = 1;
nodes = (
"400 0 LINE",
"400 100 LINE",
"300 100 LINE",
"300 0 LINE"
);
},
{
closed = 1;
nodes = (
"500 0 LINE",
"500 100 LINE",
"400 100 LINE",
"400 0 LINE"
);
},
{
closed = 1;
nodes = (
"600 0 LINE",
"600 100 LINE",
"500 100 LINE",
"500 0 LINE"
);
},
{
closed = 1;
nodes = (
"700 0 LINE",
"700 100 LINE",
"600 100 LINE",
"600 0 LINE"
);
},
{
closed = 1;
nodes = (
"800 0 LINE",
"800 100 LINE",
"700 100 LINE",
"700 0 LINE"
);
},
{
closed = 1;
nodes = (
"900 0 LINE",
"900 100 LINE",
"800 100 LINE",
"800 0 LINE"
);
},
{
closed = 1;
nodes = (
"1100 0 LINE",
"1100 100 LINE",
"1000 100 LINE",
"1000 0 LINE"
);
},
{
closed = 1;
nodes = (
"1000 0 LINE",
"1000 100 LINE",
"900 100 LINE",
"900 0 LINE"
);
},
{
closed = 1;
nodes = (
"400 200 LINE",
"400 300 LINE",
"300 300 LINE",
"300 200 LINE"
);
},
{
closed = 1;
nodes = (
"500 200 LINE",
"500 300 LINE",
"400 300 LINE",
"400 200 LINE"
);
},
{
closed = 1;
nodes = (
"600 200 LINE",
"600 300 LINE",
"500 300 LINE",
"500 200 LINE"
);
},
{
closed = 1;
nodes = (
"700 200 LINE",
"700 300 LINE",
"600 300 LINE",
"600 200 LINE"
);
},
{
closed = 1;
nodes = (
"800 200 LINE",
"800 300 LINE",
"700 300 LINE",
"700 200 LINE"
);
},
{
closed = 1;
nodes = (
"1000 200 LINE",
"1000 300 LINE",
"900 300 LINE",
"900 200 LINE"
);
},
{
closed = 1;
nodes = (
"900 200 LINE",
"900 300 LINE",
"800 300 LINE",
"800 200 LINE"
);
},
{
closed = 1;
nodes = (
"1100 200 LINE",
"1100 300 LINE",
"1000 300 LINE",
"1000 200 LINE"
);
}
);
width = 1400;
}
);
note = e;
unicode = 0065;
},
{
glyphname = f;
lastChange = "2021-05-02 14:18:17 +0000";
layers = (
{
layerId = "C06D72A1-06A8-4448-87FE-5EE3A071BB54";
paths = (
{
closed = 1;
nodes = (
"300 300 LINE",
"300 400 LINE",
"200 400 LINE",
"200 300 LINE"
);
},
{
closed = 1;
nodes = (
"800 600 LINE",
"800 700 LINE",
"700 700 LINE",
"700 600 LINE"
);
},
{
closed = 1;
nodes = (
"500 300 LINE",
"500 400 LINE",
"400 400 LINE",
"400 300 LINE"
);
},
{
closed = 1;
nodes = (
"600 300 LINE",
"600 400 LINE",
"500 400 LINE",
"500 300 LINE"
);
},
{
closed = 1;
nodes = (
"700 300 LINE",
"700 400 LINE",
"600 400 LINE",
"600 300 LINE"
);
},
{
closed = 1;
nodes = (
"800 300 LINE",
"800 400 LINE",
"700 400 LINE",
"700 300 LINE"
);
},
{
closed = 1;
nodes = (
"900 300 LINE",
"900 400 LINE",
"800 400 LINE",
"800 300 LINE"
);
},
{
closed = 1;
nodes = (
"1000 300 LINE",
"1000 400 LINE",
"900 400 LINE",
"900 300 LINE"
);
},
{
closed = 1;
nodes = (
"400 300 LINE",
"400 400 LINE",
"300 400 LINE",
"300 300 LINE"
);
},
{
closed = 1;
nodes = (
"400 200 LINE",
"400 300 LINE",
"300 300 LINE",
"300 200 LINE"
);
},
{
closed = 1;
nodes = (
"400 100 LINE",
"400 200 LINE",
"300 200 LINE",
"300 100 LINE"
);
},
{
closed = 1;
nodes = (
"400 0 LINE",
"400 100 LINE",
"300 100 LINE",
"300 0 LINE"
);
},
{
closed = 1;
nodes = (
"400 400 LINE",
"400 500 LINE",
"300 500 LINE",
"300 400 LINE"
);
},
{
closed = 1;
nodes = (
"400 500 LINE",
"400 600 LINE",
"300 600 LINE",
"300 500 LINE"
);
},
{
closed = 1;
nodes = (
"600 600 LINE",
"600 700 LINE",
"500 700 LINE",
"500 600 LINE"
);
},
{
closed = 1;
nodes = (
"500 600 LINE",
"500 700 LINE",
"400 700 LINE",
"400 600 LINE"
);
},
{
closed = 1;
nodes = (
"700 600 LINE",
"700 700 LINE",
"600 700 LINE",
"600 600 LINE"
);
},
{
closed = 1;
nodes = (
"900 600 LINE",
"900 700 LINE",
"800 700 LINE",
"800 600 LINE"
);
},
{
closed = 1;
nodes = (
"1000 600 LINE",
"1000 700 LINE",
"900 700 LINE",
"900 600 LINE"
);
},
{
closed = 1;
nodes = (
"1100 600 LINE",
"1100 700 LINE",
"1000 700 LINE",
"1000 600 LINE"
);
},
{
closed = 1;
nodes = (
"1200 500 LINE",
"1200 600 LINE",
"1100 600 LINE",
"1100 500 LINE"
);
},
{
closed = 1;
nodes = (
"200 300 LINE",
"200 400 LINE",
"100 400 LINE",
"100 300 LINE"
);
}
);
width = 1400;
}
);
note = f;
unicode = 0066;
},
{
glyphname = g;
lastChange = "2021-05-02 14:18:17 +0000";
layers = (
{
layerId = "C06D72A1-06A8-4448-87FE-5EE3A071BB54";
paths = (
{
closed = 1;
nodes = (
"300 100 LINE",
"300 200 LINE",
"200 200 LINE",
"200 100 LINE"
);
},
{
closed = 1;
nodes = (
"300 200 LINE",
"300 300 LINE",
"200 300 LINE",
"200 200 LINE"
);
},
{
closed = 1;
nodes = (
"300 300 LINE",
"300 400 LINE",
"200 400 LINE",
"200 300 LINE"
);
},
{
closed = 1;
nodes = (
"400 400 LINE",
"400 500 LINE",
"300 500 LINE",
"300 400 LINE"
);
},
{
closed = 1;
nodes = (
"500 400 LINE",
"500 500 LINE",
"400 500 LINE",
"400 400 LINE"
);
},
{
closed = 1;
nodes = (
"600 400 LINE",
"600 500 LINE",
"500 500 LINE",
"500 400 LINE"
);
},
{
closed = 1;
nodes = (
"700 400 LINE",
"700 500 LINE",
"600 500 LINE",
"600 400 LINE"
);
},
{
closed = 1;
nodes = (
"800 400 LINE",
"800 500 LINE",
"700 500 LINE",
"700 400 LINE"
);
},
{
closed = 1;
nodes = (
"900 400 LINE",
"900 500 LINE",
"800 500 LINE",
"800 400 LINE"
);
},
{
closed = 1;
nodes = (
"1000 400 LINE",
"1000 500 LINE",
"900 500 LINE",
"900 400 LINE"
);
},
{
closed = 1;
nodes = (
"1100 400 LINE",
"1100 500 LINE",
"1000 500 LINE",
"1000 400 LINE"
);
},
{
closed = 1;
nodes = (
"1200 400 LINE",
"1200 500 LINE",
"1100 500 LINE",
"1100 400 LINE"
);
},
{
closed = 1;
nodes = (
"1200 0 LINE",
"1200 100 LINE",
"1100 100 LINE",
"1100 0 LINE"
);
},
{
closed = 1;
nodes = (
"1200 300 LINE",
"1200 400 LINE",
"1100 400 LINE",
"1100 300 LINE"
);
},
{
closed = 1;
nodes = (
"1200 100 LINE",
"1200 200 LINE",
"1100 200 LINE",
"1100 100 LINE"
);
},
{
closed = 1;
nodes = (
"1200 200 LINE",
"1200 300 LINE",
"1100 300 LINE",
"1100 200 LINE"
);
},
{
closed = 1;
nodes = (
"1100 0 LINE",
"1100 100 LINE",
"1000 100 LINE",
"1000 0 LINE"
);
},
{
closed = 1;
nodes = (
"1000 0 LINE",
"1000 100 LINE",
"900 100 LINE",
"900 0 LINE"
);
},
{
closed = 1;
nodes = (
"900 0 LINE",
"900 100 LINE",
"800 100 LINE",
"800 0 LINE"
);
},
{
closed = 1;
nodes = (
"800 0 LINE",
"800 100 LINE",
"700 100 LINE",
"700 0 LINE"
);
},
{
closed = 1;
nodes = (
"700 0 LINE",
"700 100 LINE",
"600 100 LINE",
"600 0 LINE"
);
},
{
closed = 1;
nodes = (
"600 0 LINE",
"600 100 LINE",
"500 100 LINE",
"500 0 LINE"
);
},
{
closed = 1;
nodes = (
"500 0 LINE",
"500 100 LINE",
"400 100 LINE",
"400 0 LINE"
);
},
{
closed = 1;
nodes = (
"400 0 LINE",
"400 100 LINE",
"300 100 LINE",
"300 0 LINE"
);
},
{
closed = 1;
nodes = (
"1200 -100 LINE",
"1200 0 LINE",
"1100 0 LINE",
"1100 -100 LINE"
);
},
{
closed = 1;
nodes = (
"1100 -200 LINE",
"1100 -100 LINE",
"1000 -100 LINE",
"1000 -200 LINE"
);
},
{
closed = 1;
nodes = (
"400 -200 LINE",
"400 -100 LINE",
"300 -100 LINE",
"300 -200 LINE"
);
},
{
closed = 1;
nodes = (
"500 -200 LINE",
"500 -100 LINE",
"400 -100 LINE",
"400 -200 LINE"
);
},
{
closed = 1;
nodes = (
"600 -200 LINE",
"600 -100 LINE",
"500 -100 LINE",
"500 -200 LINE"
);
},
{
closed = 1;
nodes = (
"700 -200 LINE",
"700 -100 LINE",
"600 -100 LINE",
"600 -200 LINE"
);
},
{
closed = 1;
nodes = (
"800 -200 LINE",
"800 -100 LINE",
"700 -100 LINE",
"700 -200 LINE"
);
},
{
closed = 1;
nodes = (
"900 -200 LINE",
"900 -100 LINE",
"800 -100 LINE",
"800 -200 LINE"
);
},
{
closed = 1;
nodes = (
"1000 -200 LINE",
"1000 -100 LINE",
"900 -100 LINE",
"900 -200 LINE"
);
}
);
width = 1400;
}
);
note = g;
unicode = 0067;
},
{
glyphname = h;
lastChange = "2021-05-02 14:18:17 +0000";
layers = (
{
layerId = "C06D72A1-06A8-4448-87FE-5EE3A071BB54";
paths = (
{
closed = 1;
nodes = (
"300 0 LINE",
"300 100 LINE",
"200 100 LINE",
"200 0 LINE"
);
},
{
closed = 1;
nodes = (
"300 100 LINE",
"300 200 LINE",
"200 200 LINE",
"200 100 LINE"
);
},
{
closed = 1;
nodes = (
"300 200 LINE",
"300 300 LINE",
"200 300 LINE",
"200 200 LINE"
);
},
{
closed = 1;
nodes = (
"300 300 LINE",
"300 400 LINE",
"200 400 LINE",
"200 300 LINE"
);
},
{
closed = 1;
nodes = (
"300 400 LINE",
"300 500 LINE",
"200 500 LINE",
"200 400 LINE"
);
},
{
closed = 1;
nodes = (
"300 500 LINE",
"300 600 LINE",
"200 600 LINE",
"200 500 LINE"
);
},
{
closed = 1;
nodes = (
"300 600 LINE",
"300 700 LINE",
"200 700 LINE",
"200 600 LINE"
);
},
{
closed = 1;
nodes = (
"400 300 LINE",
"400 400 LINE",
"300 400 LINE",
"300 300 LINE"
);
},
{
closed = 1;
nodes = (
"500 400 LINE",
"500 500 LINE",
"400 500 LINE",
"400 400 LINE"
);
},
{
closed = 1;
nodes = (
"600 400 LINE",
"600 500 LINE",
"500 500 LINE",
"500 400 LINE"
);
},
{
closed = 1;
nodes = (
"700 400 LINE",
"700 500 LINE",
"600 500 LINE",
"600 400 LINE"
);
},
{
closed = 1;
nodes = (
"800 400 LINE",
"800 500 LINE",
"700 500 LINE",
"700 400 LINE"
);
},
{
closed = 1;
nodes = (
"1000 400 LINE",
"1000 500 LINE",
"900 500 LINE",
"900 400 LINE"
);
},
{
closed = 1;
nodes = (
"900 400 LINE",
"900 500 LINE",
"800 500 LINE",
"800 400 LINE"
);
},
{
closed = 1;
nodes = (
"1100 400 LINE",
"1100 500 LINE",
"1000 500 LINE",
"1000 400 LINE"
);
},
{
closed = 1;
nodes = (
"1200 200 LINE",
"1200 300 LINE",
"1100 300 LINE",
"1100 200 LINE"
);
},
{
closed = 1;
nodes = (
"1200 300 LINE",
"1200 400 LINE",
"1100 400 LINE",
"1100 300 LINE"
);
},
{
closed = 1;
nodes = (
"1200 100 LINE",
"1200 200 LINE",
"1100 200 LINE",
"1100 100 LINE"
);
},
{
closed = 1;
nodes = (
"1200 0 LINE",
"1200 100 LINE",
"1100 100 LINE",
"1100 0 LINE"
);
}
);
width = 1400;
}
);
note = h;
unicode = 0068;
},
{
glyphname = i;
lastChange = "2021-05-02 14:18:17 +0000";
layers = (
{
layerId = "C06D72A1-06A8-4448-87FE-5EE3A071BB54";
paths = (
{
closed = 1;
nodes = (
"300 0 LINE",
"300 100 LINE",
"200 100 LINE",
"200 0 LINE"
);
},
{
closed = 1;
nodes = (
"400 0 LINE",
"400 100 LINE",
"300 100 LINE",
"300 0 LINE"
);
},
{
closed = 1;
nodes = (
"500 0 LINE",
"500 100 LINE",
"400 100 LINE",
"400 0 LINE"
);
},
{
closed = 1;
nodes = (
"600 0 LINE",
"600 100 LINE",
"500 100 LINE",
"500 0 LINE"
);
},
{
closed = 1;
nodes = (
"700 0 LINE",
"700 100 LINE",
"600 100 LINE",
"600 0 LINE"
);
},
{
closed = 1;
nodes = (
"800 0 LINE",
"800 100 LINE",
"700 100 LINE",
"700 0 LINE"
);
},
{
closed = 1;
nodes = (
"900 0 LINE",
"900 100 LINE",
"800 100 LINE",
"800 0 LINE"
);
},
{
closed = 1;
nodes = (
"1000 0 LINE",
"1000 100 LINE",
"900 100 LINE",
"900 0 LINE"
);
},
{
closed = 1;
nodes = (
"1100 0 LINE",
"1100 100 LINE",
"1000 100 LINE",
"1000 0 LINE"
);
},
{
closed = 1;
nodes = (
"1200 0 LINE",
"1200 100 LINE",
"1100 100 LINE",
"1100 0 LINE"
);
},
{
closed = 1;
nodes = (
"300 400 LINE",
"300 500 LINE",
"200 500 LINE",
"200 400 LINE"
);
},
{
closed = 1;
nodes = (
"400 400 LINE",
"400 500 LINE",
"300 500 LINE",
"300 400 LINE"
);
},
{
closed = 1;
nodes = (
"500 400 LINE",
"500 500 LINE",
"400 500 LINE",
"400 400 LINE"
);
},
{
closed = 1;
nodes = (
"600 400 LINE",
"600 500 LINE",
"500 500 LINE",
"500 400 LINE"
);
},
{
closed = 1;
nodes = (
"700 400 LINE",
"700 500 LINE",
"600 500 LINE",
"600 400 LINE"
);
},
{
closed = 1;
nodes = (
"800 600 LINE",
"800 700 LINE",
"700 700 LINE",
"700 600 LINE"
);
},
{
closed = 1;
nodes = (
"800 400 LINE",
"800 500 LINE",
"700 500 LINE",
"700 400 LINE"
);
},
{
closed = 1;
nodes = (
"800 300 LINE",
"800 400 LINE",
"700 400 LINE",
"700 300 LINE"
);
},
{
closed = 1;
nodes = (
"800 200 LINE",
"800 300 LINE",
"700 300 LINE",
"700 200 LINE"
);
},
{
closed = 1;
nodes = (
"800 100 LINE",
"800 200 LINE",
"700 200 LINE",
"700 100 LINE"
);
}
);
width = 1400;
}
);
note = i;
unicode = 0069;
},
{
glyphname = idotless;
lastChange = "2021-05-02 14:18:17 +0000";
layers = (
{
layerId = "C06D72A1-06A8-4448-87FE-5EE3A071BB54";
paths = (
{
closed = 1;
nodes = (
"300 0 LINE",
"300 100 LINE",
"200 100 LINE",
"200 0 LINE"
);
},
{
closed = 1;
nodes = (
"400 0 LINE",
"400 100 LINE",
"300 100 LINE",
"300 0 LINE"
);
},
{
closed = 1;
nodes = (
"500 0 LINE",
"500 100 LINE",
"400 100 LINE",
"400 0 LINE"
);
},
{
closed = 1;
nodes = (
"600 0 LINE",
"600 100 LINE",
"500 100 LINE",
"500 0 LINE"
);
},
{
closed = 1;
nodes = (
"700 0 LINE",
"700 100 LINE",
"600 100 LINE",
"600 0 LINE"
);
},
{
closed = 1;
nodes = (
"800 0 LINE",
"800 100 LINE",
"700 100 LINE",
"700 0 LINE"
);
},
{
closed = 1;
nodes = (
"900 0 LINE",
"900 100 LINE",
"800 100 LINE",
"800 0 LINE"
);
},
{
closed = 1;
nodes = (
"1000 0 LINE",
"1000 100 LINE",
"900 100 LINE",
"900 0 LINE"
);
},
{
closed = 1;
nodes = (
"1100 0 LINE",
"1100 100 LINE",
"1000 100 LINE",
"1000 0 LINE"
);
},
{
closed = 1;
nodes = (
"1200 0 LINE",
"1200 100 LINE",
"1100 100 LINE",
"1100 0 LINE"
);
},
{
closed = 1;
nodes = (
"300 400 LINE",
"300 500 LINE",
"200 500 LINE",
"200 400 LINE"
);
},
{
closed = 1;
nodes = (
"400 400 LINE",
"400 500 LINE",
"300 500 LINE",
"300 400 LINE"
);
},
{
closed = 1;
nodes = (
"500 400 LINE",
"500 500 LINE",
"400 500 LINE",
"400 400 LINE"
);
},
{
closed = 1;
nodes = (
"600 400 LINE",
"600 500 LINE",
"500 500 LINE",
"500 400 LINE"
);
},
{
closed = 1;
nodes = (
"700 400 LINE",
"700 500 LINE",
"600 500 LINE",
"600 400 LINE"
);
},
{
closed = 1;
nodes = (
"800 400 LINE",
"800 500 LINE",
"700 500 LINE",
"700 400 LINE"
);
},
{
closed = 1;
nodes = (
"800 300 LINE",
"800 400 LINE",
"700 400 LINE",
"700 300 LINE"
);
},
{
closed = 1;
nodes = (
"800 200 LINE",
"800 300 LINE",
"700 300 LINE",
"700 200 LINE"
);
},
{
closed = 1;
nodes = (
"800 100 LINE",
"800 200 LINE",
"700 200 LINE",
"700 100 LINE"
);
}
);
width = 1400;
}
);
unicode = 0131;
},
{
glyphname = j;
lastChange = "2021-05-02 14:18:17 +0000";
layers = (
{
layerId = "C06D72A1-06A8-4448-87FE-5EE3A071BB54";
paths = (
{
closed = 1;
nodes = (
"400 -200 LINE",
"400 -100 LINE",
"300 -100 LINE",
"300 -200 LINE"
);
},
{
closed = 1;
nodes = (
"500 -200 LINE",
"500 -100 LINE",
"400 -100 LINE",
"400 -200 LINE"
);
},
{
closed = 1;
nodes = (
"600 -200 LINE",
"600 -100 LINE",
"500 -100 LINE",
"500 -200 LINE"
);
},
{
closed = 1;
nodes = (
"700 -200 LINE",
"700 -100 LINE",
"600 -100 LINE",
"600 -200 LINE"
);
},
{
closed = 1;
nodes = (
"800 -200 LINE",
"800 -100 LINE",
"700 -100 LINE",
"700 -200 LINE"
);
},
{
closed = 1;
nodes = (
"900 -200 LINE",
"900 -100 LINE",
"800 -100 LINE",
"800 -200 LINE"
);
},
{
closed = 1;
nodes = (
"1000 -200 LINE",
"1000 -100 LINE",
"900 -100 LINE",
"900 -200 LINE"
);
},
{
closed = 1;
nodes = (
"1100 -200 LINE",
"1100 -100 LINE",
"1000 -100 LINE",
"1000 -200 LINE"
);
},
{
closed = 1;
nodes = (
"1200 -100 LINE",
"1200 0 LINE",
"1100 0 LINE",
"1100 -100 LINE"
);
},
{
closed = 1;
nodes = (
"1200 0 LINE",
"1200 100 LINE",
"1100 100 LINE",
"1100 0 LINE"
);
},
{
closed = 1;
nodes = (
"1200 100 LINE",
"1200 200 LINE",
"1100 200 LINE",
"1100 100 LINE"
);
},
{
closed = 1;
nodes = (
"1200 200 LINE",
"1200 300 LINE",
"1100 300 LINE",
"1100 200 LINE"
);
},
{
closed = 1;
nodes = (
"1200 300 LINE",
"1200 400 LINE",
"1100 400 LINE",
"1100 300 LINE"
);
},
{
closed = 1;
nodes = (
"1200 400 LINE",
"1200 500 LINE",
"1100 500 LINE",
"1100 400 LINE"
);
},
{
closed = 1;
nodes = (
"1100 400 LINE",
"1100 500 LINE",
"1000 500 LINE",
"1000 400 LINE"
);
},
{
closed = 1;
nodes = (
"1000 400 LINE",
"1000 500 LINE",
"900 500 LINE",
"900 400 LINE"
);
},
{
closed = 1;
nodes = (
"900 400 LINE",
"900 500 LINE",
"800 500 LINE",
"800 400 LINE"
);
},
{
closed = 1;
nodes = (
"800 400 LINE",
"800 500 LINE",
"700 500 LINE",
"700 400 LINE"
);
},
{
closed = 1;
nodes = (
"700 400 LINE",
"700 500 LINE",
"600 500 LINE",
"600 400 LINE"
);
},
{
closed = 1;
nodes = (
"1200 600 LINE",
"1200 700 LINE",
"1100 700 LINE",
"1100 600 LINE"
);
}
);
width = 1400;
}
);
note = j;
unicode = 006A;
},
{
glyphname = k;
lastChange = "2021-05-02 14:18:17 +0000";
layers = (
{
layerId = "C06D72A1-06A8-4448-87FE-5EE3A071BB54";
paths = (
{
closed = 1;
nodes = (
"300 0 LINE",
"300 100 LINE",
"200 100 LINE",
"200 0 LINE"
);
},
{
closed = 1;
nodes = (
"300 100 LINE",
"300 200 LINE",
"200 200 LINE",
"200 100 LINE"
);
},
{
closed = 1;
nodes = (
"300 200 LINE",
"300 300 LINE",
"200 300 LINE",
"200 200 LINE"
);
},
{
closed = 1;
nodes = (
"300 300 LINE",
"300 400 LINE",
"200 400 LINE",
"200 300 LINE"
);
},
{
closed = 1;
nodes = (
"300 400 LINE",
"300 500 LINE",
"200 500 LINE",
"200 400 LINE"
);
},
{
closed = 1;
nodes = (
"300 600 LINE",
"300 700 LINE",
"200 700 LINE",
"200 600 LINE"
);
},
{
closed = 1;
nodes = (
"300 500 LINE",
"300 600 LINE",
"200 600 LINE",
"200 500 LINE"
);
},
{
closed = 1;
nodes = (
"400 200 LINE",
"400 300 LINE",
"300 300 LINE",
"300 200 LINE"
);
},
{
closed = 1;
nodes = (
"600 200 LINE",
"600 300 LINE",
"500 300 LINE",
"500 200 LINE"
);
},
{
closed = 1;
nodes = (
"700 200 LINE",
"700 300 LINE",
"600 300 LINE",
"600 200 LINE"
);
},
{
closed = 1;
nodes = (
"1100 400 LINE",
"1100 500 LINE",
"1000 500 LINE",
"1000 400 LINE"
);
},
{
closed = 1;
nodes = (
"1000 100 LINE",
"1000 200 LINE",
"900 200 LINE",
"900 100 LINE"
);
},
{
closed = 1;
nodes = (
"500 200 LINE",
"500 300 LINE",
"400 300 LINE",
"400 200 LINE"
);
},
{
closed = 1;
nodes = (
"1200 400 LINE",
"1200 500 LINE",
"1100 500 LINE",
"1100 400 LINE"
);
},
{
closed = 1;
nodes = (
"800 200 LINE",
"800 300 LINE",
"700 300 LINE",
"700 200 LINE"
);
},
{
closed = 1;
nodes = (
"1000 300 LINE",
"1000 400 LINE",
"900 400 LINE",
"900 300 LINE"
);
},
{
closed = 1;
nodes = (
"900 300 LINE",
"900 400 LINE",
"800 400 LINE",
"800 300 LINE"
);
},
{
closed = 1;
nodes = (
"1200 0 LINE",
"1200 100 LINE",
"1100 100 LINE",
"1100 0 LINE"
);
},
{
closed = 1;
nodes = (
"1100 0 LINE",
"1100 100 LINE",
"1000 100 LINE",
"1000 0 LINE"
);
},
{
closed = 1;
nodes = (
"900 100 LINE",
"900 200 LINE",
"800 200 LINE",
"800 100 LINE"
);
}
);
width = 1400;
}
);
note = k;
unicode = 006B;
},
{
glyphname = l;
lastChange = "2021-05-02 14:18:17 +0000";
layers = (
{
layerId = "C06D72A1-06A8-4448-87FE-5EE3A071BB54";
paths = (
{
closed = 1;
nodes = (
"300 0 LINE",
"300 100 LINE",
"200 100 LINE",
"200 0 LINE"
);
},
{
closed = 1;
nodes = (
"400 0 LINE",
"400 100 LINE",
"300 100 LINE",
"300 0 LINE"
);
},
{
closed = 1;
nodes = (
"500 0 LINE",
"500 100 LINE",
"400 100 LINE",
"400 0 LINE"
);
},
{
closed = 1;
nodes = (
"600 0 LINE",
"600 100 LINE",
"500 100 LINE",
"500 0 LINE"
);
},
{
closed = 1;
nodes = (
"700 0 LINE",
"700 100 LINE",
"600 100 LINE",
"600 0 LINE"
);
},
{
closed = 1;
nodes = (
"800 0 LINE",
"800 100 LINE",
"700 100 LINE",
"700 0 LINE"
);
},
{
closed = 1;
nodes = (
"900 0 LINE",
"900 100 LINE",
"800 100 LINE",
"800 0 LINE"
);
},
{
closed = 1;
nodes = (
"1000 0 LINE",
"1000 100 LINE",
"900 100 LINE",
"900 0 LINE"
);
},
{
closed = 1;
nodes = (
"1100 0 LINE",
"1100 100 LINE",
"1000 100 LINE",
"1000 0 LINE"
);
},
{
closed = 1;
nodes = (
"1200 0 LINE",
"1200 100 LINE",
"1100 100 LINE",
"1100 0 LINE"
);
},
{
closed = 1;
nodes = (
"300 600 LINE",
"300 700 LINE",
"200 700 LINE",
"200 600 LINE"
);
},
{
closed = 1;
nodes = (
"400 600 LINE",
"400 700 LINE",
"300 700 LINE",
"300 600 LINE"
);
},
{
closed = 1;
nodes = (
"500 600 LINE",
"500 700 LINE",
"400 700 LINE",
"400 600 LINE"
);
},
{
closed = 1;
nodes = (
"600 600 LINE",
"600 700 LINE",
"500 700 LINE",
"500 600 LINE"
);
},
{
closed = 1;
nodes = (
"700 600 LINE",
"700 700 LINE",
"600 700 LINE",
"600 600 LINE"
);
},
{
closed = 1;
nodes = (
"800 600 LINE",
"800 700 LINE",
"700 700 LINE",
"700 600 LINE"
);
},
{
closed = 1;
nodes = (
"800 500 LINE",
"800 600 LINE",
"700 600 LINE",
"700 500 LINE"
);
},
{
closed = 1;
nodes = (
"800 100 LINE",
"800 200 LINE",
"700 200 LINE",
"700 100 LINE"
);
},
{
closed = 1;
nodes = (
"800 400 LINE",
"800 500 LINE",
"700 500 LINE",
"700 400 LINE"
);
},
{
closed = 1;
nodes = (
"800 300 LINE",
"800 400 LINE",
"700 400 LINE",
"700 300 LINE"
);
},
{
closed = 1;
nodes = (
"800 200 LINE",
"800 300 LINE",
"700 300 LINE",
"700 200 LINE"
);
}
);
width = 1400;
}
);
note = l;
unicode = 006C;
},
{
glyphname = m;
lastChange = "2021-05-02 14:18:17 +0000";
layers = (
{
layerId = "C06D72A1-06A8-4448-87FE-5EE3A071BB54";
paths = (
{
closed = 1;
nodes = (
"300 0 LINE",
"300 100 LINE",
"200 100 LINE",
"200 0 LINE"
);
},
{
closed = 1;
nodes = (
"300 100 LINE",
"300 200 LINE",
"200 200 LINE",
"200 100 LINE"
);
},
{
closed = 1;
nodes = (
"300 200 LINE",
"300 300 LINE",
"200 300 LINE",
"200 200 LINE"
);
},
{
closed = 1;
nodes = (
"300 300 LINE",
"300 400 LINE",
"200 400 LINE",
"200 300 LINE"
);
},
{
closed = 1;
nodes = (
"400 400 LINE",
"400 500 LINE",
"300 500 LINE",
"300 400 LINE"
);
},
{
closed = 1;
nodes = (
"500 400 LINE",
"500 500 LINE",
"400 500 LINE",
"400 400 LINE"
);
},
{
closed = 1;
nodes = (
"700 400 LINE",
"700 500 LINE",
"600 500 LINE",
"600 400 LINE"
);
},
{
closed = 1;
nodes = (
"800 300 LINE",
"800 400 LINE",
"700 400 LINE",
"700 300 LINE"
);
},
{
closed = 1;
nodes = (
"1000 400 LINE",
"1000 500 LINE",
"900 500 LINE",
"900 400 LINE"
);
},
{
closed = 1;
nodes = (
"1200 400 LINE",
"1200 500 LINE",
"1100 500 LINE",
"1100 400 LINE"
);
},
{
closed = 1;
nodes = (
"1100 400 LINE",
"1100 500 LINE",
"1000 500 LINE",
"1000 400 LINE"
);
},
{
closed = 1;
nodes = (
"1300 300 LINE",
"1300 400 LINE",
"1200 400 LINE",
"1200 300 LINE"
);
},
{
closed = 1;
nodes = (
"1300 100 LINE",
"1300 200 LINE",
"1200 200 LINE",
"1200 100 LINE"
);
},
{
closed = 1;
nodes = (
"1300 200 LINE",
"1300 300 LINE",
"1200 300 LINE",
"1200 200 LINE"
);
},
{
closed = 1;
nodes = (
"1300 0 LINE",
"1300 100 LINE",
"1200 100 LINE",
"1200 0 LINE"
);
},
{
closed = 1;
nodes = (
"800 200 LINE",
"800 300 LINE",
"700 300 LINE",
"700 200 LINE"
);
},
{
closed = 1;
nodes = (
"800 100 LINE",
"800 200 LINE",
"700 200 LINE",
"700 100 LINE"
);
},
{
closed = 1;
nodes = (
"800 0 LINE",
"800 100 LINE",
"700 100 LINE",
"700 0 LINE"
);
},
{
closed = 1;
nodes = (
"600 400 LINE",
"600 500 LINE",
"500 500 LINE",
"500 400 LINE"
);
},
{
closed = 1;
nodes = (
"900 400 LINE",
"900 500 LINE",
"800 500 LINE",
"800 400 LINE"
);
}
);
width = 1400;
}
);
note = m;
unicode = 006D;
},
{
glyphname = n;
lastChange = "2021-05-02 14:18:17 +0000";
layers = (
{
layerId = "C06D72A1-06A8-4448-87FE-5EE3A071BB54";
paths = (
{
closed = 1;
nodes = (
"300 0 LINE",
"300 100 LINE",
"200 100 LINE",
"200 0 LINE"
);
},
{
closed = 1;
nodes = (
"300 100 LINE",
"300 200 LINE",
"200 200 LINE",
"200 100 LINE"
);
},
{
closed = 1;
nodes = (
"300 200 LINE",
"300 300 LINE",
"200 300 LINE",
"200 200 LINE"
);
},
{
closed = 1;
nodes = (
"300 300 LINE",
"300 400 LINE",
"200 400 LINE",
"200 300 LINE"
);
},
{
closed = 1;
nodes = (
"300 400 LINE",
"300 500 LINE",
"200 500 LINE",
"200 400 LINE"
);
},
{
closed = 1;
nodes = (
"400 300 LINE",
"400 400 LINE",
"300 400 LINE",
"300 300 LINE"
);
},
{
closed = 1;
nodes = (
"500 400 LINE",
"500 500 LINE",
"400 500 LINE",
"400 400 LINE"
);
},
{
closed = 1;
nodes = (
"600 400 LINE",
"600 500 LINE",
"500 500 LINE",
"500 400 LINE"
);
},
{
closed = 1;
nodes = (
"700 400 LINE",
"700 500 LINE",
"600 500 LINE",
"600 400 LINE"
);
},
{
closed = 1;
nodes = (
"800 400 LINE",
"800 500 LINE",
"700 500 LINE",
"700 400 LINE"
);
},
{
closed = 1;
nodes = (
"900 400 LINE",
"900 500 LINE",
"800 500 LINE",
"800 400 LINE"
);
},
{
closed = 1;
nodes = (
"1000 400 LINE",
"1000 500 LINE",
"900 500 LINE",
"900 400 LINE"
);
},
{
closed = 1;
nodes = (
"1100 400 LINE",
"1100 500 LINE",
"1000 500 LINE",
"1000 400 LINE"
);
},
{
closed = 1;
nodes = (
"1200 300 LINE",
"1200 400 LINE",
"1100 400 LINE",
"1100 300 LINE"
);
},
{
closed = 1;
nodes = (
"1200 200 LINE",
"1200 300 LINE",
"1100 300 LINE",
"1100 200 LINE"
);
},
{
closed = 1;
nodes = (
"1200 100 LINE",
"1200 200 LINE",
"1100 200 LINE",
"1100 100 LINE"
);
},
{
closed = 1;
nodes = (
"1200 0 LINE",
"1200 100 LINE",
"1100 100 LINE",
"1100 0 LINE"
);
}
);
width = 1400;
}
);
note = n;
unicode = 006E;
},
{
glyphname = o;
lastChange = "2021-05-02 14:18:17 +0000";
layers = (
{
anchors = (
{
name = bottom;
position = "{700, 0}";
},
{
name = center;
position = "{700, 250}";
},
{
name = ogonek;
position = "{1250, 0}";
},
{
name = top;
position = "{700, 500}";
},
{
name = topright;
position = "{1400, 500}";
}
);
layerId = "C06D72A1-06A8-4448-87FE-5EE3A071BB54";
paths = (
{
closed = 1;
nodes = (
"300 100 LINE",
"300 200 LINE",
"200 200 LINE",
"200 100 LINE"
);
},
{
closed = 1;
nodes = (
"300 200 LINE",
"300 300 LINE",
"200 300 LINE",
"200 200 LINE"
);
},
{
closed = 1;
nodes = (
"300 300 LINE",
"300 400 LINE",
"200 400 LINE",
"200 300 LINE"
);
},
{
closed = 1;
nodes = (
"400 0 LINE",
"400 100 LINE",
"300 100 LINE",
"300 0 LINE"
);
},
{
closed = 1;
nodes = (
"500 0 LINE",
"500 100 LINE",
"400 100 LINE",
"400 0 LINE"
);
},
{
closed = 1;
nodes = (
"600 0 LINE",
"600 100 LINE",
"500 100 LINE",
"500 0 LINE"
);
},
{
closed = 1;
nodes = (
"700 0 LINE",
"700 100 LINE",
"600 100 LINE",
"600 0 LINE"
);
},
{
closed = 1;
nodes = (
"900 0 LINE",
"900 100 LINE",
"800 100 LINE",
"800 0 LINE"
);
},
{
closed = 1;
nodes = (
"800 0 LINE",
"800 100 LINE",
"700 100 LINE",
"700 0 LINE"
);
},
{
closed = 1;
nodes = (
"1000 0 LINE",
"1000 100 LINE",
"900 100 LINE",
"900 0 LINE"
);
},
{
closed = 1;
nodes = (
"1100 0 LINE",
"1100 100 LINE",
"1000 100 LINE",
"1000 0 LINE"
);
},
{
closed = 1;
nodes = (
"1200 100 LINE",
"1200 200 LINE",
"1100 200 LINE",
"1100 100 LINE"
);
},
{
closed = 1;
nodes = (
"1200 200 LINE",
"1200 300 LINE",
"1100 300 LINE",
"1100 200 LINE"
);
},
{
closed = 1;
nodes = (
"1200 300 LINE",
"1200 400 LINE",
"1100 400 LINE",
"1100 300 LINE"
);
},
{
closed = 1;
nodes = (
"1100 400 LINE",
"1100 500 LINE",
"1000 500 LINE",
"1000 400 LINE"
);
},
{
closed = 1;
nodes = (
"1000 400 LINE",
"1000 500 LINE",
"900 500 LINE",
"900 400 LINE"
);
},
{
closed = 1;
nodes = (
"900 400 LINE",
"900 500 LINE",
"800 500 LINE",
"800 400 LINE"
);
},
{
closed = 1;
nodes = (
"800 400 LINE",
"800 500 LINE",
"700 500 LINE",
"700 400 LINE"
);
},
{
closed = 1;
nodes = (
"700 400 LINE",
"700 500 LINE",
"600 500 LINE",
"600 400 LINE"
);
},
{
closed = 1;
nodes = (
"600 400 LINE",
"600 500 LINE",
"500 500 LINE",
"500 400 LINE"
);
},
{
closed = 1;
nodes = (
"500 400 LINE",
"500 500 LINE",
"400 500 LINE",
"400 400 LINE"
);
},
{
closed = 1;
nodes = (
"400 400 LINE",
"400 500 LINE",
"300 500 LINE",
"300 400 LINE"
);
}
);
width = 1400;
}
);
note = o;
unicode = 006F;
},
{
glyphname = oslash;
lastChange = "2021-05-02 14:18:17 +0000";
layers = (
{
anchors = (
{
name = bottom;
position = "{700, 0}";
},
{
name = center;
position = "{700, 250}";
},
{
name = ogonek;
position = "{1250, 0}";
},
{
name = top;
position = "{700, 500}";
},
{
name = topright;
position = "{1400, 500}";
}
);
layerId = "C06D72A1-06A8-4448-87FE-5EE3A071BB54";
paths = (
{
closed = 1;
nodes = (
"300 100 LINE",
"300 200 LINE",
"200 200 LINE",
"200 100 LINE"
);
},
{
closed = 1;
nodes = (
"300 200 LINE",
"300 300 LINE",
"200 300 LINE",
"200 200 LINE"
);
},
{
closed = 1;
nodes = (
"300 300 LINE",
"300 400 LINE",
"200 400 LINE",
"200 300 LINE"
);
},
{
closed = 1;
nodes = (
"400 0 LINE",
"400 100 LINE",
"300 100 LINE",
"300 0 LINE"
);
},
{
closed = 1;
nodes = (
"500 0 LINE",
"500 100 LINE",
"400 100 LINE",
"400 0 LINE"
);
},
{
closed = 1;
nodes = (
"600 0 LINE",
"600 100 LINE",
"500 100 LINE",
"500 0 LINE"
);
},
{
closed = 1;
nodes = (
"700 0 LINE",
"700 100 LINE",
"600 100 LINE",
"600 0 LINE"
);
},
{
closed = 1;
nodes = (
"900 0 LINE",
"900 100 LINE",
"800 100 LINE",
"800 0 LINE"
);
},
{
closed = 1;
nodes = (
"800 0 LINE",
"800 100 LINE",
"700 100 LINE",
"700 0 LINE"
);
},
{
closed = 1;
nodes = (
"1000 0 LINE",
"1000 100 LINE",
"900 100 LINE",
"900 0 LINE"
);
},
{
closed = 1;
nodes = (
"1100 0 LINE",
"1100 100 LINE",
"1000 100 LINE",
"1000 0 LINE"
);
},
{
closed = 1;
nodes = (
"1200 100 LINE",
"1200 200 LINE",
"1100 200 LINE",
"1100 100 LINE"
);
},
{
closed = 1;
nodes = (
"1200 200 LINE",
"1200 300 LINE",
"1100 300 LINE",
"1100 200 LINE"
);
},
{
closed = 1;
nodes = (
"1200 300 LINE",
"1200 400 LINE",
"1100 400 LINE",
"1100 300 LINE"
);
},
{
closed = 1;
nodes = (
"1100 400 LINE",
"1100 500 LINE",
"1000 500 LINE",
"1000 400 LINE"
);
},
{
closed = 1;
nodes = (
"1000 400 LINE",
"1000 500 LINE",
"900 500 LINE",
"900 400 LINE"
);
},
{
closed = 1;
nodes = (
"900 400 LINE",
"900 500 LINE",
"800 500 LINE",
"800 400 LINE"
);
},
{
closed = 1;
nodes = (
"800 400 LINE",
"800 500 LINE",
"700 500 LINE",
"700 400 LINE"
);
},
{
closed = 1;
nodes = (
"700 400 LINE",
"700 500 LINE",
"600 500 LINE",
"600 400 LINE"
);
},
{
closed = 1;
nodes = (
"600 400 LINE",
"600 500 LINE",
"500 500 LINE",
"500 400 LINE"
);
},
{
closed = 1;
nodes = (
"500 400 LINE",
"500 500 LINE",
"400 500 LINE",
"400 400 LINE"
);
},
{
closed = 1;
nodes = (
"400 400 LINE",
"400 500 LINE",
"300 500 LINE",
"300 400 LINE"
);
},
{
closed = 1;
nodes = (
"900 300 LINE",
"900 400 LINE",
"800 400 LINE",
"800 300 LINE"
);
},
{
closed = 1;
nodes = (
"800 200 LINE",
"800 300 LINE",
"700 300 LINE",
"700 200 LINE"
);
},
{
closed = 1;
nodes = (
"600 100 LINE",
"600 200 LINE",
"500 200 LINE",
"500 100 LINE"
);
},
{
closed = 1;
nodes = (
"700 200 LINE",
"700 300 LINE",
"600 300 LINE",
"600 200 LINE"
);
},
{
closed = 1;
nodes = (
"500 100 LINE",
"500 200 LINE",
"400 200 LINE",
"400 100 LINE"
);
},
{
closed = 1;
nodes = (
"1000 300 LINE",
"1000 400 LINE",
"900 400 LINE",
"900 300 LINE"
);
}
);
width = 1400;
}
);
unicode = 00F8;
},
{
glyphname = oe;
lastChange = "2021-05-02 14:18:17 +0000";
layers = (
{
anchors = (
{
name = bottom;
position = "{1200, 0}";
},
{
name = ogonek;
position = "{1750, 0}";
},
{
name = top;
position = "{1200, 500}";
}
);
layerId = "C06D72A1-06A8-4448-87FE-5EE3A071BB54";
paths = (
{
closed = 1;
nodes = (
"200 100 LINE",
"200 200 LINE",
"100 200 LINE",
"100 100 LINE"
);
},
{
closed = 1;
nodes = (
"200 200 LINE",
"200 300 LINE",
"100 300 LINE",
"100 200 LINE"
);
},
{
closed = 1;
nodes = (
"200 300 LINE",
"200 400 LINE",
"100 400 LINE",
"100 300 LINE"
);
},
{
closed = 1;
nodes = (
"300 400 LINE",
"300 500 LINE",
"200 500 LINE",
"200 400 LINE"
);
},
{
closed = 1;
nodes = (
"400 400 LINE",
"400 500 LINE",
"300 500 LINE",
"300 400 LINE"
);
},
{
closed = 1;
nodes = (
"500 400 LINE",
"500 500 LINE",
"400 500 LINE",
"400 400 LINE"
);
},
{
closed = 1;
nodes = (
"600 400 LINE",
"600 500 LINE",
"500 500 LINE",
"500 400 LINE"
);
},
{
closed = 1;
nodes = (
"700 400 LINE",
"700 500 LINE",
"600 500 LINE",
"600 400 LINE"
);
},
{
closed = 1;
nodes = (
"300 0 LINE",
"300 100 LINE",
"200 100 LINE",
"200 0 LINE"
);
},
{
closed = 1;
nodes = (
"800 200 LINE",
"800 300 LINE",
"700 300 LINE",
"700 200 LINE"
);
},
{
closed = 1;
nodes = (
"400 0 LINE",
"400 100 LINE",
"300 100 LINE",
"300 0 LINE"
);
},
{
closed = 1;
nodes = (
"500 0 LINE",
"500 100 LINE",
"400 100 LINE",
"400 0 LINE"
);
},
{
closed = 1;
nodes = (
"600 0 LINE",
"600 100 LINE",
"500 100 LINE",
"500 0 LINE"
);
},
{
closed = 1;
nodes = (
"700 0 LINE",
"700 100 LINE",
"600 100 LINE",
"600 0 LINE"
);
},
{
closed = 1;
nodes = (
"800 100 LINE",
"800 200 LINE",
"700 200 LINE",
"700 100 LINE"
);
},
{
closed = 1;
nodes = (
"800 300 LINE",
"800 400 LINE",
"700 400 LINE",
"700 300 LINE"
);
},
{
closed = 1;
nodes = (
"900 400 LINE",
"900 500 LINE",
"800 500 LINE",
"800 400 LINE"
);
},
{
closed = 1;
nodes = (
"1000 400 LINE",
"1000 500 LINE",
"900 500 LINE",
"900 400 LINE"
);
},
{
closed = 1;
nodes = (
"1100 400 LINE",
"1100 500 LINE",
"1000 500 LINE",
"1000 400 LINE"
);
},
{
closed = 1;
nodes = (
"1200 400 LINE",
"1200 500 LINE",
"1100 500 LINE",
"1100 400 LINE"
);
},
{
closed = 1;
nodes = (
"1300 400 LINE",
"1300 500 LINE",
"1200 500 LINE",
"1200 400 LINE"
);
},
{
closed = 1;
nodes = (
"1400 300 LINE",
"1400 400 LINE",
"1300 400 LINE",
"1300 300 LINE"
);
},
{
closed = 1;
nodes = (
"1400 200 LINE",
"1400 300 LINE",
"1300 300 LINE",
"1300 200 LINE"
);
},
{
closed = 1;
nodes = (
"900 0 LINE",
"900 100 LINE",
"800 100 LINE",
"800 0 LINE"
);
},
{
closed = 1;
nodes = (
"1000 0 LINE",
"1000 100 LINE",
"900 100 LINE",
"900 0 LINE"
);
},
{
closed = 1;
nodes = (
"1100 0 LINE",
"1100 100 LINE",
"1000 100 LINE",
"1000 0 LINE"
);
},
{
closed = 1;
nodes = (
"1200 0 LINE",
"1200 100 LINE",
"1100 100 LINE",
"1100 0 LINE"
);
},
{
closed = 1;
nodes = (
"1300 0 LINE",
"1300 100 LINE",
"1200 100 LINE",
"1200 0 LINE"
);
},
{
closed = 1;
nodes = (
"900 200 LINE",
"900 300 LINE",
"800 300 LINE",
"800 200 LINE"
);
},
{
closed = 1;
nodes = (
"1000 200 LINE",
"1000 300 LINE",
"900 300 LINE",
"900 200 LINE"
);
},
{
closed = 1;
nodes = (
"1100 200 LINE",
"1100 300 LINE",
"1000 300 LINE",
"1000 200 LINE"
);
},
{
closed = 1;
nodes = (
"1200 200 LINE",
"1200 300 LINE",
"1100 300 LINE",
"1100 200 LINE"
);
},
{
closed = 1;
nodes = (
"1300 200 LINE",
"1300 300 LINE",
"1200 300 LINE",
"1200 200 LINE"
);
}
);
width = 1400;
}
);
unicode = 0153;
},
{
glyphname = p;
lastChange = "2021-05-02 14:18:17 +0000";
layers = (
{
layerId = "C06D72A1-06A8-4448-87FE-5EE3A071BB54";
paths = (
{
closed = 1;
nodes = (
"300 -200 LINE",
"300 -100 LINE",
"200 -100 LINE",
"200 -200 LINE"
);
},
{
closed = 1;
nodes = (
"300 -100 LINE",
"300 0 LINE",
"200 0 LINE",
"200 -100 LINE"
);
},
{
closed = 1;
nodes = (
"300 0 LINE",
"300 100 LINE",
"200 100 LINE",
"200 0 LINE"
);
},
{
closed = 1;
nodes = (
"300 100 LINE",
"300 200 LINE",
"200 200 LINE",
"200 100 LINE"
);
},
{
closed = 1;
nodes = (
"300 200 LINE",
"300 300 LINE",
"200 300 LINE",
"200 200 LINE"
);
},
{
closed = 1;
nodes = (
"300 300 LINE",
"300 400 LINE",
"200 400 LINE",
"200 300 LINE"
);
},
{
closed = 1;
nodes = (
"300 400 LINE",
"300 500 LINE",
"200 500 LINE",
"200 400 LINE"
);
},
{
closed = 1;
nodes = (
"400 400 LINE",
"400 500 LINE",
"300 500 LINE",
"300 400 LINE"
);
},
{
closed = 1;
nodes = (
"800 400 LINE",
"800 500 LINE",
"700 500 LINE",
"700 400 LINE"
);
},
{
closed = 1;
nodes = (
"500 400 LINE",
"500 500 LINE",
"400 500 LINE",
"400 400 LINE"
);
},
{
closed = 1;
nodes = (
"600 400 LINE",
"600 500 LINE",
"500 500 LINE",
"500 400 LINE"
);
},
{
closed = 1;
nodes = (
"700 400 LINE",
"700 500 LINE",
"600 500 LINE",
"600 400 LINE"
);
},
{
closed = 1;
nodes = (
"900 400 LINE",
"900 500 LINE",
"800 500 LINE",
"800 400 LINE"
);
},
{
closed = 1;
nodes = (
"1000 400 LINE",
"1000 500 LINE",
"900 500 LINE",
"900 400 LINE"
);
},
{
closed = 1;
nodes = (
"1100 400 LINE",
"1100 500 LINE",
"1000 500 LINE",
"1000 400 LINE"
);
},
{
closed = 1;
nodes = (
"1200 300 LINE",
"1200 400 LINE",
"1100 400 LINE",
"1100 300 LINE"
);
},
{
closed = 1;
nodes = (
"1200 200 LINE",
"1200 300 LINE",
"1100 300 LINE",
"1100 200 LINE"
);
},
{
closed = 1;
nodes = (
"1200 100 LINE",
"1200 200 LINE",
"1100 200 LINE",
"1100 100 LINE"
);
},
{
closed = 1;
nodes = (
"1100 0 LINE",
"1100 100 LINE",
"1000 100 LINE",
"1000 0 LINE"
);
},
{
closed = 1;
nodes = (
"1000 0 LINE",
"1000 100 LINE",
"900 100 LINE",
"900 0 LINE"
);
},
{
closed = 1;
nodes = (
"900 0 LINE",
"900 100 LINE",
"800 100 LINE",
"800 0 LINE"
);
},
{
closed = 1;
nodes = (
"800 0 LINE",
"800 100 LINE",
"700 100 LINE",
"700 0 LINE"
);
},
{
closed = 1;
nodes = (
"700 0 LINE",
"700 100 LINE",
"600 100 LINE",
"600 0 LINE"
);
},
{
closed = 1;
nodes = (
"600 0 LINE",
"600 100 LINE",
"500 100 LINE",
"500 0 LINE"
);
},
{
closed = 1;
nodes = (
"500 0 LINE",
"500 100 LINE",
"400 100 LINE",
"400 0 LINE"
);
},
{
closed = 1;
nodes = (
"400 0 LINE",
"400 100 LINE",
"300 100 LINE",
"300 0 LINE"
);
}
);
width = 1400;
}
);
note = p;
unicode = 0070;
},
{
glyphname = q;
lastChange = "2021-05-02 14:18:17 +0000";
layers = (
{
layerId = "C06D72A1-06A8-4448-87FE-5EE3A071BB54";
paths = (
{
closed = 1;
nodes = (
"300 100 LINE",
"300 200 LINE",
"200 200 LINE",
"200 100 LINE"
);
},
{
closed = 1;
nodes = (
"300 200 LINE",
"300 300 LINE",
"200 300 LINE",
"200 200 LINE"
);
},
{
closed = 1;
nodes = (
"300 300 LINE",
"300 400 LINE",
"200 400 LINE",
"200 300 LINE"
);
},
{
closed = 1;
nodes = (
"400 400 LINE",
"400 500 LINE",
"300 500 LINE",
"300 400 LINE"
);
},
{
closed = 1;
nodes = (
"500 400 LINE",
"500 500 LINE",
"400 500 LINE",
"400 400 LINE"
);
},
{
closed = 1;
nodes = (
"600 400 LINE",
"600 500 LINE",
"500 500 LINE",
"500 400 LINE"
);
},
{
closed = 1;
nodes = (
"800 400 LINE",
"800 500 LINE",
"700 500 LINE",
"700 400 LINE"
);
},
{
closed = 1;
nodes = (
"700 400 LINE",
"700 500 LINE",
"600 500 LINE",
"600 400 LINE"
);
},
{
closed = 1;
nodes = (
"900 400 LINE",
"900 500 LINE",
"800 500 LINE",
"800 400 LINE"
);
},
{
closed = 1;
nodes = (
"1000 400 LINE",
"1000 500 LINE",
"900 500 LINE",
"900 400 LINE"
);
},
{
closed = 1;
nodes = (
"1100 400 LINE",
"1100 500 LINE",
"1000 500 LINE",
"1000 400 LINE"
);
},
{
closed = 1;
nodes = (
"1200 400 LINE",
"1200 500 LINE",
"1100 500 LINE",
"1100 400 LINE"
);
},
{
closed = 1;
nodes = (
"1200 300 LINE",
"1200 400 LINE",
"1100 400 LINE",
"1100 300 LINE"
);
},
{
closed = 1;
nodes = (
"1200 200 LINE",
"1200 300 LINE",
"1100 300 LINE",
"1100 200 LINE"
);
},
{
closed = 1;
nodes = (
"1200 0 LINE",
"1200 100 LINE",
"1100 100 LINE",
"1100 0 LINE"
);
},
{
closed = 1;
nodes = (
"1200 100 LINE",
"1200 200 LINE",
"1100 200 LINE",
"1100 100 LINE"
);
},
{
closed = 1;
nodes = (
"1200 -100 LINE",
"1200 0 LINE",
"1100 0 LINE",
"1100 -100 LINE"
);
},
{
closed = 1;
nodes = (
"1200 -200 LINE",
"1200 -100 LINE",
"1100 -100 LINE",
"1100 -200 LINE"
);
},
{
closed = 1;
nodes = (
"400 0 LINE",
"400 100 LINE",
"300 100 LINE",
"300 0 LINE"
);
},
{
closed = 1;
nodes = (
"500 0 LINE",
"500 100 LINE",
"400 100 LINE",
"400 0 LINE"
);
},
{
closed = 1;
nodes = (
"600 0 LINE",
"600 100 LINE",
"500 100 LINE",
"500 0 LINE"
);
},
{
closed = 1;
nodes = (
"700 0 LINE",
"700 100 LINE",
"600 100 LINE",
"600 0 LINE"
);
},
{
closed = 1;
nodes = (
"800 0 LINE",
"800 100 LINE",
"700 100 LINE",
"700 0 LINE"
);
},
{
closed = 1;
nodes = (
"900 0 LINE",
"900 100 LINE",
"800 100 LINE",
"800 0 LINE"
);
},
{
closed = 1;
nodes = (
"1100 0 LINE",
"1100 100 LINE",
"1000 100 LINE",
"1000 0 LINE"
);
},
{
closed = 1;
nodes = (
"1000 0 LINE",
"1000 100 LINE",
"900 100 LINE",
"900 0 LINE"
);
}
);
width = 1400;
}
);
note = q;
unicode = 0071;
},
{
glyphname = r;
lastChange = "2021-05-02 14:18:17 +0000";
layers = (
{
layerId = "C06D72A1-06A8-4448-87FE-5EE3A071BB54";
paths = (
{
closed = 1;
nodes = (
"300 100 LINE",
"300 200 LINE",
"200 200 LINE",
"200 100 LINE"
);
},
{
closed = 1;
nodes = (
"300 0 LINE",
"300 100 LINE",
"200 100 LINE",
"200 0 LINE"
);
},
{
closed = 1;
nodes = (
"300 200 LINE",
"300 300 LINE",
"200 300 LINE",
"200 200 LINE"
);
},
{
closed = 1;
nodes = (
"300 300 LINE",
"300 400 LINE",
"200 400 LINE",
"200 300 LINE"
);
},
{
closed = 1;
nodes = (
"300 400 LINE",
"300 500 LINE",
"200 500 LINE",
"200 400 LINE"
);
},
{
closed = 1;
nodes = (
"400 300 LINE",
"400 400 LINE",
"300 400 LINE",
"300 300 LINE"
);
},
{
closed = 1;
nodes = (
"500 400 LINE",
"500 500 LINE",
"400 500 LINE",
"400 400 LINE"
);
},
{
closed = 1;
nodes = (
"700 400 LINE",
"700 500 LINE",
"600 500 LINE",
"600 400 LINE"
);
},
{
closed = 1;
nodes = (
"600 400 LINE",
"600 500 LINE",
"500 500 LINE",
"500 400 LINE"
);
},
{
closed = 1;
nodes = (
"800 400 LINE",
"800 500 LINE",
"700 500 LINE",
"700 400 LINE"
);
},
{
closed = 1;
nodes = (
"900 400 LINE",
"900 500 LINE",
"800 500 LINE",
"800 400 LINE"
);
},
{
closed = 1;
nodes = (
"1000 400 LINE",
"1000 500 LINE",
"900 500 LINE",
"900 400 LINE"
);
},
{
closed = 1;
nodes = (
"1100 400 LINE",
"1100 500 LINE",
"1000 500 LINE",
"1000 400 LINE"
);
},
{
closed = 1;
nodes = (
"1200 300 LINE",
"1200 400 LINE",
"1100 400 LINE",
"1100 300 LINE"
);
}
);
width = 1400;
}
);
note = r;
unicode = 0072;
},
{
glyphname = s;
lastChange = "2021-05-02 14:18:17 +0000";
layers = (
{
layerId = "C06D72A1-06A8-4448-87FE-5EE3A071BB54";
paths = (
{
closed = 1;
nodes = (
"300 0 LINE",
"300 100 LINE",
"200 100 LINE",
"200 0 LINE"
);
},
{
closed = 1;
nodes = (
"400 0 LINE",
"400 100 LINE",
"300 100 LINE",
"300 0 LINE"
);
},
{
closed = 1;
nodes = (
"500 0 LINE",
"500 100 LINE",
"400 100 LINE",
"400 0 LINE"
);
},
{
closed = 1;
nodes = (
"600 0 LINE",
"600 100 LINE",
"500 100 LINE",
"500 0 LINE"
);
},
{
closed = 1;
nodes = (
"700 0 LINE",
"700 100 LINE",
"600 100 LINE",
"600 0 LINE"
);
},
{
closed = 1;
nodes = (
"800 0 LINE",
"800 100 LINE",
"700 100 LINE",
"700 0 LINE"
);
},
{
closed = 1;
nodes = (
"1100 0 LINE",
"1100 100 LINE",
"1000 100 LINE",
"1000 0 LINE"
);
},
{
closed = 1;
nodes = (
"900 0 LINE",
"900 100 LINE",
"800 100 LINE",
"800 0 LINE"
);
},
{
closed = 1;
nodes = (
"1000 0 LINE",
"1000 100 LINE",
"900 100 LINE",
"900 0 LINE"
);
},
{
closed = 1;
nodes = (
"1200 100 LINE",
"1200 200 LINE",
"1100 200 LINE",
"1100 100 LINE"
);
},
{
closed = 1;
nodes = (
"1100 200 LINE",
"1100 300 LINE",
"1000 300 LINE",
"1000 200 LINE"
);
},
{
closed = 1;
nodes = (
"900 200 LINE",
"900 300 LINE",
"800 300 LINE",
"800 200 LINE"
);
},
{
closed = 1;
nodes = (
"1000 200 LINE",
"1000 300 LINE",
"900 300 LINE",
"900 200 LINE"
);
},
{
closed = 1;
nodes = (
"800 200 LINE",
"800 300 LINE",
"700 300 LINE",
"700 200 LINE"
);
},
{
closed = 1;
nodes = (
"700 200 LINE",
"700 300 LINE",
"600 300 LINE",
"600 200 LINE"
);
},
{
closed = 1;
nodes = (
"500 200 LINE",
"500 300 LINE",
"400 300 LINE",
"400 200 LINE"
);
},
{
closed = 1;
nodes = (
"600 200 LINE",
"600 300 LINE",
"500 300 LINE",
"500 200 LINE"
);
},
{
closed = 1;
nodes = (
"400 200 LINE",
"400 300 LINE",
"300 300 LINE",
"300 200 LINE"
);
},
{
closed = 1;
nodes = (
"300 300 LINE",
"300 400 LINE",
"200 400 LINE",
"200 300 LINE"
);
},
{
closed = 1;
nodes = (
"400 400 LINE",
"400 500 LINE",
"300 500 LINE",
"300 400 LINE"
);
},
{
closed = 1;
nodes = (
"600 400 LINE",
"600 500 LINE",
"500 500 LINE",
"500 400 LINE"
);
},
{
closed = 1;
nodes = (
"500 400 LINE",
"500 500 LINE",
"400 500 LINE",
"400 400 LINE"
);
},
{
closed = 1;
nodes = (
"700 400 LINE",
"700 500 LINE",
"600 500 LINE",
"600 400 LINE"
);
},
{
closed = 1;
nodes = (
"1100 400 LINE",
"1100 500 LINE",
"1000 500 LINE",
"1000 400 LINE"
);
},
{
closed = 1;
nodes = (
"800 400 LINE",
"800 500 LINE",
"700 500 LINE",
"700 400 LINE"
);
},
{
closed = 1;
nodes = (
"900 400 LINE",
"900 500 LINE",
"800 500 LINE",
"800 400 LINE"
);
},
{
closed = 1;
nodes = (
"1000 400 LINE",
"1000 500 LINE",
"900 500 LINE",
"900 400 LINE"
);
}
);
width = 1400;
}
);
note = s;
unicode = 0073;
},
{
glyphname = t;
lastChange = "2021-05-02 14:18:17 +0000";
layers = (
{
layerId = "C06D72A1-06A8-4448-87FE-5EE3A071BB54";
paths = (
{
closed = 1;
nodes = (
"300 100 LINE",
"300 200 LINE",
"200 200 LINE",
"200 100 LINE"
);
},
{
closed = 1;
nodes = (
"300 200 LINE",
"300 300 LINE",
"200 300 LINE",
"200 200 LINE"
);
},
{
closed = 1;
nodes = (
"300 300 LINE",
"300 400 LINE",
"200 400 LINE",
"200 300 LINE"
);
},
{
closed = 1;
nodes = (
"300 400 LINE",
"300 500 LINE",
"200 500 LINE",
"200 400 LINE"
);
},
{
closed = 1;
nodes = (
"300 500 LINE",
"300 600 LINE",
"200 600 LINE",
"200 500 LINE"
);
},
{
closed = 1;
nodes = (
"300 600 LINE",
"300 700 LINE",
"200 700 LINE",
"200 600 LINE"
);
},
{
closed = 1;
nodes = (
"400 400 LINE",
"400 500 LINE",
"300 500 LINE",
"300 400 LINE"
);
},
{
closed = 1;
nodes = (
"600 400 LINE",
"600 500 LINE",
"500 500 LINE",
"500 400 LINE"
);
},
{
closed = 1;
nodes = (
"500 400 LINE",
"500 500 LINE",
"400 500 LINE",
"400 400 LINE"
);
},
{
closed = 1;
nodes = (
"700 400 LINE",
"700 500 LINE",
"600 500 LINE",
"600 400 LINE"
);
},
{
closed = 1;
nodes = (
"800 400 LINE",
"800 500 LINE",
"700 500 LINE",
"700 400 LINE"
);
},
{
closed = 1;
nodes = (
"900 400 LINE",
"900 500 LINE",
"800 500 LINE",
"800 400 LINE"
);
},
{
closed = 1;
nodes = (
"1000 400 LINE",
"1000 500 LINE",
"900 500 LINE",
"900 400 LINE"
);
},
{
closed = 1;
nodes = (
"1200 400 LINE",
"1200 500 LINE",
"1100 500 LINE",
"1100 400 LINE"
);
},
{
closed = 1;
nodes = (
"1100 400 LINE",
"1100 500 LINE",
"1000 500 LINE",
"1000 400 LINE"
);
},
{
closed = 1;
nodes = (
"900 0 LINE",
"900 100 LINE",
"800 100 LINE",
"800 0 LINE"
);
},
{
closed = 1;
nodes = (
"400 0 LINE",
"400 100 LINE",
"300 100 LINE",
"300 0 LINE"
);
},
{
closed = 1;
nodes = (
"500 0 LINE",
"500 100 LINE",
"400 100 LINE",
"400 0 LINE"
);
},
{
closed = 1;
nodes = (
"600 0 LINE",
"600 100 LINE",
"500 100 LINE",
"500 0 LINE"
);
},
{
closed = 1;
nodes = (
"1100 0 LINE",
"1100 100 LINE",
"1000 100 LINE",
"1000 0 LINE"
);
},
{
closed = 1;
nodes = (
"700 0 LINE",
"700 100 LINE",
"600 100 LINE",
"600 0 LINE"
);
},
{
closed = 1;
nodes = (
"800 0 LINE",
"800 100 LINE",
"700 100 LINE",
"700 0 LINE"
);
},
{
closed = 1;
nodes = (
"1000 0 LINE",
"1000 100 LINE",
"900 100 LINE",
"900 0 LINE"
);
},
{
closed = 1;
nodes = (
"1200 100 LINE",
"1200 200 LINE",
"1100 200 LINE",
"1100 100 LINE"
);
},
{
closed = 1;
nodes = (
"200 400 LINE",
"200 500 LINE",
"100 500 LINE",
"100 400 LINE"
);
}
);
width = 1400;
}
);
note = t;
unicode = 0074;
},
